<?xml version="1.0" encoding="utf-8"?>
<!-- Generator: Adobe Illustrator 25.0.1, SVG Export Plug-In . SVG Version: 6.00 Build 0)  -->
<svg version="1.1" id="Layer_1" xmlns:v="https://vecta.io/nano"
	 xmlns="http://www.w3.org/2000/svg" xmlns:xlink="http://www.w3.org/1999/xlink" x="0px" y="0px" viewBox="0 0 500 500"
	 style="enable-background:new 0 0 500 500;" xml:space="preserve">
<style type="text/css">
	.st0{fill:#D20072;}
	.st1{fill:#B07F12;}
	.st2{fill:#633E22;}
	.st3{fill:#F8F6F3;}
	.st4{fill:#F8F7F6;}
	.st5{fill:#F9F8F7;}
	.st6{fill:#FAF9F8;}
	.st7{fill:#BA9035;}
	.st8{fill:#F9F5EF;}
	.st9{fill:#B78A28;}
	.st10{fill:#CEAE70;}
	.st11{fill:#E6D4B5;}
	.st12{fill:#6B472C;}
	.st13{fill:#B4851D;}
	.st14{fill:#FAF8F5;}
	.st15{fill:#FAF7F3;}
	.st16{fill:#B18113;}
	.st17{fill:#B18112;}
	.st18{fill:#B28216;}
	.st19{fill:#FAF8F3;}
	.st20{fill:#B38319;}
</style>
<circle class="st0" cx="250.5" cy="251" r="247.5"/>
<path class="st1" d="M251.2,476.9c-124.4,0-225.8-101-226.1-224.7c-0.3-125,100.3-227,226.1-226.9
	c124.6,0.1,226.6,100.5,225.8,227.2C476.4,377.3,375.4,476.6,251.2,476.9L251.2,476.9z M36.4,250.9C36,369.3,132,464.2,247.9,465.7
	c121.1,1.6,217.4-95.5,218.2-212.9c0.8-120.4-96.3-216.3-214.6-216.5C132.7,36.1,36,132.8,36.4,250.9L36.4,250.9z"/>
<path class="st2" d="M36.4,250.9C36,132.8,132.7,36.1,251.4,36.3c118.3,0.2,215.5,96.1,214.6,216.5
	c-0.8,117.4-97.1,214.6-218.2,212.9C132,464.2,36,369.3,36.4,250.9L36.4,250.9z M52.2,237l-4.1,0.4l-1.2,1.3l-6.2,5.4
	c1,0.9,1.9,1.8,2.8,2.5c2,1.6,4,3.1,6,4.6c1.5,0,3,0.1,2.9,2.3c0,0.3,1.2,0.7,1.8,1.1l2.6,4.7l2.8,1.7l0.5,0.9l3.1,5l3.6-5l0.6-1.3
	l1.9-0.8l1.9-3.7l2.7-2.3c0.1-0.2,0.1-0.3,0.1-0.5l5.2-2.1l2.1-3.2l1.3-0.6l3.8-2.6l-6.5-6.1l-4.2-1.7l-4.1-4.2l-1.5-3.5l-2.7-1.3
	l0,0l-3.6-5.8l-5.9,6.3l-2.5,5.4L52.2,237L52.2,237z M421.3,248.1L421.3,248.1l1.2,2.1l5.1,1.9l5.4,8.7h0l0.9,0.2l4.6,5.4l-0.7-1.1
	l7.6-6c-0.3-3.7,4.9-3.6,4.7-6.8l4.2-1l1.7-2.8l0.9-0.6c3.9-1.5,4.3-2.9,1.5-5.7c-0.7-0.7-1.5-1.4-2.3-2.1l-0.4-0.8l0-0.1l-5.1-2.4
	l-4.1-4l-0.8-2.8l-3.4-2.4v0l-3.2-5.4l-5.3,6.6c-0.1-0.2-0.1-0.4-0.2-0.6c0,0-0.3-0.1-0.3,0c-0.5,0.9-1.3,1.8-1.5,2.8
	c-0.6,2.5-4.1,5.3-6.7,5.9c-1.3,0.3-2.4,1.8-3.5,2.7l0.1,1c-0.1,0-0.3,0.1-0.4,0.1l-5.8,3.3L421.3,248.1L421.3,248.1z M104.1,400.2
	l-3.3-4.7l3.9-2.2c-2.8-2.4-5.2-4.7-7.9-6.7c-0.7-0.5-2.5-0.5-3.3,0c-1.1,0.8-2.6,2.7-2.3,3.5c0.8,2,2.1,4.3,3.9,5.3
	c2.6,1.6,4.1,3.8,5.4,6.2c1.8,3.2,5.1,5,7.4,3.6c4.4-2.7,5.3-4.9,4.2-9.7c2.4,2.1,4.5,1.7,6.7-0.4c1.2-1.2,2.9-2.2,3.8-3.6
	c1-1.6,1.4-3.7,2.1-5.5l0.7-0.6l2.2,1.8c2.2-2.9,2.2-5.2-0.2-8c-2-2.3-4.1-4.5-6.2-6.8c-4.7-5.1-7.8-4.9-12.3,0.5l2.5,3.4
	c-4.4-0.2-7.1,1.7-5.9,4.3c1.3,2.9,0.4,4.6-2.1,7.1l7.8,6.9c-5.6-0.9-6.8,0-6.4,4.8L104.1,400.2L104.1,400.2z M344.7,414.9l3.5-2.3
	c-1.7-3.3-4.1-4.4-7.2-3c-3.6,1.6-7.1,3.3-10.5,5.4c-3.2,2-3.7,4.6-2.1,7.9c0.7,1.3,1.4,2.6,2.2,4.1l11.4-5.7
	c0.7-0.3,1.7-0.1,2.6-0.2c-0.2,0.9-0.2,2-0.7,2.6c-1.9,2.7-1.5,5.8,1.1,6.9c3.2,1.4,8.2-1.3,8.8-4.7c0.7-4.3-4.7-10.6-9-10.5
	C344.7,415.3,344.7,415.1,344.7,414.9L344.7,414.9z M380.3,392.4L380.3,392.4c-0.1,5.7,4.9,7.8,7.6,11.1l4.7-4.3
	c-1.3-4.5-9.4-5.4-5.6-12.2l-2.4-2.2l-2.9,2.3l-0.9-0.6c0.7-1,1.2-2.1,2-2.9c4.7-4.7,3.7-4.6,8.2-0.1l8.9,8.9l5.1-5.3l-11.2-10.8
	c-2.9-2.8-5.7-3.2-8.8-0.7c-3,2.5-5.9,5.3-8.4,8.3c-2.4,2.8-2,5.6,0,8.1C377.9,393.7,379,393.9,380.3,392.4z M307,69.4
	c-4.7-0.5-5.8,0.1-7.5,4.4l-1,2.8c-1.5,4.3-0.6,7.1,3.6,8.9c4.1,1.8,8.4,3.2,12.6,4.5c4,1.2,6.6-0.2,8.1-4.1
	c1.4-3.6,2.6-7.2,3.9-10.8c1.3-4,0.4-6.7-3.5-8.4c-4-1.8-8.1-3.3-12.3-4.4c-4.4-1.2-7.3,0.7-8.6,4.7L307,69.4L307,69.4L307,69.4z
	 M184.8,76.5l4.9,11.5l7-3L190,68.7c-1.7-4-4.2-5.6-8.3-4.3c-4.9,1.5-9.7,3.5-14.3,5.7c-3.9,1.9-4.7,5-3.1,9.2l2.9,7.3
	c3.7,9.2,4.5,9.5,13.7,4.8l-1.2-9.1c3.1-0.7,4.5-2.7,4.5-5.7l0.2,0L184.8,76.5L184.8,76.5z M247.7,422.7v-1.1l3.6-4.1
	c-1.6-0.1-2.1-0.2-2.5-0.1c-2.7,0.7-5.3,1.9-8,2.1c-8.3,0.5-9,1.1-8.3,9.4c0,0.2,0.2,0.4,0.7,1.1c1.9-0.6,3.9-1.3,5.9-1.8
	c0.7-0.2,1.6-0.1,2.4-0.1l7.3,0.6l0.5,0.5l-0.6,14.8c-0.3,5.7-0.4,5.7-6.2,5.3c-0.1,0-0.2,0-0.3,0c-2-0.1-2.9-0.9-2.7-3.1
	c0.4-3.6,0.6-7.2,0.7-10.8c0.1-3-1.9-4.8-5.4-5c-2.7-0.2-5.3,0.4-6.1,3.3c-0.9,3,1,4.7,3.7,5.6c0.3,0.1,0.5,0.4,0.8,0.6l-0.6,5.6
	c-0.5,5.3,1.4,7.6,6.7,8c3,0.2,5.9,0.4,8.9,0.5c4,0.1,6.7-1.4,6.9-4.6c0.7-8.2,1-16.3,1.5-24.2L247.7,422.7L247.7,422.7z
	 M251.1,411.7c86.3,0.6,159.8-69.4,160.9-158.5c1.1-90.6-72.2-162.3-159.5-163c-89.4-0.7-163.3,72.4-162.3,162.6
	C91.2,341.4,164.3,412.3,251.1,411.7L251.1,411.7z M381.6,96.1l9.3,10.8c-3.1,2.5-4.7,0.2-6.6-1.6c-2.1-1.9-4.1-4-6.5-5.5
	c-3.5-2.4-6.5-1.9-8.9,1.2c1,1,2,2,3.1,2.9c0.9,0.6,1.9,1.4,2.9,1.4c1.9,0,8.1,4.1,8.4,6.1c0.1,0.5-0.1,1.2-0.4,1.5
	c-1.1,1.3-2.2,2.5-3.4,3.8c0.1-3.9-2.1-5.9-4.4-8c-7.3-6.5-8.3-6.5-14.6,1.1c-2.5,2.9-2.5,5.3-0.1,8.2c2.3,2.7,5.5,3.6,7.9,2.2
	c2.6-1.6,2.9-3.8,1-8.1c0-0.1,0-0.2,0-0.3c2.9-0.2,4,1,3.3,3.7c-0.7,2.8-1.7,5.4-2.5,8.2c-0.2,0.8-0.5,1.8-0.2,2.5
	c1.9,4.3,6.9,5,10.1,1.5c1.9-2.1,3.9-4.1,5.8-6.3c1.8-2.1,3.5-4.4,5.3-6.7l5.7-1.1l2.5,2.3c4.1-3.7,2.5-11.4-2.7-17
	C391.7,93.8,386.8,92.7,381.6,96.1L381.6,96.1z M344.2,90.5l2.8-4.7c2.9-4.9,0.5-10-5.1-10.5c-1.7-0.1-4.4,0.8-5.2,2.2
	c-0.8,1.4,0.2,3.8,0.6,5.7c0.1,0.6,1,1.1,1.5,1.7l-1.8,2.3c-4.4-1.2-6.9-0.3-8.4,3c-1.5,3.4-0.4,5.9,3.6,8.4
	c4.4,2.7,4.8,2.6,9.3-2.9c0.8,3,1,6.1,2.4,8.6c0.9,1.7,3.2,3.1,5.2,3.8c1,0.3,3.2-0.8,4-2c3.8-5.8,7.2-11.8,10.9-17.9l-6.5-4
	l-9.3,15.2C348.1,99.4,344.2,90.5,344.2,90.5z M123.1,122.6c-0.3-0.1-0.4-0.1-0.5-0.1l-8-8.2c-4-4.2-10.1-2.8-11.6,2.9
	c-0.4,1.4,0.1,3.7,1.1,4.7c1,1,3.1,1.1,4.7,1.3c0.8,0.1,1.8-0.7,2-0.8l11.2,10.2c5.2-2.4,5.8-7.5,6.8-12.1c1.6,0.2,3,0.6,4.4,0.5
	c2.9-0.2,5.8-3.2,5.9-6.2c0.1-2.5-1.1-4.9-3.4-4.9c-3.1,0.1-4.2-2-5.9-3.6l-8.5-7.9l-5.2,6.3c2.9,2.5,6,5.1,8.9,7.9
	c0.6,0.6,1,2,0.8,2.8C125.2,117.6,124.1,120,123.1,122.6z M385.8,143c1.8,5.9,6.6,7.3,11.5,9.1c-2.6,3.2-1.9,5.9,0.2,8.6
	c1.6,2.1,4,3.1,6.1,2c1.8-1,2.8-3.3,4.2-5l-0.4-0.2l12.8-8.8l-4.4-6.3l-11.9,8.1l-8.5-4.8c3.8-2.7,7.5-5.1,11-7.8
	c2.8-2.1,3-4.8,0.9-8.1c-1.9-3-5-4.2-7.5-3c-2.5,1.2-3,3.6-1.8,7.5c0.1,0.2,0,0.4,0,0.3L385.8,143L385.8,143z M268.9,62
	c-4.2,2.2-3.7,6.1-4.1,9.4c-0.5,3.7,0.9,6.1,4.5,6.9c4.9,1.1,9.9,1.7,14.9,2.2c3.2,0.3,5.4-1.6,6-4.9c0.7-4.1,1.4-8.2,1.9-12.3
	c0.5-4.1-0.9-6.2-5-7.2c-4.1-1-8.4-1.7-12.6-1.9c-2.1-0.1-4.5,0.9-6.3,2.1C266.2,57.7,265.7,59.9,268.9,62L268.9,62z M91.1,154.5
	l4,2.8c3.3,2.2,6,2.2,8.5-0.8c2.9-3.5,5.5-7.1,7.7-11c0.9-1.6,1-4.5,0.1-6.1c-2.6-4.9-8.9-6.7-13.9-4.4c-0.1,0-0.3-0.2-0.6-0.4
	l2.5-4.1c-3.2-2.2-5.9-2.2-8.2,0.6c-2.8,3.5-5.4,7.2-7.6,11.1c-2,3.6-1,6.3,2.4,8.8c1.2,0.9,2.5,1.7,3.7,2.6l3.2-3.5l0.6,0.5
	L91.1,154.5L91.1,154.5z M198.4,436.3c-0.8-5.3-1-5.5-5.6-7.1c-8.7-2.9-9.4-2.5-12.1,6.1c-0.8,2.6-0.1,4.6,2,5.9
	c2.3,1.4,4.9,2.2,7.4,0.4c2-1.4,2.2-4.4,0.4-6.4c-0.6-0.6-1.6-0.9-2.5-1.4l1.1-1.2c1.7,0,3.3,0.3,3.7,2.7c0.3,2.4,0.8,4.8,0.9,7.2
	c0.2,3.5,3.1,3.2,5.2,3.7c2.1,0.5,3.5-0.8,4.2-2.8l3.9-12.2c0.9-2.9-0.2-5.3-2.7-6.3c-4.4-1.8-9-3.3-13.7-4.3
	c-2.8-0.6-5.4,0.6-6.5,4.4c2.8-0.3,4.9,3.3,7.9,0.4c0.3-0.3,1.3-0.1,1.9,0.1c7.7,2.7,7.4,1.3,4.9,8.6
	C198.7,434.7,198.7,435.1,198.4,436.3L198.4,436.3z M302,434.2l1.8,7.1c0.8,3.2,3,4.8,6,4.2c4.5-1,8.9-2.3,13.2-3.9
	c2.2-0.8,3.6-2.9,3-5.3c-2.1-8-4.5-15.9-6.9-24.1l-6.6,2L318,433c1.7,5.9,1.7,5.8-4.3,7.4c-2.1,0.5-3,0-3.5-2.1
	c-0.8-3.3-1.8-6.5-2.7-9.8c-0.6-2.4-2-3.8-4.6-3.8c-2.8,0-5.3,0.7-6.6,3.3c-1.2,2.4,0.3,5.2,3,5.9
	C300.1,434.2,301.1,434.1,302,434.2L302,434.2z M405,350.1l8.8,6.2c0.6,0.5,1.5,1.3,1.5,1.9c-0.2,2.5-0.7,5-1.2,7.9l-9.9-6.7
	c-2.6-1.7-5.2-1-7.1,1.7c-1.6,2.3-2.7,4.8-0.4,7.2c2.3,2.4,4.8,1.4,6.9-0.6c0.1-0.1,0.4,0,0.3,0l10.7,7.4c4.5-3.2,4.1-7.8,4.1-12.1
	c1.2,0,2.2,0.1,3.2,0c2.6-0.5,4.9-3.5,4.8-6.3c-0.1-2.4-1.6-4.6-3.7-4.1c-2.9,0.7-4.1-1.1-5.9-2.3c-2.7-1.8-5.4-3.7-8.2-5.7
	L405,350.1L405,350.1z M271,452.3c5.6,1.6,8.5-2.1,11.9-4.9c0.6,0.8,1,1.5,1.7,2.1c2.1,1.9,6.5,1.6,8.5-0.4c1.9-2,1.5-4.3-0.9-6.8
	c-0.5-0.5-0.6-1.5-0.8-2.2l-1.7-12.2l-6.8,1l1.4,10.8c0.1,0.8,0.1,2-0.4,2.3c-2.1,1.4-4.4,2.6-6.9,4l-1.6-11.6c-0.5-3-2.5-4.5-6-4.2
	c-3.3,0.3-5.5,2-5.5,4.5c0,3.4,2.2,4.5,5.1,4.7c0.1,0,0.3,0.3,0.2,0.2l0.8,6.7L271,452.3z M256.2,59.5c-0.1-4.8-1.3-6.5-5.3-6.9
	c-2.9-0.3-5.9-0.1-8.9,0c-9.8,0.2-11.5,2.2-10,12.1l13.7,0c2.2-0.1,3.4,0.5,2.9,2.9c-4.6,1.4-6.6,4.4-4.7,7.5
	c1.7,2.9,4.7,3.1,7.6,2.6c2.8-0.5,4.8-2.1,4.8-5.3l-0.1-7.2c-0.1-2.4-1.4-3.9-3.7-4.4c-1.8-0.4-3.7-0.4-5.5-0.4
	c-2.6-0.1-5.2,0-7.8,0c0.4-2.7,6.2-4.8,8-2.7C250.1,60.8,253.1,58.7,256.2,59.5L256.2,59.5z M132.8,397.4c-1.5,1.9-3,3.7-4.5,5.6
	c-2.1,2.9-2.2,5.2,0.4,7.6c3.2,2.8,6.6,5.6,10.3,7.6c1.6,0.9,5.2,0.8,6.2-0.3c4.1-4.4,7.5-9.4,11.2-14.2l-5.6-4.2l-7.4,9.8
	c-3.8,5.1-3.8,5-8.7,1c-1.5-1.3-1.7-2.3-0.5-3.8c2.1-2.6,4-5.2,6.1-7.8c1.5-1.9,2.5-4.1,0.8-5.9c-1.6-1.7-4-3.1-6.2-3.6
	c-2.7-0.5-4.6,2.3-3.7,5.1C131.6,395.4,132.3,396.4,132.8,397.4L132.8,397.4z M105.4,364.1c3.2-1.9,4.2-4.2,2.6-7.1
	c-2.1-3.7-4.6-7.2-7.2-10.6c-1.6-2-4-2.8-6.5-1.4c-1.7,0.9-3.2,2.2-5,3.3c2.5,3.7,4.9,7.1,7,10.6c0.5,0.8,0.1,2.1,0.1,3.8
	c-4.4-3.2-7.3-3.4-8.4-0.7c-0.7,1.7-0.5,4.5,0.5,6c1,1.5,3.5,3.1,5.2,3c4.7-0.3,8.9-5.6,8.9-10.6L105.4,364.1L105.4,364.1z
	 M226.5,78.7l-3.8-18.5c-0.7-3.3-2.8-5.2-6.1-4.8c-4.6,0.6-9.3,1.4-13.8,2.8c-4.1,1.3-5.1,4.5-3.4,8.8l6.6-1.3c0.2-4,0.6-4.2,5.8-5
	c2.1-0.3,3.2,0.2,3.7,2.5c1,5.6,2.2,11.1,3.4,16.9L226.5,78.7z M164.9,99.1l-10.1-15.5c-2.1-3.2-4.9-4.1-8.2-2.3
	c-3.7,2-7.4,4.3-10.7,7c-3.6,2.9-3.6,6.3-0.6,10.1l5.9-3.8c-1.4-3.7-0.9-4.3,3.7-6.9c3-1.7,3.6,0.7,4.7,2.3l8.8,13.4
	C158.5,103.3,164.9,99.1,164.9,99.1z M170.3,436.3c2.7-5.3,5.4-10.4,7.8-15.6c1.1-2.3,0.4-4.8-1.8-6.1c-3.8-2.2-7.6-4.3-11.7-5.7
	c-3.4-1.2-5.6,0.4-6.9,4.2c0.4,0.3,0.8,0.6,1.3,0.8l4,2c2.4-2.4,4.4-2.3,7.6,0.2c2.3,1.8,0.3,3.4-0.4,4.9c-2,4.1-4.1,8.1-6.2,12.2
	L170.3,436.3z M215.5,427.4l-2.9,16.2c-0.9,5,1.6,7.8,6.7,7.2c1.5-0.2,3.6-1.6,4-3c0.4-1.3-0.8-3.3-1.6-4.8
	c-0.3-0.6-1.4-0.9-1.9-1.1l2.4-12.9c-0.6-0.3-0.9-0.5-1.2-0.6L215.5,427.4z M114.3,354.1c0.3-0.2,0.5-0.4,0.7-0.5
	c2.7-1.4,3-3.6,1.9-6.1c-1.1-2.6-4.2-4.4-6.3-3.6c-3,1-3.5,3.4-2.9,6.1c1.4,5.6,4.9,9.5,10.3,11.4c2.7,1,5.6,0.7,7.9-1.9l-4-5.1
	C117.9,356.5,117,356.4,114.3,354.1z M369.7,413.1c-0.4-0.7-0.6-1.2-0.9-1.6c-1.6-2.2-3.6-2.2-5.8-1.2c-2.5,1.2-4.1,3.1-3.6,6
	c0.5,2.5,2.5,3.4,4.9,3.3c5.2-0.1,12.4-5.9,12.9-10.9c0.2-2.1-0.6-4.3-1-7.2l-6.8,4.8C371,408.5,372.2,410.6,369.7,413.1z
	 M368.1,392.2l-5.6,4c2.1,3.8,2.5,4.8,0.1,6.6c-2.2-3.3-4.1-3.9-7-2.4c-2.9,1.5-4.1,4.4-3,6.7c1.2,2.4,4.2,3.6,7.4,1.8
	c3.3-1.9,6.5-4.4,9-7.3C371.4,398.8,370.8,395.6,368.1,392.2z M382,369.3c-0.3-0.2-0.7-0.4-0.8-0.6c-1.8-2.5-4-2.3-6.3-0.8
	c-2.5,1.7-3.5,5.2-2.2,7.2c1.6,2.4,4,2.6,6.4,1.4c5-2.5,8.2-6.5,9.2-12.1c0.5-3.1-0.4-5.8-3.3-7.7l-4.4,5.2
	C383.1,364.1,383.9,366.5,382,369.3L382,369.3z"/>
<path class="st3" d="M251.1,411.7c-86.9,0.5-159.9-70.3-160.9-158.9c-1-90.2,72.9-163.3,162.3-162.6c87.3,0.7,160.7,72.3,159.5,163
	C410.9,342.3,337.4,412.3,251.1,411.7L251.1,411.7z M250.9,408.9c87.1-0.1,157.9-70.3,158.1-157.5c0.2-88.8-72.7-159.5-160.3-158.1
	C164,94.6,93.5,163.6,93.2,251C93,337.7,164.3,408.9,250.9,408.9z"/>
<path class="st4" d="M381.6,96.1c5.2-3.4,10.1-2.4,14.9,2.7c5.2,5.6,6.9,13.2,2.7,17l-2.5-2.3l-5.7,1.1c-1.8,2.3-3.5,4.5-5.3,6.7
	c-1.9,2.2-3.9,4.2-5.8,6.3c-3.2,3.5-8.2,2.8-10.1-1.5c-0.3-0.7,0-1.7,0.2-2.5c0.8-2.7,1.7-5.4,2.5-8.2c0.7-2.7-0.5-3.9-3.3-3.7
	c0,0.1,0,0.2,0,0.3c1.9,4.3,1.7,6.5-1,8.1c-2.3,1.4-5.5,0.5-7.9-2.2c-2.4-2.8-2.4-5.2,0.1-8.2c6.4-7.5,7.3-7.6,14.6-1.1
	c2.3,2.1,4.5,4.1,4.4,8c1.1-1.2,2.3-2.5,3.4-3.8c0.3-0.4,0.4-1,0.4-1.5c-0.2-2-6.4-6.1-8.4-6.1c-1,0-2-0.7-2.9-1.4
	c-1.1-0.8-2.1-1.9-3.1-2.9c2.4-3.1,5.4-3.6,8.9-1.2c2.3,1.6,4.4,3.6,6.5,5.5c1.9,1.8,3.5,4,6.6,1.6L381.6,96.1L381.6,96.1z
	 M396.8,108.5c0-5.3-3.7-9.4-8.1-9.2L396.8,108.5z M364.4,112.4c-0.8,1.2-1.8,2.2-1.6,2.7c0.4,0.8,1.4,1.4,2.3,1.8
	c0.2,0.1,1.5-1.3,1.4-1.7C366.2,114.3,365.4,113.7,364.4,112.4z M379.1,117.1l-0.3-0.6l-0.8,0.4c0.1,0.1,0.2,0.4,0.3,0.4
	C378.5,117.3,378.8,117.2,379.1,117.1L379.1,117.1z M248.8,428.6l-7.3-0.6c-0.8-0.1-1.6-0.1-2.4,0.1l-5.9,1.8
	c-0.5-0.7-0.7-0.9-0.7-1.1c-0.7-8.2,0-8.9,8.3-9.4c2.7-0.2,5.3-1.4,8-2.1c0.4-0.1,0.9,0,2.5,0.1l-3.6,4.1c-2.7,0.2-5.4,0.4-8.1,0.5
	c-2.1,0.1-2.8,1-2.2,2.6c2-0.1,3.7,0,5.4-0.3c1.7-0.3,3.3-1.1,4.9-1.7l8.9,2.2l-1.5,24.2c-0.3,3.2-2.9,4.7-6.9,4.6
	c-3-0.1-5.9-0.3-8.9-0.5c-5.2-0.4-7.1-2.7-6.7-8c0.2-1.9,0.4-3.7,0.6-5.6c-0.3-0.2-0.5-0.5-0.8-0.6c-2.7-0.9-4.6-2.6-3.7-5.6
	c0.9-2.9,3.4-3.5,6.1-3.3c3.5,0.3,5.4,2.1,5.4,5c-0.1,3.6-0.3,7.2-0.7,10.8c-0.3,2.2,0.7,3,2.7,3.1c0.1,0,0.2,0,0.3,0
	c5.7,0.4,5.8,0.4,6.2-5.3c0.3-4.9,0.4-9.9,0.6-14.8l0.1-0.8C249.2,428.4,249,428.5,248.8,428.6L248.8,428.6z"/>
<path class="st5" d="M184.3,76.5c-0.1,3-1.5,5-4.5,5.7l1.2,9.1c-9.2,4.7-10,4.4-13.7-4.8l-2.9-7.3c-1.6-4.2-0.9-7.2,3.1-9.2
	c4.6-2.3,9.4-4.2,14.3-5.7c4.1-1.3,6.7,0.3,8.3,4.3l6.7,16.3l-7,3l-4.9-11.5c-0.2-0.2-0.4-0.4-0.6-0.6l-0.4-1.6
	c-1-1.8-0.4-5.1-4-4.4c-8.5,1.7-9.5,3.5-6.4,11.3l0.6,1.6c-0.1-3.3-1.7-6.9,2.5-9c2.5-1.3,4.8-0.9,7,0.8l0.8,1.2
	C184.3,76.1,184.3,76.3,184.3,76.5L184.3,76.5z"/>
<path class="st6" d="M344.2,90.5l3.8,9l9.3-15.2l6.5,4l-10.9,17.9c-0.7,1.1-2.9,2.3-4,2c-2-0.7-4.2-2.1-5.2-3.8
	c-1.3-2.5-1.6-5.6-2.4-8.6c-4.5,5.4-5,5.6-9.3,2.9c-4-2.5-5.1-5-3.6-8.4c1.5-3.3,4-4.2,8.4-3l1.8-2.3c-0.5-0.6-1.4-1.1-1.5-1.7
	c-0.4-1.9-1.4-4.3-0.6-5.7c0.8-1.3,3.5-2.3,5.2-2.2c5.6,0.4,8,5.6,5.1,10.5C347.1,85.8,344.2,90.5,344.2,90.5z M342.2,83.2
	c0.8-1.2,1.9-2.1,1.7-2.5c-0.3-0.9-1.2-1.7-2.1-2c-0.3-0.1-1.8,1.2-1.7,1.7C340.3,81.2,341.2,81.9,342.2,83.2L342.2,83.2z"/>
<path class="st5" d="M123.1,122.6l2.8-7.4c0.2-0.8-0.1-2.2-0.8-2.8c-3-2.8-6.1-5.4-8.9-7.9l5.2-6.3l8.5,7.9c1.7,1.6,2.7,3.7,5.9,3.6
	c2.3,0,3.5,2.4,3.4,4.9c-0.2,2.9-3,5.9-5.9,6.2c-1.3,0.1-2.7-0.3-4.4-0.5c-1,4.6-1.6,9.7-6.8,12.1l-11.2-10.2
	c-0.3,0.1-1.2,0.9-2,0.8c-1.6-0.1-3.7-0.3-4.7-1.3c-1-1-1.4-3.3-1.1-4.7c1.4-5.7,7.5-7.1,11.6-2.9l8,8.2
	C122.7,122.5,122.8,122.5,123.1,122.6z M108.1,120.3c1-1.3,2-2,2.1-2.8c0.1-0.5-1.2-1.9-1.7-1.8c-0.8,0.1-1.8,1-2,1.8
	C106.4,118.1,107.3,119,108.1,120.3z M132.7,117.9c1-1.2,1.9-1.9,2.2-2.7c0.1-0.4-1.1-1.8-1.3-1.7c-0.9,0.3-1.9,0.9-2.4,1.7
	C131,115.5,132,116.6,132.7,117.9z"/>
<path class="st6" d="M385.8,143l12.2-8.4c0,0.1,0.1-0.1,0-0.3c-1.3-3.9-0.7-6.3,1.8-7.5c2.5-1.2,5.6,0,7.5,3c2.1,3.3,1.9,6-0.9,8.1
	c-3.6,2.7-7.3,5.2-11,7.8l8.5,4.8l11.9-8.1l4.4,6.3l-12.8,8.8l0.4,0.2c-1.4,1.7-2.4,4-4.2,5c-2.1,1.1-4.5,0.1-6.1-2
	c-2.1-2.7-2.8-5.5-0.2-8.6C392.4,150.3,387.6,148.9,385.8,143L385.8,143z M405.5,132.6c-1.2-1.1-1.9-2-2.8-2.3
	c-0.4-0.1-1.9,1.1-1.8,1.4c0.3,0.9,1,2,1.8,2.4C403.2,134.4,404.2,133.4,405.5,132.6z M404.1,157.4c-1.2-1-1.9-1.9-2.8-2.2
	c-0.4-0.1-1.8,1.1-1.7,1.3c0.3,0.9,0.9,2,1.7,2.4C401.7,159.1,402.8,158.1,404.1,157.4L404.1,157.4z M268.9,62
	c-3.2-2.1-2.6-4.3-0.7-5.7c1.7-1.2,4.2-2.2,6.3-2.1c4.2,0.2,8.5,1,12.6,1.9c4.1,1,5.5,3.1,5,7.2c-0.5,4.1-1.2,8.2-1.9,12.3
	c-0.6,3.3-2.7,5.2-6,4.9c-5-0.4-10-1.1-14.9-2.2c-3.6-0.8-5-3.2-4.5-6.9C265.2,68,264.6,64.2,268.9,62L268.9,62z M269.5,61.2
	l-0.8,0.2l0.7,0.5c1,0,2-0.1,3,0c3,0.1,5.6,2.2,5.8,4.7c0.3,3.1-1,4.5-4.7,5.4c-0.5,0.1-0.9,0.4-1.4,0.7c1.6,1.9,8,3.6,9.6,2.6
	c0.5-0.4,0.9-1.2,1-1.9c0.5-2.9,1.1-5.8,1.4-8.7c0.1-1.5-0.1-4.1-0.7-4.3c-2.8-0.7-6.7-2-8.3-0.6C273.1,61.5,271.5,61.3,269.5,61.2z
	 M272.4,69.7c0.8-1.3,1.7-2.1,1.6-2.7c-0.1-0.7-1.2-1.5-1.9-1.5c-0.6,0-1.9,1.2-1.8,1.5C270.6,67.8,271.4,68.5,272.4,69.7
	L272.4,69.7z"/>
<path class="st5" d="M91.1,154.5l2.4-4l-0.6-0.5l-3.2,3.5l-3.7-2.6c-3.4-2.4-4.4-5.2-2.4-8.8c2.2-3.9,4.8-7.6,7.6-11.1
	c2.3-2.8,5-2.8,8.2-0.6l-2.5,4.1c0.2,0.2,0.5,0.5,0.6,0.4c4.9-2.3,11.3-0.6,13.9,4.4c0.9,1.6,0.8,4.5-0.1,6.1
	c-2.1,3.9-4.8,7.6-7.7,11c-2.5,3-5.2,3-8.5,0.8C93.8,156.5,92.6,155.5,91.1,154.5L91.1,154.5z M96.7,136.1l0.4-0.9l-1,0.4l-0.4,0.9
	c-2.6,0.3-6,3.1-6.5,5.7c-0.1,0.8,0.6,1.7,1.2,3.2l5.8-8.4L96.7,136.1z M95.7,148.3c1.2,0.8,2.2,1.4,3.1,2.2
	c1.5,1.3,2.7,1.1,3.8-0.5c0.9-1.3,2-2.4,2.6-3.8c0.3-0.8,0.1-2.2-0.4-2.7c-1-1.1-2.4-1.9-3.7-2.7c-0.5-0.3-1.7-0.2-2,0.1
	c-2.2,2.8-4.2,5.8-6.3,8.7l0.7,0.5L95.7,148.3z"/>
<path class="st6" d="M306.9,69.5l-4.7-2.5c1.3-4.1,4.2-5.9,8.6-4.7c4.2,1.1,8.3,2.7,12.3,4.4c3.8,1.7,4.8,4.4,3.5,8.4
	c-1.2,3.6-2.5,7.2-3.9,10.8c-1.5,3.9-4,5.3-8.1,4.1c-4.3-1.2-8.5-2.7-12.6-4.5c-4.1-1.8-5.1-4.5-3.6-8.9c0.3-0.9,0.7-1.8,1-2.8
	C301.2,69.6,302.2,68.9,306.9,69.5c2.9,0.8,5.4,2.1,5.5,5.5c0.1,4.8-3.9,4.6-7.1,5.1c1.1,2,7,4.9,8.7,4.3c0.7-0.2,1.4-1.1,1.6-1.8
	c1.3-3.2,2.5-6.5,3.5-9.9c0.3-0.8,0-2.5-0.5-2.8c-2.1-1.1-4.4-2.1-6.7-2.5c-0.9-0.2-2,1.2-3.1,1.8C308.3,69.6,307.6,69.4,306.9,69.5
	L306.9,69.5z M309.3,74.8c-1.4-1-2.2-1.9-3.1-2c-0.5,0-1.7,1.2-1.6,1.8c0.1,0.7,1.1,1.6,1.9,1.7C307.1,76.5,307.9,75.6,309.3,74.8
	L309.3,74.8z"/>
<path class="st4" d="M198.4,436.3l0.5-2c2.4-7.3,2.8-5.9-4.9-8.6c-0.6-0.2-1.6-0.4-1.9-0.1c-3,2.9-5.1-0.7-7.9-0.4
	c1.1-3.8,3.7-5,6.5-4.4c4.7,1,9.3,2.5,13.7,4.3c2.5,1,3.6,3.4,2.7,6.3l-3.9,12.2c-0.7,2-2,3.3-4.2,2.8s-5-0.2-5.2-3.7
	c-0.1-2.4-0.6-4.8-0.9-7.2c-0.3-2.4-2-2.7-3.7-2.7l-1.1,1.2c0.8,0.4,1.8,0.7,2.5,1.4c1.9,1.9,1.7,4.9-0.4,6.4
	c-2.5,1.8-5.1,1-7.4-0.4c-2.2-1.3-2.9-3.3-2-5.9c2.7-8.6,3.4-9,12.1-6.1C197.4,430.7,197.6,431,198.4,436.3L198.4,436.3z"/>
<path class="st5" d="M302,434.2c-0.9-0.1-1.9,0-2.8-0.2c-2.7-0.6-4.2-3.5-3-5.9c1.4-2.7,3.9-3.3,6.6-3.3c2.6,0,4,1.4,4.6,3.8
	l2.7,9.8c0.5,2,1.5,2.6,3.5,2.1c6-1.6,6-1.5,4.3-7.4l-5.5-18.8l6.6-2l6.9,24.1c0.6,2.4-0.7,4.5-3,5.3c-4.3,1.5-8.7,2.9-13.2,3.9
	c-3.1,0.7-5.3-1-6-4.2L302,434.2L302,434.2z"/>
<path class="st7" d="M433,260.7l-5.4-8.7l-5.1-1.9c0.9-0.1,1.8,0,2.6-0.2c3.6-0.8,5.8-4.2,4-6.6c-0.6-0.9-2.5-0.9-3.8-1.2l1-1.3
	l2.5-0.5c-2.7-1.6-4.8-2.3-7.1-0.7c1.2-0.9,2.2-2.4,3.5-2.7c2.6-0.6,6.1-3.5,6.7-5.9c0.2-1,1-1.9,1.5-2.8c0,0,0.2,0,0.3,0
	c0.1,0.2,0.1,0.4,0.2,0.6v3.5l1-0.3l1.8,2.8c1.1,2.9,2.7,2.1,4.5,0.7c2.9-0.7,4.4-2.5,4.6-5.5l0.8,2.8l4.1,4l5.1,2.4
	c-3.5-0.5-4.9,2.6-7.2,4.2c-0.5,0.3-0.5,2.7,0.2,3.4c1.6,1.7,3.8,3,5.7,4.5l-4.2,1c0.2,3.2-5,3.1-4.7,6.8l-4.1-6.2
	c-1.5-1.9-4-1.2-4.9,1c-0.2,0.5-0.3,1.4-0.5,1.4C432.5,255.8,433.5,258.6,433,260.7L433,260.7z M439,241.1c-1.1,1.9-2.1,2.9-2,3.9
	c0.1,0.8,1.6,2.2,2.2,2.1c1-0.3,2.2-1.5,2.3-2.4C441.6,243.8,440.3,242.8,439,241.1z M434.6,251.9c-1.5-1.1-2.3-2.2-3.2-2.2
	c-0.7,0-1.4,1.4-2.1,2.1c0.8,0.7,1.5,1.8,2.4,2C432.3,253.9,433.2,252.8,434.6,251.9L434.6,251.9z M446.2,249
	c-0.8,1.7-1.7,2.6-1.6,3.5c0.1,0.7,1.5,2,1.9,1.9c0.9-0.3,2.1-1.3,2.2-2.1C448.7,251.5,447.4,250.6,446.2,249z M449.7,237.7
	c-1.5-0.9-2.4-1.9-3.3-1.9c-0.6,0-1.3,1.3-2,2c0.8,0.7,1.5,1.8,2.4,2C447.5,239.9,448.3,238.7,449.7,237.7z M435.2,237.1
	c-1.5-0.8-2.3-1.6-2.9-1.5c-0.9,0.2-1.5,1.1-2.3,1.6c0.6,0.7,1.3,2,1.8,2C432.7,239.2,433.6,238.2,435.2,237.1z"/>
<path class="st4" d="M405,350.1l3.9-5.7c2.9,2,5.5,3.9,8.2,5.7c1.8,1.1,3,2.9,5.9,2.3c2.2-0.5,3.6,1.7,3.7,4.1
	c0.1,2.8-2.2,5.8-4.8,6.3c-1,0.2-2,0-3.2,0c0,4.4,0.3,8.9-4.1,12.1l-10.7-7.4c0.1,0-0.2-0.1-0.3,0c-2.2,2-4.6,3-6.9,0.6
	c-2.3-2.3-1.2-4.9,0.4-7.2c1.9-2.6,4.5-3.3,7.1-1.7c3.2,2.1,6.3,4.3,9.9,6.7c0.5-2.9,1-5.4,1.2-7.9c0-0.6-0.8-1.4-1.5-1.9
	C411,354.2,408.1,352.3,405,350.1L405,350.1z M271,452.3l-0.8-5.9l-0.8-6.7c0,0-0.1-0.2-0.2-0.2c-3-0.2-5.2-1.3-5.1-4.7
	c0-2.5,2.2-4.3,5.5-4.5c3.4-0.3,5.5,1.1,6,4.2l1.6,11.6l6.9-4c0.5-0.3,0.4-1.6,0.4-2.3c-0.4-3.5-0.9-6.9-1.4-10.8l6.8-1l1.7,12.2
	c0.1,0.8,0.3,1.7,0.8,2.2c2.4,2.5,2.8,4.8,0.9,6.8c-2,2-6.4,2.3-8.5,0.4c-0.6-0.5-1-1.3-1.7-2.1C279.5,450.2,276.5,453.9,271,452.3
	L271,452.3z M111,394.8l-7.8-6.9c2.4-2.5,3.4-4.2,2.1-7.1c-1.2-2.6,1.5-4.4,5.9-4.3l-2.5-3.4c4.5-5.5,7.5-5.6,12.3-0.5
	c2.1,2.2,4.2,4.4,6.2,6.8c2.4,2.8,2.5,5.2,0.2,8l-2.2-1.8l-0.8-0.9l-0.4,0.2l0.6,1.2c-0.7,1.9-1.1,3.9-2.1,5.5
	c-0.9,1.4-2.6,2.4-3.8,3.6c-2.1,2.1-4.3,2.5-6.7,0.4L111,394.8L111,394.8z M114.4,380.1c-0.4,1.5-0.5,3-1.1,4.2
	c-0.7,1.3-1.8,2.4-2.9,3.7l2.2,2.8C120.9,384.6,120.2,385.2,114.4,380.1L114.4,380.1z M115.6,375.6l6.9,7.4
	C123.3,379.3,119.1,374.7,115.6,375.6z"/>
<path class="st6" d="M256.2,59.5c-3.1-0.8-6.1,1.3-8.9-1.9c-1.9-2.1-7.6,0-8,2.7l7.8,0c1.8,0,3.7,0.1,5.5,0.4c2.3,0.5,3.6,2,3.7,4.4
	l0.1,7.2c0,3.2-2,4.8-4.8,5.3c-2.9,0.5-5.8,0.3-7.6-2.6c-1.9-3.1,0.1-6.1,4.7-7.5c0.5-2.4-0.7-3-2.9-3c-4.6,0.1-9.2,0-13.7,0
	c-1.4-9.9,0.2-11.9,10-12.1c3-0.1,5.9-0.3,8.9,0C254.9,53,256.2,54.7,256.2,59.5z M249.7,70.3c-0.9,1-1.9,1.7-1.9,2.3
	c0,0.6,1.1,1.9,1.5,1.8c0.8-0.1,1.8-0.9,2.2-1.7C251.7,72.4,250.6,71.5,249.7,70.3L249.7,70.3z"/>
<path class="st5" d="M132.8,397.4c-0.5-1-1.2-2-1.6-3.1c-0.8-2.8,1-5.6,3.7-5.1c2.2,0.4,4.6,1.9,6.2,3.6c1.8,1.8,0.8,4-0.8,5.9
	l-6.1,7.8c-1.2,1.5-1.1,2.6,0.5,3.8c4.9,4,4.8,4.1,8.7-1l7.4-9.8l5.6,4.2c-3.7,4.9-7.1,9.8-11.2,14.2c-1.1,1.1-4.6,1.2-6.2,0.3
	c-3.7-2-7.1-4.8-10.3-7.6c-2.6-2.3-2.6-4.7-0.4-7.6C129.8,401.1,131.3,399.2,132.8,397.4L132.8,397.4z M380.3,392.4
	c-1.3,1.5-2.4,1.3-3.6-0.2c-2-2.5-2.3-5.3,0-8.1c2.5-3,5.4-5.8,8.4-8.3c3.1-2.5,5.9-2.1,8.8,0.7l11.2,10.8l-5.1,5.3l-8.9-8.9
	c-4.5-4.5-3.5-4.6-8.2,0.1c-0.8,0.8-1.3,2-2,2.9l0.9,0.6l2.9-2.3l2.4,2.2c-3.8,6.8,4.3,7.7,5.6,12.2l-4.7,4.3
	C385.2,400.2,380.2,398.1,380.3,392.4l0.4,0.1c0-0.1,0.1-0.2,0.1-0.3C380.6,392.3,380.5,392.3,380.3,392.4L380.3,392.4z"/>
<path class="st4" d="M105.4,364.1l-2.7-3.6c0,5-4.3,10.3-8.9,10.6c-1.8,0.1-4.2-1.4-5.2-3c-1-1.5-1.2-4.3-0.5-6
	c1.1-2.7,4-2.4,8.4,0.7c0-1.7,0.4-3-0.1-3.8c-2.2-3.6-4.6-6.9-7-10.6c1.7-1.2,3.2-2.4,5-3.3c2.5-1.4,4.9-0.6,6.5,1.4
	c2.6,3.4,5.1,6.9,7.2,10.6C109.6,359.9,108.6,362.2,105.4,364.1L105.4,364.1z M101.8,359.5l0.3,0.7c0.1-0.1,0.1-0.1,0.2-0.2
	L101.8,359.5c1.7-3.4-0.6-5.6-2.5-7.9c-0.4-0.4-1.7-0.1-3.4-0.1L101.8,359.5L101.8,359.5z"/>
<path class="st5" d="M344.7,415.5c4.4,0,9.8,6.2,9,10.5c-0.6,3.4-5.6,6.1-8.8,4.7c-2.6-1.2-3.1-4.3-1.1-6.9c0.5-0.7,0.5-1.8,0.7-2.6
	c-0.9,0-1.9-0.2-2.6,0.2c-3.8,1.8-7.4,3.7-11.4,5.7c-0.8-1.4-1.5-2.7-2.2-4.1c-1.6-3.3-1.1-6,2.1-7.9c3.3-2,6.9-3.8,10.5-5.4
	c3.1-1.4,5.5-0.3,7.2,3l-3.5,2.3l-0.7,0.4L344.7,415.5z M334.6,420.6l8.8-4.6c-3.6-2.1-6.2-0.1-8.7,1.7
	C334.3,418,334.6,419.3,334.6,420.6z"/>
<path class="st6" d="M226.5,78.7l-7.6,1.4l-3.4-16.9c-0.4-2.3-1.5-2.8-3.7-2.5c-5.1,0.7-5.6,1-5.8,5l-6.6,1.3
	c-1.7-4.3-0.7-7.5,3.4-8.8c4.4-1.4,9.1-2.2,13.8-2.8c3.2-0.4,5.4,1.5,6.1,4.8L226.5,78.7z M164.9,99.1l-6.4,4.2l-8.8-13.4
	c-1.1-1.6-1.7-4-4.7-2.3c-4.6,2.7-5.1,3.2-3.7,6.9l-5.9,3.8c-3-3.8-3-7.2,0.6-10.1c3.3-2.7,7-5,10.7-7c3.4-1.8,6.1-0.9,8.2,2.3
	L164.9,99.1L164.9,99.1z"/>
<path class="st5" d="M170.3,436.3l-6.2-3.2l6.2-12.2c0.7-1.5,2.7-3,0.4-4.9c-3.2-2.5-5.2-2.6-7.6-0.2l-4-2c-0.5-0.2-0.9-0.6-1.3-0.8
	c1.3-3.8,3.4-5.4,6.9-4.2c4.1,1.5,7.9,3.6,11.7,5.7c2.2,1.3,2.9,3.8,1.8,6.1C175.8,425.9,173,431,170.3,436.3z"/>
<path class="st8" d="M111,394.8l1,1c1.1,4.8,0.2,7-4.2,9.7c-2.3,1.4-5.6-0.5-7.4-3.6c-1.3-2.4-2.8-4.6-5.4-6.2
	c-1.8-1.1-3.1-3.3-3.9-5.3c-0.3-0.8,1.2-2.7,2.3-3.5c0.7-0.5,2.5-0.6,3.3,0c2.7,2,5.2,4.3,7.9,6.7l-3.9,2.2l3.3,4.7
	c0.2,0.1,0.5,0.2,0.8,0.3l-0.2-1C104.2,394.8,105.4,393.8,111,394.8L111,394.8z"/>
<path class="st4" d="M215.5,427.4l5.5,1c0.3,0.1,0.6,0.3,1.2,0.6l-2.4,12.9c0.5,0.2,1.5,0.5,1.9,1.1c0.8,1.5,2,3.5,1.6,4.8
	c-0.4,1.3-2.5,2.8-4,3c-5.1,0.7-7.6-2.2-6.7-7.2L215.5,427.4z"/>
<path class="st3" d="M114.3,354.1c2.7,2.4,3.6,2.4,7.5,0.3l4,5.1c-2.3,2.6-5.2,2.9-7.9,1.9c-5.4-1.9-8.9-5.9-10.3-11.4
	c-0.7-2.7-0.1-5.1,2.9-6.1c2.2-0.7,5.2,1,6.3,3.6c1.1,2.5,0.8,4.7-1.9,6.1C114.8,353.7,114.5,353.9,114.3,354.1z M369.7,413.1
	c2.6-2.5,1.4-4.5-0.3-6.8l6.8-4.8c0.4,2.9,1.2,5.1,1,7.2c-0.5,5-7.6,10.9-12.9,10.9c-2.5,0-4.5-0.8-4.9-3.3c-0.5-2.9,1.1-4.8,3.6-6
	c2.2-1.1,4.2-1,5.8,1.2C369,411.9,369.3,412.4,369.7,413.1z"/>
<path class="st4" d="M368.1,392.2c2.7,3.4,3.3,6.6,0.9,9.5c-2.5,2.9-5.6,5.4-9,7.3c-3.3,1.8-6.2,0.7-7.4-1.8c-1.1-2.4,0.2-5.2,3-6.7
	c2.9-1.5,4.7-0.9,7,2.4c2.4-1.8,2-2.8-0.1-6.6L368.1,392.2L368.1,392.2z"/>
<path class="st3" d="M382,369.3c1.9-2.9,1.1-5.2-1.5-7.3l4.4-5.2c2.9,1.9,3.9,4.6,3.3,7.7c-1,5.5-4.2,9.6-9.2,12.1
	c-2.4,1.2-4.8,1-6.4-1.4c-1.4-2-0.3-5.5,2.2-7.2c2.3-1.6,4.5-1.7,6.3,0.8C381.3,369,381.6,369.1,382,369.3L382,369.3z"/>
<path class="st9" d="M79.3,251.3l-5.2,2.1c-0.1-3.2-2-3.7-4.7-3.4l0-1.4c1.8-5.2,1-7.8-3.3-9.8l0,0l-0.6-0.6l-1.4-1.3
	c3-1.6,6.3-3.1,6-7.4l1.5,3.5l4.1,4.2l4.2,1.7c-3.7-0.3-4.5,3.9-7.4,5c-0.3,0.1-0.2,2.3,0.3,3.2C74.3,249.4,76.3,251.2,79.3,251.3
	L79.3,251.3z M74.5,237.9c-1.5-1.1-2.4-2.2-3.1-2.1c-0.9,0-1.8,1-2.6,1.6c0.9,0.9,1.7,1.9,2.8,2.5C71.9,240.1,72.9,239,74.5,237.9
	L74.5,237.9z"/>
<path class="st10" d="M433,260.7c0.4-2-0.5-4.9,3-5.3c0.2,0,0.3-0.9,0.5-1.4c0.9-2.2,3.4-2.9,4.9-1c1.6,1.9,2.8,4.1,4.1,6.2l-7.6,6
	l0.7,1.1l-4.6-5.4L433,260.7L433,260.7L433,260.7z M436.7,257.8c-0.6,2.8,0.4,4.2,2.4,4c1-0.1,2.7-2.1,2.5-2.9
	C440.8,255.6,438.4,258.8,436.7,257.8L436.7,257.8z M70.2,229.5c0.3,4.3-3,5.8-6,7.4l-2-0.1l-0.8,0l-0.5-0.6v-3.5l-2.5,0.8l-0.4-4.8
	l5.9-6.3l3.6,5.8c-0.7-0.2-1.4-0.6-2.1-0.7c-1.1-0.1-2.5-0.3-3.1,0.3c-0.8,0.7-1,2.1-1.5,3.2l6.8,0.7v-3.6L70.2,229.5L70.2,229.5z"
	/>
<path class="st7" d="M69.4,248.6l0,1.4v4.1l4.5-0.3l-2.7,2.3l-1.9,3.7c0.4-3.3-2.2-5-4-7.1c-2.6-1.2-4-0.4-3.9,2.6
	c-1,0.6-2.2,1-3.1,1.7c-0.7,0.6-1,1.5-1.6,2.3l-2.6-4.7l0.1-1l3.6-0.7l-1-3.8l0-2.6l2.6,1.5l0,0l0.7,0.7c0.8,0.7,1.7,2,2.4,1.9
	C64.9,250.2,67.1,249.3,69.4,248.6L69.4,248.6z"/>
<path class="st10" d="M454.3,251.4c-1.9-1.5-4-2.8-5.7-4.5c-0.6-0.7-0.7-3-0.2-3.4c2.3-1.6,3.8-4.7,7.2-4.2l0,0.1l0.4,0.8l2.3,2.1
	c2.8,2.8,2.3,4.3-1.5,5.7c0.2-1.2,0.7-2.3,0.7-3.5c0-2.6-2-3.4-3.6-2.5l-1.2,6.6h3.3L454.3,251.4L454.3,251.4z M79.3,251.3
	c-3-0.1-5-1.9-6.3-4.3c-0.5-0.9-0.6-3-0.3-3.2c2.9-1.1,3.6-5.3,7.4-5l6.5,6.1l-3.8,2.6c-0.2-5.7-1-6.6-5.1-5.5
	c-0.3,1.6,3.1,3.4-0.3,4.7c0-0.3,0.1-0.7-0.1-1c-0.6-0.8-1.3-1.6-2-2.3l-1.8,1.6l2.6,1.7c0.3,0.2,0.9,0,1.3,0
	c-0.7,1.3-0.5,2.1,1.2,2c1-0.1,1.9-0.4,2.8-0.6L79.3,251.3L79.3,251.3z M49.6,251.3l-6-4.6c-0.9-0.7-1.8-1.6-2.8-2.5l6.2-5.4l6,0.9
	l-1.9,2.9l-0.7,4.1l-2.3-2.2l1.1-1.6l1.5-2.1c-1.6,0.1-2.8-0.2-3.3,0.3c-1,0.9-2.1,2.2-2.1,3.3c0,1.1,1.3,2.4,2.4,3.1
	c0.5,0.3,1.8-0.5,2.7-0.8l3.1,0.5L49.6,251.3L49.6,251.3z M436.7,234.8l-1.8-2.8l-1,0.3v-3.5l5.3-6.6l3.2,5.4
	c-0.9-0.2-1.7-0.5-2.6-0.6c-2.4-0.2-4,1.8-3.3,4.5c2.4-2.6,4-0.3,5.7,1.1l1-0.4l-0.8-4.6l3.4,2.4c-0.2,2.9-1.8,4.8-4.6,5.5l-1.8-3.1
	L436.7,234.8L436.7,234.8z"/>
<path class="st11" d="M61.5,255.3c-0.1-3,1.2-3.8,3.9-2.6l2.1,7.9l-0.6,1.3l-6.8-0.1l-0.5-0.9l0.9-3.6l3.8,0.4l0.1-0.8L61.5,255.3
	L61.5,255.3z"/>
<path class="st9" d="M49.6,251.3l3.8-4l1.3-3.7l-0.5-1.4l1.5-2.2l3.6-2.9l-1.1,5.5l-1.2,4l0,2.6c-3.2,0.1-4,1.7-2.6,4.5l-0.1,1
	c-0.6-0.4-1.9-0.7-1.8-1.1C52.5,251.3,51.1,251.3,49.6,251.3L49.6,251.3z"/>
<path class="st10" d="M425.2,242.1c1.3,0.4,3.2,0.4,3.8,1.2c1.8,2.4-0.4,5.8-4,6.6c-0.8,0.2-1.7,0.1-2.6,0.2l-1.2-2.1l2.9-0.1
	L425.2,242.1L425.2,242.1z"/>
<path class="st11" d="M77.3,246.7c3.4-1.4,0-3.2,0.3-4.7c4.1-1,4.9-0.2,5.1,5.5l-1.3,0.6c-0.9,0.2-1.9,0.5-2.8,0.6
	C76.8,248.8,76.7,248,77.3,246.7L77.3,246.7z M425.2,242.1l-1.1,5.8l-2.9,0.1c-1.2-2.4-1.3-4.8,0-7.3c0.1-0.1,0.2-0.1,0.4-0.1
	l4.5,0.2L425.2,242.1L425.2,242.1z M456,248.6h-3.3l1.2-6.6c1.7-0.9,3.6-0.1,3.6,2.5c0,1.1-0.4,2.3-0.7,3.5L456,248.6L456,248.6z"/>
<path class="st7" d="M55.8,240l-1.5,2.2l-0.8,0.2l-2.4,0.2l1.9-2.9l-6-0.9l1.2-1.3l4.1-0.4l3.3-2.9l0,1.4
	C54.3,237.1,53.8,238.6,55.8,240z"/>
<path class="st9" d="M55.6,235.5l0-1.4l2.5-5.4l0.4,4.8l2.5-0.8v3.5l-1.7,0.7L55.6,235.5z"/>
<path class="st10" d="M74,253.9l-4.5,0.3V250c2.6-0.4,4.6,0.2,4.7,3.4C74.1,253.6,74,253.7,74,253.9z M61.5,255.3l2.9,1.7l-0.1,0.8
	l-3.8-0.4l-0.9,3.6l-2.8-1.7c0.5-0.8,0.9-1.8,1.6-2.3C59.3,256.3,60.5,255.8,61.5,255.3L61.5,255.3z"/>
<path class="st12" d="M247.7,422.7c-1.6,0.6-3.2,1.4-5,1.7c-1.7,0.3-3.4,0.2-5.4,0.3c-0.6-1.6,0.1-2.5,2.2-2.6l8.1-0.5V422.7
	L247.7,422.7z"/>
<path class="st10" d="M421.3,240.8c-1.3,2.4-1.3,4.8,0,7.3l-5.8-4L421.3,240.8z M60.2,261.9l6.8,0.1l-3.6,5L60.2,261.9z M67.5,260.7
	l-2.1-7.9c1.8,2.1,4.4,3.8,4,7.1L67.5,260.7z M426.2,240.8l-4.5-0.2l-0.1-1c2.3-1.6,4.4-0.9,7.1,0.7L426.2,240.8z"/>
<path class="st9" d="M52.2,237l-4.1,0.4L52.2,237z"/>
<path class="st7" d="M433.1,260.7l0.9,0.2L433.1,260.7z"/>
<path class="st12" d="M184.3,76.5l0-0.7l-0.1,0.1l0.6,0.6h-0.2C184.6,76.5,184.3,76.5,184.3,76.5z M344.7,415.5l-0.7-0.2l0.7-0.4
	V415.5z"/>
<path class="st7" d="M456.1,240.1l-0.4-0.8L456.1,240.1z"/>
<path class="st13" d="M250.9,408.9C164.3,408.9,93,337.7,93.2,251C93.5,163.6,164,94.5,248.8,93.3c87.6-1.3,160.5,69.3,160.3,158.1
	C408.9,338.6,338.1,408.8,250.9,408.9L250.9,408.9z M249.6,173.3l0-72.5c0-2.8-0.5-4.2-3.8-4.1c-12.9,0.6-25.6,2.4-38,6
	C114.2,130,69,235,113.5,321.9c2.3,4.5,2.3,4.5,6.9,1.9l125.9-72.6c2.4-1.4,3.4-2.9,3.3-5.7L249.6,173.3L249.6,173.3z M251.6,173.1
	l-0.1,72.6c0,2.8,1,4.3,3.4,5.7l126.9,72.9c3.5,2,3.9,2,5.8-1.6c15.1-29,20.8-59.8,16.3-92.2c-4.8-35.5-20.3-65.8-46.3-90.6
	c-28.4-27.2-62.4-41.4-101.7-43c-4-0.2-4.3,0.1-4.3,4.1L251.6,173.1L251.6,173.1z M249.8,405.6l18.3-1.2c2.2-0.2,4.4-0.4,6.5-0.8
	c45.8-7.9,81.4-31.4,106.8-70.3c2.6-4,2.5-4.1-1.5-6.5L254,253.6c-2.5-1.5-4.4-1.5-6.9,0l-126.2,72.6c-3.8,2.2-3.9,2.2-1.4,6
	C150.3,379.6,194.2,403.6,249.8,405.6L249.8,405.6z"/>
<path class="st12" d="M396.8,108.5l-8.1-9.2C393.1,99.1,396.8,103.2,396.8,108.5z M364.4,112.4c1,1.2,1.8,1.9,2,2.8
	c0.1,0.4-1.2,1.8-1.4,1.7c-0.9-0.4-1.9-1-2.3-1.8C362.6,114.7,363.6,113.7,364.4,112.4z"/>
<path class="st2" d="M379.1,117.1c-0.3,0.1-0.5,0.2-0.8,0.3c-0.1,0-0.2-0.3-0.3-0.4l0.8-0.4L379.1,117.1L379.1,117.1z M248.8,428.6
	l0.6-0.3l-0.1,0.8L248.8,428.6L248.8,428.6z"/>
<g>
	<path class="st12" d="M183.5,74.6c-2.2-1.7-4.5-2.1-7-0.8c-4.1,2.1-2.6,5.7-2.5,9l-0.6-1.6c-3.1-7.8-2.1-9.6,6.4-11.3
		c3.6-0.7,3.1,2.6,4,4.4C183.8,74.4,183.7,74.5,183.5,74.6z"/>
	<path class="st12" d="M183.9,74.3l0.4,1.6c0,0,0.1-0.1,0.1,0l-0.8-1.2C183.5,74.6,183.9,74.3,183.9,74.3z M342.2,83.2
		c-1-1.3-1.9-2-2.1-2.9c-0.1-0.5,1.4-1.8,1.7-1.7c0.9,0.3,1.8,1.2,2.1,2C344.1,81.2,343.1,82.1,342.2,83.2L342.2,83.2z M108.1,120.3
		c-0.8-1.3-1.7-2.2-1.5-2.8c0.2-0.8,1.2-1.7,2-1.8c0.5-0.1,1.8,1.2,1.7,1.8C110.1,118.3,109.1,119,108.1,120.3z M132.7,117.9
		c-0.7-1.3-1.7-2.3-1.5-2.7c0.4-0.8,1.5-1.4,2.4-1.7c0.2-0.1,1.4,1.3,1.3,1.7C134.6,116,133.8,116.7,132.7,117.9L132.7,117.9z
		 M405.5,132.6c-1.3,0.8-2.3,1.7-2.8,1.5c-0.8-0.4-1.5-1.4-1.8-2.4c-0.1-0.3,1.3-1.5,1.8-1.4C403.6,130.7,404.3,131.6,405.5,132.6z
		 M404.1,157.4c-1.3,0.7-2.3,1.7-2.8,1.5c-0.8-0.4-1.4-1.5-1.7-2.4c-0.1-0.3,1.3-1.5,1.7-1.3C402.2,155.5,402.9,156.4,404.1,157.4
		L404.1,157.4z M269.5,61.2c2,0,3.6,0.2,5.6-1.5c1.6-1.3,5.5,0,8.3,0.6c0.6,0.1,0.8,2.8,0.7,4.3c-0.3,2.9-0.8,5.8-1.4,8.7
		c-0.1,0.7-0.5,1.5-1,1.9c-1.6,1.1-8-0.7-9.6-2.6c0.5-0.2,0.9-0.6,1.4-0.7c3.8-0.9,5-2.3,4.7-5.4c-0.3-2.5-2.8-4.6-5.8-4.7
		c-1,0-2,0-3,0C269.5,61.7,269.5,61.5,269.5,61.2L269.5,61.2z M272.4,69.7c-1-1.2-1.9-1.9-2.1-2.7c-0.1-0.4,1.2-1.5,1.8-1.5
		c0.7,0,1.8,0.9,1.9,1.5C274.1,67.6,273.2,68.4,272.4,69.7L272.4,69.7z"/>
</g>
<g>
	<path class="st2" d="M269.5,61.2l0,0.7l-0.7-0.5L269.5,61.2L269.5,61.2z M95.7,148.3l-2.3,1.9l-0.7-0.5c2.1-2.9,4.1-5.9,6.3-8.7
		c0.3-0.4,1.5-0.4,2-0.1c1.3,0.7,2.7,1.6,3.7,2.7c0.5,0.6,0.7,2,0.4,2.7c-0.6,1.4-1.7,2.5-2.6,3.8c-1.1,1.6-2.3,1.8-3.8,0.5
		C97.9,149.8,96.9,149.1,95.7,148.3z M96.2,136.9l-5.8,8.4c-0.6-1.5-1.3-2.4-1.2-3.2c0.4-2.6,3.9-5.5,6.5-5.7
		C95.7,136.4,96.2,136.9,96.2,136.9z M96.1,135.6l1-0.4l-0.4,0.9L96.1,135.6z"/>
	<path class="st2" d="M95.7,136.4l0.4-0.9l0.6,0.5l-0.5,0.8L95.7,136.4L95.7,136.4z"/>
</g>
<path class="st12" d="M306.9,69.5c0.6,0,1.4,0.1,1.9-0.2c1.1-0.5,2.2-1.9,3.1-1.8c2.3,0.5,4.6,1.4,6.7,2.5c0.5,0.3,0.8,2,0.5,2.8
	c-1,3.3-2.2,6.6-3.5,9.9c-0.3,0.7-1,1.5-1.6,1.8c-1.7,0.6-7.6-2.4-8.7-4.3c3.3-0.5,7.2-0.3,7.1-5.1
	C312.3,71.5,309.8,70.3,306.9,69.5L306.9,69.5L306.9,69.5z M309.3,74.8c-1.4,0.8-2.2,1.7-2.8,1.6c-0.7-0.1-1.8-1-1.9-1.7
	c-0.1-0.6,1.1-1.9,1.6-1.8C307.1,72.9,307.9,73.8,309.3,74.8z"/>
<path class="st11" d="M439,241.1c1.3,1.8,2.6,2.8,2.5,3.6c-0.1,0.9-1.4,2.1-2.3,2.4c-0.6,0.1-2.1-1.3-2.2-2.1
	C436.9,244,438,243,439,241.1z M434.6,251.9c-1.4,1-2.3,2-3,1.9c-0.9-0.2-1.6-1.3-2.4-2c0.7-0.8,1.4-2.1,2.1-2.1
	C432.3,249.6,433.2,250.8,434.6,251.9L434.6,251.9z M446.2,249c1.3,1.6,2.5,2.4,2.5,3.2c-0.1,0.8-1.3,1.8-2.2,2.1
	c-0.4,0.1-1.8-1.1-1.9-1.9C444.4,251.7,445.3,250.7,446.2,249L446.2,249z M449.7,237.7c-1.4,1-2.2,2.2-2.9,2c-0.9-0.2-1.6-1.3-2.4-2
	c0.7-0.7,1.3-2,2-2C447.3,235.8,448.2,236.8,449.7,237.7z M436.7,234.8l2.7-2.4l1.8,3.1C439.4,236.9,437.7,237.7,436.7,234.8
	L436.7,234.8z M435.2,237.1c-1.6,1.1-2.5,2-3.4,2.1c-0.5,0.1-1.2-1.3-1.8-2c0.8-0.6,1.5-1.5,2.3-1.6
	C432.9,235.5,433.7,236.3,435.2,237.1L435.2,237.1z"/>
<path class="st12" d="M114.4,380.1c5.8,5.1,6.5,4.5-1.8,10.8l-2.2-2.8c1-1.3,2.2-2.4,2.9-3.7C113.9,383.1,114,381.6,114.4,380.1
	L114.4,380.1z M115.6,375.6c3.5-0.9,7.7,3.7,6.9,7.4L115.6,375.6z"/>
<path class="st2" d="M124.6,386.2l-0.6-1.2l0.4-0.2l0.8,0.9L124.6,386.2z"/>
<path class="st12" d="M249.7,70.3c0.8,1.1,1.9,2.1,1.8,2.4c-0.4,0.8-1.3,1.5-2.2,1.7c-0.4,0.1-1.5-1.2-1.5-1.8
	C247.8,72,248.8,71.4,249.7,70.3L249.7,70.3z"/>
<path class="st2" d="M380.3,392.4l0.5-0.2l-0.1,0.3L380.3,392.4C380.3,392.3,380.3,392.4,380.3,392.4z"/>
<path class="st12" d="M101.8,359.5l-5.9-7.9c1.7,0,3-0.4,3.4,0.1C101.2,353.8,103.5,356.1,101.8,359.5
	C101.7,359.5,101.8,359.5,101.8,359.5z"/>
<path class="st2" d="M101.7,359.5l0.6,0.4l-0.2,0.2L101.7,359.5C101.8,359.5,101.7,359.5,101.7,359.5L101.7,359.5z"/>
<path class="st12" d="M334.6,420.6c0-1.3-0.3-2.6,0.1-2.9c2.5-1.8,5.1-3.8,8.7-1.7L334.6,420.6z"/>
<path class="st2" d="M104.6,399.6l0.2,1l-0.8-0.3L104.6,399.6z"/>
<path class="st7" d="M59.3,236.9l1.7-0.7l0.5,0.6l0.8,0l2,0.1l1.4,1.3l0.6,0.6l1.5,2c2.2,2.8,1.2,7.5-2.1,8.4
	c-1.7,0.4-3.6-0.2-5.4-0.4l0,0l-0.7-0.7l-1.3-5.4l1.1-5.5C59.3,237.1,59.3,236.9,59.3,236.9L59.3,236.9z M63.9,241.4
	c-1,1.7-2.2,2.7-2,3.5c0.1,0.8,1.5,1.5,2.4,2.2c0.6-0.8,1.8-1.5,1.7-2.3C66,243.9,65,243,63.9,241.4z M63,239.2V239l-0.8,0
	c0,0,0,0.1,0,0.2L63,239.2L63,239.2z"/>
<path class="st10" d="M60.2,248.7c1.8,0.2,3.7,0.8,5.4,0.4c3.3-0.8,4.3-5.6,2.1-8.4l-1.5-2c4.2,2,5.1,4.6,3.3,9.8
	c-2.3,0.7-4.5,1.6-6.8,1.9C61.9,250.7,61,249.3,60.2,248.7z"/>
<path class="st11" d="M74.5,237.9c-1.6,1.1-2.6,2.2-3,2c-1.1-0.6-1.9-1.6-2.8-2.5c0.9-0.6,1.7-1.6,2.6-1.6
	C72.1,235.8,72.9,236.8,74.5,237.9L74.5,237.9z"/>
<path class="st10" d="M66.1,238.8l-0.6-0.6L66.1,238.8z"/>
<path class="st11" d="M436.7,257.8c1.7,1.1,4.1-2.1,4.9,1.1c0.2,0.8-1.5,2.8-2.5,2.9C437.1,262,436.1,260.5,436.7,257.8z
	 M67.5,228.2v3.6l-6.8-0.7c0.5-1.1,0.7-2.5,1.5-3.2c0.7-0.6,2.1-0.3,3.1-0.3C66.1,227.6,66.8,228,67.5,228.2L67.5,228.2z"/>
<path class="st9" d="M62.2,236.8l-0.8,0L62.2,236.8z"/>
<path class="st11" d="M54.3,253.7c-1.4-2.8-0.6-4.4,2.6-4.5l1,3.8L54.3,253.7L54.3,253.7z"/>
<g>
	<path class="st10" d="M58.2,242.6l1.3,5.4l-2.6-1.5L58.2,242.6z"/>
	<path class="st10" d="M59.5,248l0.7,0.7L59.5,248z"/>
</g>
<g>
	<path class="st11" d="M77.4,246.7c-0.4,0-1,0.2-1.3,0c-0.9-0.5-1.7-1.1-2.6-1.7l1.8-1.6l2,2.3C77.5,246,77.3,246.4,77.4,246.7
		C77.3,246.7,77.4,246.7,77.4,246.7z M50.3,246.7c-0.9,0.3-2.2,1.1-2.7,0.8c-1.1-0.7-2.3-2-2.4-3.1c0-1.1,1.1-2.5,2.1-3.3
		c0.5-0.5,1.7-0.2,3.3-0.3l-1.5,2.1l-1.1,1.6L50.3,246.7L50.3,246.7z"/>
	<path class="st11" d="M51,242.6l2.4-0.2l1.3,1.2l-1.3,3.7l-3.1-0.5l0,0C50.3,246.7,51,242.6,51,242.6z M442.4,227.7l0.8,4.6l-1,0.4
		c-1.7-1.4-3.3-3.7-5.7-1.1c-0.7-2.7,0.9-4.7,3.3-4.5C440.7,227.1,441.5,227.4,442.4,227.7L442.4,227.7z M59.3,236.9l0,0.2l-3.6,2.9
		c-2-1.4-1.5-2.9-0.2-4.4C55.6,235.5,59.3,236.9,59.3,236.9z"/>
</g>
<path class="st10" d="M54.7,243.6l-1.3-1.2l0.8-0.2L54.7,243.6z"/>
<path class="st8" d="M249.6,173.3l0.1,72.2c0,2.8-1,4.4-3.3,5.7l-125.9,72.6c-4.5,2.6-4.6,2.6-6.9-1.9C69,235,114.2,130,207.8,102.7
	c12.4-3.6,25.1-5.5,38-6c3.3-0.1,3.8,1.3,3.8,4.1L249.6,173.3L249.6,173.3z M116.8,322.1c1.4-0.7,2.3-1.2,3.1-1.7l123.7-71.2
	c2.2-1.3,3-2.6,2.9-5.1l-0.1-144.6c-54.3,3.5-96.8,27.1-124.9,73.2C92.1,221,92.3,271.3,116.8,322.1L116.8,322.1z"/>
<path class="st14" d="M251.6,173.1v-72.2c0-4,0.2-4.3,4.3-4.1c39.3,1.6,73.3,15.9,101.7,43c25.9,24.8,41.4,55.1,46.3,90.6
	c4.4,32.4-1.2,63.2-16.3,92.2c-1.9,3.6-2.2,3.6-5.8,1.6l-126.9-72.9c-2.4-1.4-3.4-2.9-3.4-5.7L251.6,173.1L251.6,173.1z
	 M384.2,321.9c24.8-44.6,26.4-107.6-9.6-157.8c-29.2-40.8-69.5-61.8-119.9-64.6l-0.1,145c0,2.4,0.9,3.5,2.8,4.6L384.2,321.9z"/>
<path class="st15" d="M249.8,405.6c-55.5-2-99.4-26.1-130.3-73.4c-2.5-3.8-2.4-3.8,1.4-6l126.2-72.6c2.5-1.5,4.3-1.5,6.9,0
	l125.9,73.2c4,2.3,4.1,2.5,1.5,6.5c-25.5,38.8-61,62.3-106.8,70.3c-2.2,0.4-4.4,0.7-6.5,0.8L249.8,405.6L249.8,405.6z M379.8,330.5
	l-2.8-1.8l-124.2-72.1c-1.9-1.1-3.1-0.8-4.7,0.2l-126.9,72.9c31.5,47.1,74.8,73.1,131.6,72.5C307.4,401.5,349.2,375.9,379.8,330.5
	L379.8,330.5z"/>
<path class="st11" d="M63.9,241.4c1,1.6,2,2.5,2.1,3.5c0,0.7-1.1,1.5-1.7,2.3c-0.8-0.7-2.2-1.4-2.4-2.2
	C61.8,244.1,62.9,243,63.9,241.4z"/>
<path class="st10" d="M63,239.2h-0.9c0-0.1,0-0.2,0-0.2l0.8,0L63,239.2L63,239.2z"/>
<path class="st16" d="M116.8,322.1c-24.5-50.8-24.7-101.1,4.8-149.4c28.1-46.1,70.6-69.7,124.9-73.2v4.1l0.1,140.5
	c0,2.5-0.7,3.9-2.9,5.1l-123.7,71.2C119.1,320.9,118.2,321.4,116.8,322.1z M221.3,180.1l-4.3-1.4l-0.8,0.4c0.4,0.8,0.6,1.8,1.3,2.2
	c1.3,1,2.7,1.8,4.2,2.4c0.8,0.4,1.9,0.3,2.8,0.5l-1.4-2.3c-0.2-0.4-0.4-0.8-0.5-1.2l2.8-0.6l0-1l-7.4-4.5l-0.9,0.7
	c0.4,0.8,0.7,1.7,1.2,2.3C219.1,178.5,220.2,179.3,221.3,180.1z M214,197.2l10,10.7l1.3-0.7c-0.1-0.8,0.1-1.9-0.3-2.3L210.8,190
	l-1.4,2.7c-2.3,0.2-2.7,1.1-1.3,3l14.1,19.1l2-1.2l-9.5-14.1C214.3,198.9,214.2,198,214,197.2L214,197.2z M217.3,250l3.2,0.9
	c-0.5-1-0.8-2.1-1.4-2.9c-1.3-1.6-2.9-3-4.3-4.5c-4.2-4.6-8-9.4-8.7-16.1c-0.8-6.7-2.6-13.3-3.8-20c-0.4-2-1.1-2.7-3-1.5l2.5,12.4
	c1.9,9.5,2.9,19.4,10.4,26.7l-1.8,1c-1.1-1.6-1.9-3.2-3.1-4.2c-3-2.5-4.5-5.4-4.8-9.3c-0.3-3.3-1-6.5-1.5-9.7l-2.2-13
	c-0.1-0.7-1-1.3-1.6-2c-0.3,0.8-0.6,1.6-0.9,2.4c-0.1,0.3,0.1,0.7,0.1,1l4.1,23.7c0.3,1.9,0.8,4.2,2.1,5.3c3.8,3.3,5.4,7,3.7,11.8
	c-0.1,0.2,0.1,0.4,0.2,1.4l6.7-2.2l-0.2-0.8l3.9,3.5L217.3,250L217.3,250z M145.7,222.1l0.8,0.7l-2.1,4.2l2.5,1.4l15.7-28.4
	c0.4-0.7,0.2-2.3-0.2-2.5c-1.2-0.5-2.6-0.6-3.9-0.8l2-3.9l-0.4-0.8c-0.9,0.5-1.9,0.8-2.6,1.5c-4,4.3-8,8.7-11.8,13.2
	c-0.8,1-0.8,2.8-1.1,4.2l1.1,0.3l2.5-2.9l9-10.3c-0.4,1-0.6,2-1.2,2.8l-13,20.4c-0.5,0.8-0.2,2-0.2,3l1.1,0.1L145.7,222.1
	L145.7,222.1z M220.4,232.5l2.4,1c0.2-0.2,0.3-0.5,0.5-0.7l-6.2-13.7l3.6-1.4l-14.1-20.9c-4.2,3.2-4.2,3.2-1.7,7.3l6.2,10.3
	l-3.5,1.5l11,20.3c0.3,0.5,1.6,0.4,3,0.8l-1.6-4C220,232.8,220.2,232.7,220.4,232.5L220.4,232.5z M150.9,250.3l0.6,0.5l0.6,1.9
	l3.5-1.8c1.1,1.9,4.6,2.6,6.9,1.2c-3.2-8.6-3.1-8.6-1.3-15.5l2.3-9.2l-3.4,0.4c-0.2-0.1-0.3-0.3-0.5-0.5l1.8-5l1.8,2.7l7.3-18
	l-5.1-1.8l-1.4,3.6c-0.5,1.2-0.9,3.4-1.5,3.5c-3.5,0.4-3.3,3.5-4.3,5.5c-3,5.9-5.7,11.9-8.7,18.3l4.3-0.7c0.1,0.1,0.2,0.2,0.4,0.4
	c0.1,5.1-2.2,9.2-5.2,13.1c-0.5,0.7-0.3,1.8-0.4,2.8L150.9,250.3L150.9,250.3z M165.7,192.7l0-0.4c0,0-0.1,0.1-0.1,0.1
	C165.6,192.5,165.7,192.6,165.7,192.7c0.7,1.6,2.1,3.2,2,4.7c-0.3,3.2,1.2,5.1,3.5,6.9c2,1.5,3.1,3.3,1.1,5.2c0.8,1.3,1.9,2.4,2,3.4
	c0.1,1.6-0.5,3.2-0.8,4.8c-0.6,3.4,1.6,6.6,0.8,10c-0.3,1.2-0.3,2.4-0.5,3.7c0,0.3-0.2,0.5-0.3,0.9l2.8,0.5v11.8l-2,0.3
	c0,2.2-0.1,4,0,5.9c0.1,1.1,0.4,2.3,0.6,3.4c0.1,0.6,0.5,1.1,0.5,1.7c-0.2,3.2-0.5,6.4-0.6,9.6c0,0.8,0.6,1.6,1,2.4
	c0.5,1,1.1,2,1.7,3l5.4,9.5l1.5-0.1l3.9-7.2c1-1.8,2.4-3.5,3.2-5.4c0.6-1.3,0.6-2.9,0.7-4.4c0.1-0.7-0.5-1.6-0.3-2.1
	c1.7-2.9-1.3-6.4,1.1-9.2c0.1-0.2,0-0.7-0.1-1c-1.2-2.3-0.8-4.3,1.7-5.8l-3.5-0.5v-12.1l4.3-0.4c-3.2-1.1-2.9-2.5-2.6-4.7
	c0.3-2.8,0.9-5.7,1.2-8.5c0-0.4-0.4-0.8-0.4-1.2c0.1-2.7-2.5-5.9,1.7-7.9c-2.3-1.9-1.6-3.7,0.1-4.7c4.8-2.8,3.8-7.5,4.9-12.1
	l-4.3,1.6l-0.7-0.4c0.7-1.3,1-3.3,2-3.8c1.7-0.8,3.9-0.6,5.9-0.9l0.4,0.9c9-10.6,11.1-22.7,6.7-35.9c-3-9-10.1-17.4-15.4-17.9
	l2.6,3.3c4.5,5.5,7,11.7,6.2,18.9c-0.7,6.5-1.7,13.2-9.6,15.7c1.1-19.2-2.6-37.4-10.6-55.4c-8.3,18-11.1,36.4-10.3,56.5
	c-1.1-1.4-1.9-2.6-2-2.5c-2.7,1.4-3-1.1-3.8-2.3c-6.3-9.8-5.2-22.5,2.7-31.5c0.7-0.8,1.3-1.7,1.9-2.5l-1-0.7
	c-8.3,5.3-13.3,13.1-15.4,22.7c-2.7,11.9,0.1,22.6,8.3,31.2c2.2-0.2,4.3-0.3,5.9,0.5c1,0.5,1.3,2.4,2.2,4.1L165.7,192.7L165.7,192.7
	z M138.5,186.4l16.4-8.4c-1.7-1.4-3.3-3.4-4-3.1c-4.8,1.7-9.4,3.8-14.6,6.1l3,1.4L138.5,186.4z M157,190.7l-0.2-0.7
	c-0.7,0.2-1.5,0.3-2,0.7c-4.3,3.8-8.5,7.6-12.6,11.5c-0.7,0.7-0.5,2.2-0.9,4.1L157,190.7L157,190.7z M151.9,168.4
	c-3.8,0.9-7.7,0.8-9.6,4.9c3.3,1.8,6.3-0.2,9.6-0.6V168.4z M225.4,189.7l-9.7-8.2l-1,1c1.1,3.7,5.1,5,7.6,7.6
	C222.6,190.4,223.7,189.9,225.4,189.7z"/>
<path class="st17" d="M384.2,321.9l-126.7-72.8c-1.9-1.1-2.8-2.2-2.8-4.6l0.1-145c50.4,2.8,90.6,23.9,119.9,64.6
	C410.5,214.3,408.9,277.3,384.2,321.9L384.2,321.9z M347.9,230.8v-24.6h-23.5l0-0.9h15.2v-21.6h-15.3l-0.1-1.3l11-0.5v-19.9h-11.6
	l0-1l7-0.6v-19.9h-6.2c0.2-1,0.2-1.9,0.6-2.4c1.7-2.1,2-4.1-0.3-6c-0.2-0.2-0.5-0.6-0.4-0.8c1.8-4.2-2.1-6.7-3.1-10.2
	c-0.8,3.4-4.9,5.7-3.1,9.9c0.1,0.3-0.4,0.9-0.7,1.2c-2,1.8-2.1,3.7-0.3,5.7c0.5,0.6,0.7,1.6,1.1,2.8h-6.6v19.8l7.2,0.5l-0.1,1.3
	h-11.5v19.9c2.1,0,4,0,5.9,0c1.6,0.1,3.2,0.3,4.8,0.4l-0.1,1.4h-15.1v21.6h14.9l0,0.9h-23.5v24.2l-0.3,1.1h-11.4v28.4h33.9
	c-0.9,6.6,2.1,11.6,4.9,17.3c2.6-5.8,5.8-10.8,4.7-17.3h33.8v-28.4h-11.5C348.1,231.5,348,231.1,347.9,230.8z"/>
<path class="st18" d="M379.8,330.5c-30.6,45.4-72.4,71-127.1,71.6c-56.8,0.7-100-25.4-131.6-72.5l25.2-14.5L248,256.7
	c1.6-0.9,2.9-1.2,4.7-0.2L377,328.7C377.7,329.1,378.5,329.6,379.8,330.5z M180.9,308l-1,1c-0.8,0.4-1.6,0.7-2.3,1.2
	c-1.1,0.8-3,1.6-3.1,2.6c-0.1,1.3,1,2.8,1.9,4c0.7,1,1.8,1.7,3.1,2.9c-3.2,1.2-5.8,2.8-8.5,3c-3.9,0.3-7,2.1-10.3,3.6
	c-2,0.9-4.1,1.5-6.2,2c-3.2,0.8-6.4,1.4-9.6,2.1c-2.3,0.5-3.6,1.8-3,4.5c0.7,3.2,5.7,5.5,8.6,3.9c1-0.5,2.2-0.6,3.4-1
	c0.9-0.3,1.8-0.6,2.6-0.9l-0.1-0.9c-1.5-0.4-3-1.1-4.6-1.1c-1.4,0-2.9,0.7-4.3,1l-0.5-1.1c0.9-0.7,1.6-1.7,2.6-1.9
	c1.2-0.3,2.6,0.1,3.9-0.1c4.2-0.6,7.9-2.2,11-5.2c1.3-1.3,2.8-1.6,4.7-0.6c1.6,0.8,3.8,0.7,5.7,0.6c0.4,0,0.7-2,1.1-3
	c0.2-0.5,0.6-0.9,0.4-0.5c3.9,0.4,7.1,1,10.4,0.9c1.3,0,3.4-1.2,3.8-2.3c1.6-4.3,6-4.9,9.2-7c2.1-1.4,6.4-2.7,8.1-4.5
	c0.1-0.1,0.4,0,0.7,0l1.2,3.9c1.4-0.8,2.5-1.4,3.6-2c0.9-0.4,2.1-1.3,2.8-1c2.5,1,4.8,2.4,7.6,3.9c-1.4,1.3-2.4,2.5-3.7,3.2
	c-3.3,1.9-6.4,4.1-10.5,3.9c-1.7-0.1-4.6,1.2-3.1,2.7c1.7,1.8,5.1,2,7.8,2.7c0.5,0.1,1.6-0.3,1.8-0.8c0.9-2.1,2.6-1.8,4.4-1.9
	c1.2,0,2.4-0.9,3.4-1.6c1.6-1,3.3-3.2,4.7-3c2.5,0.3,5,2,5,5.2c0,2.5-0.3,5.1-0.6,8h-9l0.4-5.4c-3.6,3.9-3.6,3.9-9.3,2.9
	c-0.8-0.1-1.6,0-2.3-0.3c-2.9-1.2-3.8-0.1-3,3c-5.6-0.8-8.7-4.6-11.4-7.2l-7.1,1.8c-0.2,0-0.5,0.1-0.7,0.2c-0.1,0.1-0.3,0.2-0.4,0.2
	c-6.4-2.3-16.1,1-17.9,6.7c1.7-0.9,2.9-1.4,4-2.1c3.7-2.2,5.4-1.9,8.5,0.7c1.3,1.1,3.2,1.4,4.9,2.2c1.4,0.6,2.7,1.3,4.5,2.2
	c-5.6,4.4-9-1.5-13.5-1.1l-0.4,3.3c-1.9,1.8-3.4,2.9-4.5,4.3c-1.9,2.2-4,1.2-6.1,0.6c-1.3-0.4-2.4-1.4-4.2-2.6
	c7-1.8,8.7-3.4,7.1-6.3c-2.7,3.7-6.3,3.8-10.3,3.2c-3-0.4-6.2,2.3-9.3-0.3c0,0-0.2,0.1-0.6,0.2l-1.5,2c3.3,4.6,8.4,8.2,6.5,15.2
	l1.7-0.5c-0.1-2.2,0.1-4.5-0.4-6.5c-1-3.8-1-4,3-4.2c1.2,2.5,2.4,4.5,6,3.2c1.9-0.7,3.7,0.3,3.5,2.9c-0.1,2.5-0.4,5-0.3,7.6
	c0,1.2,0.8,2.4,1.2,3.5l0.8-0.4l0-8.4c0.1-4.6,3.8-8,8.9-7.9c-1.7,2.3-3.5,4.4-4.7,6.7c-0.6,1.2-0.7,4.2-0.2,4.4
	c4.6,1.7,5.9,5.1,5.8,9.5c0,0.2,0.3,0.3,0.9,1l2.8-7.2c4.5,0.8,7.2-2,8.9-6.8c3.5,3.4,1.9,6.9,2,10.1c0.1,3.3,0,6.5,0,9.8l1.1,0
	c1.5-4.1,0-8.8,2.2-12.8c0.8,1.8,1.2,3.4,1.6,5.1c0.4,1.7,0.6,3.4,0.9,5.2l1-0.1c-0.3-2.3-0.7-4.5-0.8-6.8c-0.1-2.1-0.5-4.6,0.4-6.3
	c1.1-2.1,3.4-3.6,5.3-5.3c0.2-0.2,0.8,0,1.8,0.1c-0.8,6.8-4.1,13.3-1.6,20.2c-4.6,2.8-8.4,3-13.7,1.2c-1.4-0.5-3.2,0.1-4.9,0.2
	l0.1,0.9c1.4,0.2,2.9,0.3,4.1,0.8c4.3,1.8,8.9,1.6,12.9-0.1c5.5-2.4,10.4-0.8,15.6,0.3c1.7,0.4,4.1,0.8,5.3,0
	c4-2.5,8.3-4.4,9.8-10.1c1.5-5.9,0.7-11.3-0.1-16.9c-0.1-0.9-0.8-2-1.5-2.4c-4.2-1.9-8.3-3.8-12.6-5.3c-4.9-1.8-10.6-0.1-15.4-2.8
	v-0.5c1.2-0.2,2.4-0.8,3.5-0.7c6.5,0.7,13.1,1.3,19.6,2.4c8.2,1.3,8.1,1.5,7.9-7c-0.1-5.5-1.2-11-4.9-14.8c-3.3-3.4-8-5.5-12.2-8
	c-3.8-2.3-8-3.4-12.5-2.3c-1.4,0.3-2.7,0.8-4.1,1.2c-0.9,0.2-1.9,0.7-2.7,0.5c-0.6-0.2-1.3-1.6-1.1-2c0.4-0.9,1.4-1.7,2.3-2
	c0.9-0.3,2-0.1,3-0.1l0.3-1c-2.6-1.2-2.7-5.6-7-5.1l0.8,4.5c-2.1-0.3-3.9-0.2-5.3-0.9c-0.6-0.3-0.9-2.9-0.3-3.5
	c1.3-1.4,3.3-2.1,5.8-3.6c0.6-2.2,2.1-4.3,5.7-6.1c4.5-2.3,8.7-2.8,13.4-2.5c2.5,0.1,4.4-0.3,4.7-3.5c0.2-2.1,1.1-4.1,4.1-3.4
	c3.1,0.8,4.6-0.7,5.7-3.5c1.3-3.7,3.8-5.1,7.8-5.1c1,0,2.1-0.5,3.1-0.7c2.2-0.5,4.4-1.2,6.6-1.2c2.1,0,4.3,0.6,6.3,1.3
	c1.7,0.6,3.2,1.6,5.3,2.8l-4.1,1.9l3.8,3.1l-5.8,2.5c1.4,0.8,2.4,1.2,3.1,1.9c0.5,0.4,1,1.6,0.9,1.8c-1.9,1.8-3.8,4.1-6.1,5.1
	c-2.2,1-5,0.5-7.6,0.9c-4.6,0.6-5.8,2.1-5.9,6.9c0,2.8-0.5,5.7-0.8,8.5l-1.2,0.1c-0.5-2.6-1.5-5.2-1.3-7.8c0.1-1.8,0-3.2-1.6-3.7
	c-1.4-0.4-3.1-0.1-4.7-0.1l0.2,4.1c0,0.2-0.2,0.4-0.4,0.6l-2.9-2l-1,5.1l-1.2-0.1c0-1.1,0.2-2.3-0.1-3.4c-0.2-0.8-1.1-1.4-1.8-1.8
	c-0.2-0.1-1.3,0.8-1.4,1.3c-0.4,3.6-2.8,2.6-4.9,2.3c-0.9-0.2-2.1-1-2.7-0.7c-2.5,1.2-3.3-0.5-4.4-2c-1-1.3-2-2.6-3.3-3.5
	c-0.6-0.4-2.1-0.2-2.6,0.4c-0.5,0.6-0.8,2.2-0.4,2.7c1.9,2.5,3.8,5.1,7.3,5.7c4.4,0.7,8.9,1.2,12.6,4.3c0.5,0.4,1.4,0.3,2.2,0.6
	c5,1.6,9.6,3.7,12.7,8.2c1.7,2.5,3.4,5,5.1,7.5c-0.1-4.1-1.3-8-1.5-11.9c-0.3-3.8,0.4-7.7,0.7-11.5l1.6-0.7c0.3,0.7,0.6,1.4,1,2.1
	c2.2,3.5,2.7,8.3,7.1,10.2c0.2,0.1,0.4,0.6,0.4,0.9c0.2,3.6,0.8,7.3-2.7,10.2l-3.4-7.4c-2.5,5.4,2.5,8.4,2.8,12.9l2.9-2.4l0.7,6.2
	c0.2,1.6,0.7,3.1,0.8,4.6c0.1,2.3-0.1,4.6-0.3,6.8c-0.5,7.9,3.9,15.8,0.1,23.8c-0.1,0.3,0.2,0.8,0.3,1.2c2.7,5.7,6.4,9.8,13.2,10.6
	c2.7,0.3,5.6,1.2,8,2.5c3.6,1.8,7.2,2.3,10.8,1.4l-10.8-4.3l0.5-1.7c2.5,0.5,5,0.8,7.4,1.5c4.6,1.4,9.1,1.8,14.3-0.4l-6.1-1.7
	c2.2-0.3,4.3-0.1,6.3,0.1c1.1,0.1,2.4,0.5,3.4,0.3c2.8-0.6,5.5-1.5,8.3-2.3c0.6-0.2,1.2-0.5,1.8-0.7l-0.1-1.3h-17.1l-0.1-0.8
	c0.2-1.5,0.3-2.9,0.6-4.4c0.3-1.5,0.9-3,0.9-4.5c-0.1-3.2-0.8-6.3-0.7-9.5c0.1-3.3,2.6-4.9,4.9-2.7c2.6,2.5,4.8,5.7,4.7,9.8
	c-0.1,2.6,0.2,5.1,2.6,7c0.2-1.4,0.1-2.7-0.1-4c-0.5-2.9,3.7-9.2,6.1-8.7c2.7,0.5,4.9,0.6,6.8-1.6c0.3-0.3,1.2-0.2,2.8-0.4
	c-3,5.7-0.1,10,2.5,15.4c0.3-2.2,0.7-3.6,0.6-4.9c-0.4-3.9-1.2-7.7-1.4-11.5c-0.1-1.8,0.2-4.4,3.1-4.1c2.3,0.2,5.3-0.4,5.7,3.5
	c0.2,2.5,1.1,4.9,1.7,7.4l1.3-0.2v-15.4l10.4,0.6l-0.5-4.3c1.3-0.1,2.6,0,3.7-0.4c1.3-0.4,3.1-1.1,3.4-2.1c0.3-1-0.6-3-1.6-3.6
	c-2.5-1.6-5.3-2.6-7.9-4c-1.1-0.6-2.5-1.4-2.9-2.4c-1.3-3-3.7-3.5-6.2-2.6c-2.3,0.8-3.3,0.2-3.8-2c-0.5-2.6-2.5-3.5-4.6-3.1
	c-3.9,0.7-7.8,2-11.6,2.9c-0.6,0.1-1.2,0.2-1.8,0c-2.3-0.8-4.6-1.8-7.1-2.8c0.5-0.5,1-1.7,1.7-1.9c3.2-0.8,6.6-1.3,9.8-2
	c0.9-0.2,2-0.5,2.4-1.1c0.4-0.7,0.5-2,0.1-2.7c-1.9-3.6-3.4-7.5-7.8-8.8c-0.5-0.1-1-0.7-1.1-1.2c-0.5-2.1-2-2.3-3.7-2
	c-3.2,0.5-5.6-0.6-7.4-3.2c-2.8-4.1-6.8-4.9-11.3-3.7c-1.6,0.4-2.3,0.1-3.4-1.3c-1.8-2.4-4.9-4-6.7-6.5c-2.5-3.7-6.2-6.1-9.1-9.3
	c-0.8-0.8-1.1-2-1.9-2.8c-5.6-5.1-13.1-5-19.8-6.9c-0.6-0.2-1.5,0.3-2.2,0.6c-2.6,0.9-5.2,1.7-7.6,2.9c-1.5,0.7-2.9,1.8-4.1,2.9
	c-2.3,2.3-4.3,4.9-8.1,5c-1.2,0-3,1.2-3.3,2.2c-0.7,2.8-2.7,3-4.9,3.5c-4.4,0.9-9.5,0.1-12.7,4.5c-0.3,0.4-1,0.5-1.4,0.8
	c-1.2,0.8-2.4,1.7-3.6,2.6c-0.8,0.6-1.4,1.7-2.3,1.8c-4.2,0.6-6.7,2.8-7.3,6.9c-6.5-0.2-9.4,1.5-10.8,6.3
	C181.2,307.4,181.1,307.7,180.9,308L180.9,308z M245.5,329.8c2,3.3,4.4,5.4,1.7,8.7c-0.6,0.8-0.4,2.6-0.1,3.8
	c1.1,4.5,2.5,8.9,3,13.7c0.5,4.7,0.5,8.9-1.2,13.4c-1.9,4.9-0.1,9.2,3.9,10.2c3.3,0.8,5.9,2.3,8.5,4.5c4.4,3.7,10.1,2.7,15.4,2.8
	c-2.4-0.9-4.9-1.7-7.4-1.7c-3.2,0-5.5-0.9-7-3.8c-0.5-0.9-1.4-1.9-2.3-2.1c-3.8-0.7-5.6-3.4-7.1-6.4c0.4-1,1.1-2,1.2-3
	c0.6-6.6-1.4-12.9-2.5-19.2c0-0.2-0.3-0.3-0.4-0.5c-2.2-2-1.5-4,0-6.1c0.7-1,1.3-2.5,1.1-3.6c-0.6-3.7-1.5-7.4-2.5-11
	c-0.7-2.5-2-4-5.1-2.9c-0.8,0.3-2-0.2-3.4-0.5c-0.1,5.4-0.2,10.9,1.3,16.2l1,0L245.5,329.8L245.5,329.8z M245.6,349.2l-1.3,0.1
	c-0.1,4-0.1,8.1-0.4,12.1c-0.4,3.9,0,8.5-2,11.3c-4,5.7-9.5,10.1-17.2,9.9c-1.6,0-3.3-0.2-4.9,0.1c-2,0.3-3.8,1.1-5.8,1.7l0.2,0.9
	c0.4,0.1,0.8,0.3,1.2,0.3c2.2-0.1,4.5-0.9,6.4-0.4c4.5,1.2,8.4,1.1,11.7-2.7c0.3-0.4,1-0.4,1.4-0.7c3.2-2.5,6.5-5,9.6-7.6
	c0.7-0.6,0.9-1.7,1.2-2.6c2.8-7.1-0.3-14.4,0.7-21.5C246.5,349.8,245.9,349.5,245.6,349.2L245.6,349.2z M231.6,386.4
	c0.3,0.3,0.9,1,1.1,0.9c4.2-1.4,8.4-2.7,12.3-4.6c1.7-0.8,3.2-1.8,3.8,0.4c0.7,2.8,2.4,2.8,4.6,2.9c2.2,0.1,4.3,1,6.5,1.6
	c1,0.3,1.9,0.6,2.8,0.9c-1.5-2.8-3.1-5-6.4-4.7c-2.9,0.3-5.4,0.1-6.9-3c-0.5-1-2.7-2.1-3.5-1.7C241.1,381.3,236.5,383.9,231.6,386.4
	L231.6,386.4z M255.7,279.5c-3.7-0.5-6.7-1.2-9.7-1.1c-2.5,0-5,0.9-7.6,1.4l-0.4-0.9l-2,3.8c2.3,1.6,4.3,2.1,6.2,0
	c2.2-2.4,4.9-2.9,7.6-1.2C252.1,282.7,253.5,282.2,255.7,279.5L255.7,279.5z M206.5,382.2c1.2-0.3,2.6-0.4,3.6-1
	c1.8-1.3,3.4-1.6,5.5-0.8c3.1,1.1,7.9,0.5,9.7-0.7C218.7,377.9,212.2,376.3,206.5,382.2z M164.9,331.7c-1.2,0.8-2.4,1.5-3.5,2.4
	c-0.4,0.3-0.5,1-0.8,1.5c0.5,0.2,1,0.6,1.6,0.7c1.2,0.2,2.4,0.4,3.6,0.4c1,0,2-0.4,2.9-0.7c-0.4-0.9-0.7-1.9-1.3-2.6
	C166.8,332.8,165.8,332.3,164.9,331.7L164.9,331.7z M234.8,288c1,3.2,6.4,5.1,8.3,3.2c0.4-0.4-0.1-2.7-0.3-2.7
	C240.3,288.2,237.7,288.1,234.8,288z M228.9,291.7c-2-2.9-4.7-2.9-10,0.6c1.1,0.5,2.3,0.9,3.5,0.8
	C224.5,292.8,226.7,292.2,228.9,291.7L228.9,291.7z M208.9,321.4l0.8-0.9c-0.7-0.9-1.5-2.5-2.1-2.4c-1.4,0.1-2.8,1-4.2,1.6l0.3,1.4
	L208.9,321.4z M220,297.9c-2-1.8-3.7-2.5-5.8-0.4C216.2,299.2,217.8,300.6,220,297.9z M196.3,322.4c2.4,0.3,4.2,2.8,6.7,0.4
	C200.8,321.3,199.1,319.2,196.3,322.4z M257.6,278.3l1-1.1l-2.3-3.1l-2,2.2L257.6,278.3L257.6,278.3z"/>
<path class="st15" d="M165.7,192.7l6.4,1.8c-0.9-1.7-1.2-3.7-2.2-4.1c-1.7-0.8-3.8-0.7-5.9-0.5c-8.2-8.7-11-19.3-8.3-31.2
	c2.2-9.6,7.1-17.4,15.4-22.7l1,0.7c-0.6,0.9-1.2,1.7-1.9,2.5c-7.8,9-9,21.7-2.7,31.5c0.8,1.2,1.1,3.8,3.8,2.3c0.1-0.1,0.9,1.2,2,2.5
	c-0.8-20.1,2-38.5,10.3-56.5c7.9,18,11.7,36.1,10.6,55.4c7.9-2.5,8.9-9.2,9.6-15.7c0.8-7.1-1.7-13.4-6.2-18.9l-2.6-3.3
	c5.3,0.5,12.4,8.9,15.4,17.9c4.4,13.2,2.3,25.3-6.7,35.9l-0.4-0.9c-2,0.2-4.1,0-5.9,0.9c-1,0.5-1.4,2.5-2,3.8l0.7,0.4l4.3-1.6
	c-1.1,4.6-0.1,9.3-4.9,12.1c-1.7,1-2.5,2.8-0.1,4.7c-4.2,2-1.6,5.2-1.7,7.9c0,0.4,0.5,0.9,0.4,1.2l-1.2,8.5
	c-0.3,2.3-0.6,3.6,2.6,4.7l-4.3,0.4v12.1l3.5,0.5c-2.4,1.6-2.9,3.5-1.7,5.8c0.1,0.3,0.3,0.8,0.1,1c-2.4,2.8,0.6,6.3-1.1,9.2
	c-0.3,0.5,0.3,1.4,0.3,2.1c-0.1,1.5-0.1,3.1-0.7,4.4c-0.8,1.9-2.2,3.6-3.2,5.4c-1.3,2.4-2.6,4.8-3.9,7.2l-1.5,0.1l-5.4-9.5
	c-0.6-1-1.2-2-1.7-3c-0.4-0.8-1-1.6-1-2.4c0.1-3.2,0.4-6.4,0.6-9.6c0-0.6-0.3-1.1-0.5-1.7c-0.2-1.1-0.6-2.3-0.6-3.4
	c-0.1-1.8,0-3.7,0-5.9l2-0.3v-11.8l-2.8-0.5c0.1-0.4,0.3-0.6,0.3-0.9c0.2-1.2,0.3-2.5,0.5-3.7c0.7-3.4-1.4-6.6-0.8-10
	c0.3-1.6,0.9-3.2,0.8-4.8c-0.1-1.1-1.2-2.1-2-3.4c1.9-1.9,0.8-3.7-1.1-5.2c-2.3-1.8-3.8-3.7-3.5-6.9
	C167.8,195.9,166.4,194.3,165.7,192.7L165.7,192.7L165.7,192.7z M193.8,188.2l-1,2.4l-1.6,5.6l1.1,0.2l0.6-5.8l1.4-1.9l0.7-0.6
	l5.6-2.4c-3.6-2.9-4.7,0.4-6.3,2C194.1,187.9,194,188,193.8,188.2z M173.5,189.5l0.6,1c0.1-0.1,0.3-0.2,0.4-0.2l-0.6-1.1
	c-1.1-1.4-2.2-2.9-3.5-4.2c-1.6-1.6-2.8-0.8-3.3,0.5L173.5,189.5L173.5,189.5z M181.4,187.5v-45.3c-4.7,12.1-5.9,23.8-5.7,35.7
	c0,0.6,0.3,1.2,0.6,1.8L181.4,187.5L181.4,187.5z M185.7,143.9v43.4l5.4-8c0.3-0.4,0.4-1,0.4-1.5C192,166.1,189.9,154.8,185.7,143.9
	z M188.6,142.7l1-0.4l-5.4-17.6h-1.3l-5.6,19.2l0.7,0.3l5.6-10L188.6,142.7L188.6,142.7z M180.5,247.5c3.2-3.9,2.7-14.7-0.6-17.1
	C177.5,233,177.8,245.2,180.5,247.5z M180.5,209.1h5.4c0.9-4.8,0.2-9.5-2.3-14l-1.1-0.1L180.5,209.1L180.5,209.1z M187.2,230.3
	c-3.2,2.5-3.4,14.2-0.4,17.1C188.7,245.5,189.1,233.2,187.2,230.3z M209,163.2c-1,7.1-2.9,13.7-7.9,19l1.8,2.7
	c0.1,0.1,0.3,0.2,0.8,0.5C208,178.6,209.7,171.3,209,163.2L209,163.2z M170.7,178.3c-1,2-0.8,3.4,1.3,4.9c4.5,3.3,6.3,8,6,13.5
	c0,1,0.2,2,0.3,3C181.2,193.2,177.8,184.3,170.7,178.3z M158.4,168.5c-0.1,6.1,1.7,11.7,5.2,17.2l1.8-2.8L158.4,168.5z M197.3,179
	l-1-0.3c-6.8,5.6-10.5,15.7-7.4,21.8c0.2-1.4,0.4-2.2,0.3-3c-0.3-6,1.7-10.8,6.4-14.6C196.5,182,196.7,180.3,197.3,179L197.3,179z
	 M197.1,197.5c-0.2-0.1-0.4-0.3-0.7-0.4c-1.2,0.7-2.5,1.2-3.7,2c-2.8,1.9-4.4,5.6-3.7,8.5c0.1,0.5,0.7,1,1,1.4
	c0.4-0.3,0.9-0.5,1.2-0.9c1.6-2.3,3.2-4.6,4.6-6.9C196.4,200.1,196.7,198.8,197.1,197.5L197.1,197.5z M170.8,197.4l-1,0.5
	c0.8,1.4,1.5,2.8,2.4,4.1c1.1,1.7,2.4,3.3,3.5,5l1.5,2c0.4-0.8,1-1.6,1.1-2.5C178.6,202.5,175.9,199.3,170.8,197.4L170.8,197.4z
	 M183.8,257.2c-1.7,0-3.5-0.1-5.2,0.1c-0.6,0-1.1,0.8-1.6,1.2c0.5,0.5,0.9,1.3,1.4,1.3c3.4,0.1,6.8,0.1,10.1,0
	c0.5,0,1.1-0.8,1.6-1.2c-0.6-0.5-1.1-1.2-1.8-1.3C186.9,257,185.4,257.2,183.8,257.2L183.8,257.2z M206.2,167l-1.3-0.6
	c-0.2,4.8-5.2,7.3-5.7,11.9l1.3,0.6L206.2,167L206.2,167z M162.2,167.7l-0.9,0.5l5.4,10.6l1.5-0.8L162.2,167.7L162.2,167.7z
	 M186.8,219.6c-1.5-1.2-2.4-2.4-3.2-2.3c-0.9,0.1-1.6,1.3-2.5,2c0.8,0.8,1.4,2,2.3,2.2C184.2,221.7,185.2,220.6,186.8,219.6z
	 M184,248.1c-0.3,0-0.7,0-1,0c-0.4,1.3-1.1,2.5-1.1,3.8c0,0.7,1.1,1.4,1.7,2.1c0.5-0.7,1.4-1.4,1.3-2
	C184.9,250.7,184.3,249.4,184,248.1z M179.3,270.1h7.9l0.3-0.9c-0.8-0.3-1.5-0.8-2.2-0.9c-1.3-0.1-2.6,0.2-3.9,0.3l-0.3-0.9
	L179.3,270.1L179.3,270.1z M181,272.6l2.7,4.4l0.9-0.1l0.9-3.8L181,272.6L181,272.6z M185.4,214.8l0.6-0.9l-2.8-2.2l-2.2,3.1
	L185.4,214.8L185.4,214.8z M183.8,230.7l1.6-3.9l-3.7-0.6l-0.4,0.9L183.8,230.7z M174.7,196.5l1.1,0l-0.8-5l-0.6,0.1L174.7,196.5
	L174.7,196.5z M161.6,165.8c-0.1,0.1-0.3,0.3-0.3,0.4c0,0.2,0.1,0.4,0.2,0.5c0.1-0.1,0.3-0.2,0.3-0.3
	C161.8,166.2,161.7,166,161.6,165.8z"/>
<g>
	<path class="st8" d="M153.7,235.3l-4.3,0.7c3-6.3,5.7-12.4,8.7-18.3c1-2,0.8-5.2,4.3-5.5c0.6-0.1,1-2.3,1.5-3.5l1.4-3.6l5.1,1.8
		l-7.3,18l-1.8-2.7l-1.8,5l0,0.8c0.1-0.1,0.3-0.2,0.4-0.3l3.4-0.4l-2.3,9.2c-1.9,6.9-1.9,6.9,1.3,15.5c-2.2,1.4-5.7,0.7-6.9-1.2
		l-3.5,1.8l-0.6-1.9l0.8-1.2l0.4-0.9l0.7-1.1c-0.1-0.1-0.3-0.2-0.4-0.3l-0.7,1l-0.5,0.8l-0.9,1.1l-2.4,1.2c0.1-0.9-0.1-2.1,0.4-2.8
		c3-3.9,5.3-8,5.2-13.1c0.1-0.2,0.1-0.3,0.2-0.5L153.7,235.3L153.7,235.3z M154.5,245.3l-0.6,1.1l0.4,0.2l0.5-1l0.5-0.8
		c0.4-0.3,1.2-0.6,1.3-1l3.4-12.6l-0.7-0.7c-0.7,0.6-1.8,1.1-1.9,1.8c-0.9,4-1.5,8.1-2.3,12.2L154.5,245.3L154.5,245.3z M219.8,233
		l1.6,4c-1.3-0.3-2.7-0.3-3-0.8l-11-20.3l3.5-1.5l-6.2-10.3c-2.5-4.1-2.5-4.1,1.7-7.3l14.1,20.9l-3.6,1.4l6.2,13.7l-0.5,0.7l-2.4-1
		l-2.1-4.5l-4.8-10.9l3.3-0.9l-4.3-6.2l-1.3-1.8l-0.5,0.4l1.3,1.9l2.7,5.1l-2.2,1.1c-0.1,0.5-0.6,1.2-0.4,1.6
		c1.8,3.5,3.7,6.9,5.5,10.3L219.8,233L219.8,233z M208.7,205.2l0.5,0.9l0.7,1.2l0.6,0.6l-0.2-0.9l-0.8-1.2l-0.6-0.8l-0.8-1.1
		c-0.1-0.2-0.1-0.4-0.2-0.5c-0.1,0.1-0.1,0.2-0.2,0.3l0.5,0.1L208.7,205.2L208.7,205.2z M207,202.5c0.1-0.1,0.2-0.1,0.2-0.2
		c0-0.1-0.1-0.1-0.1-0.2c-0.1,0.1-0.2,0.1-0.2,0.2C206.9,202.3,207,202.4,207,202.5z M145.7,222.1l-1.8,2.2l-1.1-0.1
		c0.1-1-0.2-2.3,0.2-3l13-20.4c0.5-0.9,0.8-1.9,1.2-2.8l-0.1,0.1l0.7-0.7l-0.1,0.1l0.7-0.7l0,0.1c1.3,0.2,2.7,0.3,3.9,0.8
		c0.4,0.2,0.5,1.8,0.2,2.5l-15.7,28.4l-2.5-1.4l2.1-4.2l0.9-1.6l2.8-4.5l-0.9-0.5l-2.6,4.3L145.7,222.1L145.7,222.1z M153.9,209.8
		l0.6-1l-0.4-0.2L153.9,209.8l-0.7,0.6l-1.6,2.3l-0.5,0.8l-1.2,2l0.7,0.3l1.1-1.9l0.4-0.9l1.4-2.6
		C153.6,210.3,153.8,210.1,153.9,209.8z M217.3,250l-0.5,3.7l-3.9-3.5l0.2,0.8l-6.7,2.2c-0.2-1-0.3-1.3-0.2-1.4
		c1.7-4.9,0-8.5-3.7-11.8c-1.3-1.1-1.7-3.4-2.1-5.3l-4.1-23.7c-0.1-0.3-0.2-0.7-0.1-1c0.2-0.8,0.6-1.6,0.9-2.4
		c0.5,0.7,1.4,1.2,1.6,2c0.8,4.3,1.5,8.6,2.2,13c0.5,3.2,1.2,6.5,1.5,9.7c0.3,3.8,1.9,6.8,4.8,9.3c1.2,1,2,2.7,3.1,4.2l1.8-1l0-0.1
		l1.3,1.3l0.7,0.7l0,0L217.3,250L217.3,250L217.3,250z"/>
	<path class="st8" d="M212.1,244.8c-7.5-7.3-8.5-17.2-10.4-26.7l-2.5-12.4c2-1.1,2.7-0.5,3,1.5c1.2,6.7,3,13.3,3.8,20
		c0.8,6.7,4.5,11.4,8.7,16.1c1.4,1.5,3,2.9,4.3,4.5c0.7,0.8,1,1.9,1.4,2.9l-3.2-0.9l0.1,0.1l-3.3-3.3l-0.7-0.7L212.1,244.8
		L212.1,244.8L212.1,244.8z M138.5,186.4l0.9-4.1l-3-1.4c5.2-2.2,9.8-4.4,14.6-6.1c0.8-0.3,2.3,1.8,4,3.1L138.5,186.4L138.5,186.4z
		 M214,197.2c0.2,0.8,0.3,1.7,0.8,2.3l9.5,14.1l-2,1.2l-14.1-19.1c-1.4-1.9-1-2.8,1.3-3l0-0.1l1.4,1.4l-0.1,0l1.3,1.3l0.7,0.7l0,0
		L214,197.2z M157.3,197.9l-9,10.3l-2.5,2.9l-1.1-0.3c0.3-1.4,0.3-3.2,1.1-4.2c3.8-4.5,7.8-8.9,11.8-13.2c0.6-0.7,1.7-1,2.6-1.5
		l0.4,0.8l-2,3.9l0-0.1l-0.7,0.7l0.1-0.1L157.3,197.9C157.2,197.9,157.3,197.9,157.3,197.9L157.3,197.9z"/>
	<path class="st8" d="M209.4,192.7l1.4-2.7l14.1,14.9c0.4,0.5,0.2,1.5,0.3,2.3l-1.3,0.7l-10-10.7l-1.4-1.4l0,0l-0.7-0.7l0,0
		l-1.4-1.4l0.1,0L209.4,192.7L209.4,192.7L209.4,192.7z"/>
</g>
<path class="st3" d="M157,190.7l-15.7,15.7c0.4-1.9,0.2-3.5,0.9-4.1c4.1-4,8.4-7.7,12.6-11.5c0.5-0.4,1.3-0.5,2-0.7L157,190.7
	L157,190.7z M151.9,168.4v4.3c-3.2,0.4-6.3,2.4-9.6,0.6C144.3,169.3,148.2,169.4,151.9,168.4z"/>
<g>
	<path class="st8" d="M225.4,189.7c-1.6,0.2-2.8,0.7-3.1,0.3c-2.5-2.5-6.5-3.9-7.6-7.6l1-1L225.4,189.7z M222.6,180.7
		c0.2,0.4,0.3,0.8,0.5,1.2l1.4,2.3c-0.9-0.1-2-0.1-2.8-0.5c-1.5-0.7-2.9-1.5-4.2-2.4c-0.6-0.5-0.9-1.5-1.3-2.2l0.8-0.4l4.3,1.4l0,0
		L222.6,180.7L222.6,180.7z"/>
	<path class="st8" d="M221.3,180.1c-1-0.9-2.2-1.6-3.1-2.6c-0.6-0.6-0.8-1.5-1.2-2.3l0.9-0.7l7.4,4.5l0,1l-2.8,0.6l0.1,0
		L221.3,180.1L221.3,180.1L221.3,180.1z"/>
</g>
<path class="st15" d="M165.8,192.7c0-0.1-0.1-0.2-0.2-0.2c0,0,0-0.1,0.1-0.1L165.8,192.7C165.7,192.7,165.8,192.7,165.8,192.7z"/>
<path class="st19" d="M348.2,231.8h11.5v28.4h-33.8c1.1,6.6-2.1,11.5-4.7,17.3c-2.8-5.8-5.8-10.8-4.9-17.3h-33.9v-28.4h35.2l0-1.1
	H294v-24.2h23.5l0-0.9h-14.9V184h15.1l0.1-1.4c-1.6-0.1-3.2-0.3-4.8-0.4c-1.9-0.1-3.7,0-5.9,0v-19.9h11.5l0.1-1.3l-7.2-0.5v-19.8
	h6.6c-0.5-1.2-0.6-2.2-1.1-2.8c-1.8-2.1-1.8-3.9,0.3-5.7c0.4-0.3,0.9-1,0.7-1.2c-1.8-4.2,2.2-6.5,3.1-9.9c1,3.5,4.9,6,3.1,10.2
	c-0.1,0.2,0.2,0.6,0.4,0.8c2.2,1.9,2,3.9,0.3,6c-0.4,0.5-0.4,1.4-0.6,2.4h6.2v19.9l-7,0.6l0,1h11.6V182l-11,0.5l0.1,1.3h15.3v21.6
	h-15.2l0,0.9h23.5v24.6h-23.4v1L348.2,231.8L348.2,231.8z M320.3,154.5l0-1.4l2.6-0.7l3.5-0.5c0.3,3,1.9,0.2,3,0.5l0.7-0.7l-2-3.3
	l-3.2-4l-1.2-0.4l-3.4-1.3c-0.2,0-0.5,0-0.7,0l-3.7-0.3c-0.5,1.8-1,3.3-1.3,4.7c-0.2,1-0.1,2.1-0.2,3.1c-1.2,2.9-1.5,5.7,0,8.6
	c2.1-0.8,5.5,0.8,5.7-3.1c0.2,3.3,2.4,2.6,4.6,2.4l0.6-3.3L320.3,154.5L320.3,154.5z M339.4,250.3l7.6-7.2l-7.9-7.3l-6.9,7
	L339.4,250.3L339.4,250.3z M302.1,249.3l7.3-6.2l-6.5-7.1l-7.9,6.9L302.1,249.3L302.1,249.3z M328.4,243l-7.4-7.7l-6.9,7.3l7.2,7.3
	L328.4,243z M329,215.9l4.8,5.8l4.7-6l-4.8-5.7L329,215.9L329,215.9z M325.8,215.9l-4.8-5.8l-4.7,5.8l4.8,6L325.8,215.9z
	 M303.6,215.8l4.7,5.9l4.7-5.9l-4.7-5.7L303.6,215.8z M349,244.4l-6.4,6.7h12.5L349,244.4z M305.7,251.1h12.7l-6.6-6.4L305.7,251.1z
	 M293.6,245.2l-6.6,5.9H299L293.6,245.2L293.6,245.2z M357.6,249.2V237l-6.4,5.7L357.6,249.2z M336.8,251.2l-6.2-6.4l-6.6,6.4H336.8
	z M336.3,234.5h-12.7l6.4,6L336.3,234.5L336.3,234.5z M299.4,234.4h-11.6l5.4,6.5L299.4,234.4z M355.5,234.3h-12.3l6,6.2
	L355.5,234.3z M318.5,234.4h-13.1l6.3,6.2L318.5,234.4z M284.7,249.4l6.3-6.6l-6.3-6.7V249.4L284.7,249.4z M327.5,214l3.9-5.2h-8.1
	L327.5,214z M316.9,173.8l2.9-4l-1.9-2.7c-0.3-0.5-0.5-1-0.8-1.5C313.5,169.7,313.5,169.7,316.9,173.8L316.9,173.8z M325.5,173.5
	l2.8-3.9l-2.9-4C322.5,168.3,321.8,170.8,325.5,173.5L325.5,173.5z M318.2,191.7l2.8,4.2c3.3-4.3,3.3-4.3,0-7.9L318.2,191.7z
	 M312.4,195.8c3.1-4.2,3.1-4.2-0.1-7.9l-2.7,3.9L312.4,195.8L312.4,195.8z M329.6,187.7l-2.8,3.9c0.5,0.8,0.9,1.4,1.3,2
	c0.5,0.6,1,1.2,1.6,1.9C332.8,191.7,332.8,191.7,329.6,187.7z M318.8,208.9h-8.1l4.1,5L318.8,208.9z M297.8,208.7l4.2,5.2l4-5.2
	H297.8z M345.6,220.6v-9.7l-3.9,4.9L345.6,220.6z M336,208.7l4.1,5.1l4.1-5.1H336z M344.3,222.8l-4.3-5l-3.9,5H344.3L344.3,222.8z
	 M306,222.7l-4-5.1l-3.9,5.1H306L306,222.7z M331.6,222.9l-4.1-5l-4,5H331.6L331.6,222.9z M314.9,217.8l-4,4.9h7.8L314.9,217.8z
	 M296.7,211.5v8.9l3.6-4.6L296.7,211.5z"/>
<path class="st10" d="M348.2,231.8h-23.7v-1h23.4L348.2,231.8z M294.1,230.7h23.4l0,1.1h-23.8L294.1,230.7L294.1,230.7z"/>
<path class="st14" d="M191.4,329.1l7.1-1.8c2.7,2.6,5.9,6.4,11.4,7.2c-0.7-3.1,0.1-4.3,3-3c0.7,0.3,1.5,0.1,2.3,0.3
	c5.7,1,5.7,1,9.3-2.9l-0.4,5.4h9c0.2-2.9,0.6-5.5,0.6-8c0-3.2-2.5-4.9-5-5.2c-1.4-0.2-3.1,2-4.7,3c-1.1,0.7-2.3,1.6-3.4,1.6
	c-1.8,0-3.5-0.2-4.4,1.9c-0.2,0.5-1.3,0.9-1.8,0.8c-2.7-0.7-6.1-0.9-7.8-2.7c-1.4-1.5,1.4-2.8,3.1-2.7c4.1,0.3,7.3-2,10.5-3.9
	c1.3-0.7,2.2-1.9,3.7-3.2c-2.8-1.5-5.1-2.9-7.6-3.9c-0.7-0.3-1.9,0.6-2.8,1c-1.2,0.6-2.3,1.2-3.6,2l-1.2-3.9c-0.3,0-0.6-0.1-0.7,0
	c-1.7,1.8-6,3.1-8.1,4.5c-3.1,2.1-7.5,2.6-9.2,7c-0.4,1.1-2.5,2.3-3.8,2.3c-3.3,0.1-6.5-0.5-10.4-0.9c0.2-0.3-0.2,0.1-0.4,0.5
	c-0.4,1-0.7,3-1.1,3c-1.9,0.1-4.1,0.2-5.7-0.6c-2-1-3.4-0.8-4.7,0.6c-3.1,3-6.8,4.6-11,5.2c-1.3,0.2-2.7-0.2-3.9,0.1
	c-1,0.3-1.8,1.3-2.6,1.9l0.5,1.1c1.4-0.4,2.9-1.1,4.3-1c1.5,0,3.1,0.7,4.6,1.1l0.1,0.9c-0.9,0.3-1.7,0.6-2.6,0.9
	c-1.1,0.3-2.4,0.4-3.4,1c-2.9,1.6-7.9-0.6-8.6-3.9c-0.6-2.6,0.7-3.9,3-4.5l9.6-2.1c2.1-0.5,4.2-1.1,6.2-2c3.3-1.5,6.4-3.3,10.3-3.6
	c2.7-0.2,5.2-1.8,8.5-3c-1.3-1.2-2.4-1.9-3.1-2.9c-0.9-1.2-2-2.7-1.9-4c0.1-0.9,1.9-1.8,3.1-2.6c0.7-0.5,1.5-0.8,2.3-1.2l0.6,0.5
	c-0.5,0.8-1.2,1.6-1.6,2.4c-0.3,0.7-0.6,2-0.3,2.3c1.7,1.6,3.6,3.2,5.6,4.2c0.9,0.5,3.3,0,3.6-0.7c1.5-3,3.6-3.8,6.5-2.5
	c2-3.7,1-6.5-1.5-9.5c-2.1-2.5-3.9-0.9-5.8-0.5c-1.9,0.4-3.6,1.4-5.3,2.2l-0.4-0.4c1.4-4.7,4.3-6.4,10.8-6.3
	c0.6-4.2,3.1-6.4,7.3-6.9c0.8-0.1,1.5-1.2,2.3-1.8c1.2-0.9,2.3-1.8,3.6-2.6c0.4-0.3,1.1-0.4,1.4-0.8c3.2-4.4,8.2-3.6,12.7-4.5
	c2.2-0.5,4.2-0.7,4.9-3.5c0.3-1,2.1-2.2,3.3-2.2c3.8-0.1,5.8-2.7,8.1-5c1.2-1.2,2.6-2.2,4.1-2.9c2.5-1.1,5.1-1.9,7.6-2.9
	c0.7-0.3,1.6-0.7,2.2-0.6c6.7,1.9,14.2,1.8,19.8,6.9c0.8,0.7,1.2,2,1.9,2.8c2.9,3.2,6.6,5.6,9.1,9.3c1.7,2.5,4.8,4,6.7,6.5
	c1.1,1.5,1.8,1.8,3.4,1.3c4.5-1.2,8.5-0.5,11.3,3.7c1.8,2.6,4.2,3.7,7.4,3.2c1.7-0.3,3.2-0.1,3.7,2c0.1,0.5,0.6,1,1.1,1.2
	c4.4,1.4,5.9,5.3,7.8,8.8c0.4,0.7,0.3,2-0.1,2.7c-0.4,0.6-1.5,1-2.4,1.1c-3.3,0.7-6.6,1.2-9.8,2c-0.7,0.2-1.3,1.3-1.7,1.9l7.1,2.8
	c0.5,0.2,1.2,0.1,1.8,0c3.9-1,7.7-2.2,11.6-2.9c2.2-0.4,4.1,0.5,4.6,3.1c0.4,2.2,1.5,2.7,3.8,2c2.6-0.9,4.9-0.4,6.2,2.6
	c0.5,1,1.8,1.8,2.9,2.4c2.6,1.4,5.5,2.4,7.9,4c1,0.6,1.9,2.6,1.6,3.6c-0.3,1-2.1,1.6-3.4,2.1c-1.1,0.4-2.4,0.3-3.7,0.4l0.5,4.3
	l-10.4-0.6v15.4l-1.3,0.2c-0.6-2.5-1.5-4.9-1.7-7.4c-0.3-4-3.4-3.3-5.7-3.5c-2.9-0.3-3.2,2.3-3.1,4.1c0.2,3.9,1,7.7,1.4,11.5
	c0.1,1.3-0.3,2.7-0.6,4.9c-2.6-5.4-5.5-9.8-2.5-15.4c-1.6,0.2-2.5,0-2.8,0.4c-1.9,2.3-4.1,2.2-6.8,1.6c-2.5-0.5-6.6,5.9-6.1,8.7
	c0.2,1.3,0.4,2.6,0.1,4c-2.4-1.9-2.6-4.4-2.6-7c0.1-4.1-2.1-7.3-4.7-9.8c-2.3-2.2-4.8-0.7-4.9,2.7c-0.1,3.2,0.6,6.3,0.7,9.5
	c0,1.5-0.6,3-0.9,4.5c-0.2,1.4-0.4,2.9-0.6,4.4c-2.1,0.9-2.5-0.3-2.4-2l0.4-13.5c0-1.1-0.5-2.8-1.3-3.2c-1.3-0.7-3-0.5-4.6-0.7
	c-0.1,1.4-0.4,2.7-0.4,4.1c0,1.3,0.7,3.5,0.2,3.7c-2.9,1.6-1.6,3.7-1.3,5.8c0.1,0.6-0.4,1.3-0.7,1.9c-1.1-1.8-1.7-3.5-1.8-5.3
	c-0.2-3.1,0.1-6.2-0.1-9.2c-0.1-1.3-0.9-2.6-1.4-4l-1.5,0.4l1.2,17.3l-1.2,0.2c-1.4-3.9-2.4-7.9-2.8-12.2c-0.6,2-0.8,4-0.8,6
	c0,2,0,4,0,5.9l-1.4,0.1c-0.3-3.3-1.1-6.6-0.8-9.8c0.3-3.2,1.7-6.3,2.5-9.5c1.3-4.7-0.3-6.3-4.9-5.7l0,24.3c0,0.9-0.5,1.8-0.7,2.6
	l-1.1-0.3l-1.1-26.3c-2.8,1.4-4,2.6-4,5.3c0,5.9,0.1,11.8,0.6,17.7c0.1,1.4,1.6,3,2.9,3.8c6.1,3.8,13.3,2.7,19.9,3.7
	c2.2,0.3,4.6-0.3,6.8-0.5h17.1l0.1,1.3c-0.6,0.2-1.2,0.6-1.8,0.7c-2.8,0.8-5.5,1.7-8.3,2.3c-1.1,0.2-2.3-0.2-3.4-0.3
	c-2.1-0.2-4.1-0.4-6.3-0.1l6.1,1.7c-5.2,2.2-9.7,1.8-14.3,0.4c-2.4-0.7-4.9-1-7.4-1.5l-0.5,1.7l10.8,4.3c-3.6,0.9-7.2,0.4-10.8-1.4
	c-2.5-1.3-5.3-2.2-8-2.5c-6.8-0.7-10.5-4.9-13.2-10.6c-0.2-0.4-0.5-0.9-0.3-1.2c3.7-8-0.6-15.9-0.1-23.8c0.1-2.3,0.3-4.6,0.3-6.8
	c0-1.6-0.6-3.1-0.8-4.6c-0.3-1.9-0.4-3.9-0.7-6.2l-2.9,2.4c-0.3-4.6-5.3-7.5-2.8-12.9l3.4,7.4c3.5-2.9,2.9-6.6,2.7-10.2
	c0-0.3-0.2-0.8-0.4-0.9c-4.5-2-4.9-6.7-7.1-10.2c-0.4-0.6-0.7-1.4-1-2.1l-1.6,0.7c-0.3,3.8-0.9,7.7-0.7,11.5
	c0.3,3.9,1.4,7.8,1.5,11.9l-5.1-7.5c-3.1-4.4-7.7-6.6-12.7-8.2c-0.7-0.2-1.6-0.1-2.2-0.6c-3.7-3.1-8.2-3.6-12.6-4.3
	c-3.5-0.6-5.4-3.2-7.3-5.7c-0.4-0.5-0.1-2.1,0.4-2.7c0.5-0.5,2-0.8,2.6-0.4c1.3,0.9,2.3,2.2,3.3,3.5c1.1,1.5,2,3.2,4.4,2
	c0.6-0.3,1.8,0.6,2.7,0.7c2.1,0.4,4.5,1.3,4.9-2.3c0-0.5,1.2-1.4,1.4-1.3c0.7,0.4,1.6,1.1,1.8,1.8c0.3,1,0.1,2.3,0.1,3.4l1.2,0.1
	l1-5.1l2.9,2c0.2-0.3,0.4-0.5,0.4-0.6c0-1.4-0.1-2.8-0.2-4.1c1.6,0,3.2-0.3,4.7,0.1c1.6,0.5,1.7,1.9,1.6,3.7
	c-0.2,2.5,0.8,5.2,1.3,7.8l1.2-0.1c0.3-2.8,0.7-5.7,0.8-8.5c0.1-4.7,1.3-6.3,5.9-6.9c2.5-0.3,5.3,0.1,7.6-0.9c2.3-1,4.2-3.3,6.1-5.1
	c0.2-0.1-0.4-1.3-0.9-1.8c-0.7-0.6-1.6-1-3.1-1.9l5.8-2.5l-3.8-3.1l4.1-1.9c-2.2-1.2-3.7-2.2-5.3-2.8c-2-0.7-4.2-1.3-6.3-1.3
	c-2.2,0-4.4,0.7-6.6,1.2c-1,0.2-2.1,0.7-3.1,0.7c-4,0-6.5,1.4-7.8,5.1c-1,2.8-2.6,4.3-5.7,3.5c-3-0.8-3.9,1.3-4.1,3.4
	c-0.3,3.2-2.2,3.6-4.7,3.5c-4.7-0.2-8.9,0.2-13.4,2.5c-3.5,1.8-5.1,3.9-5.7,6.1c-2.5,1.5-4.5,2.3-5.8,3.6c-0.6,0.6-0.3,3.2,0.3,3.5
	c1.4,0.8,3.2,0.6,5.3,0.9l-0.8-4.5c4.3-0.5,4.4,3.9,7,5.1l-0.3,1c-1,0-2.1-0.3-3,0.1c-0.9,0.4-1.8,1.2-2.3,2c-0.2,0.4,0.6,1.8,1.1,2
	c0.8,0.2,1.8-0.3,2.7-0.5c1.4-0.4,2.7-0.9,4.1-1.2c4.5-1.1,8.7,0,12.5,2.3c4.2,2.5,8.9,4.6,12.2,8c3.7,3.9,4.7,9.4,4.9,14.8
	c0.2,8.5,0.3,8.3-7.9,7c-6.5-1.1-13-1.7-19.6-2.4c-1.1-0.1-2.3,0.4-3.5,0.7c-3-0.4-6.6-0.6-7.8-3.5c-1.5-3.7-4.1-4.3-7.4-4.7
	C192.8,330.9,192.1,329.8,191.4,329.1L191.4,329.1z M294.8,295.7c-2.1,1-3.5,1.7-5,2.3c-0.7,0.3-1.9,0.7-2.2,0.4
	c-3-2.8-5-1.3-7.2,1.1c-1.1,1.2-2.6,2-4,2.8c-0.5,0.3-1.3,0.6-1.8,0.4c-3.1-1.4-6.1-0.8-8.4,1.5c-1.5,1.5-3.1,2.8-0.7,5.2
	c0.9-0.5,1.8-1.3,2.9-1.7c2.1-0.7,4.3-1.5,6.5-1.5c1.1,0,2.5,1.6,3.1,2.8c0.4,0.8-0.2,2.8-0.9,3.1c-2,0.9-4.4,1.7-6.6,1.8
	c-1.6,0-3.4-2.1-4.7-1.8c-1.5,0.4-3,2.3-3.8,3.9c-1.9,3.4-3.4,7.1-5,10.7c0,0.1,0,0.2,0.1,0.3c2.2,2.5,2,5.3,1.7,8.4
	c-0.2,1.9,0.5,3.9,0.9,5.8c-0.4-4.9,2.4-9.9-0.8-14.6c-0.4-0.5,0-1.7,0.3-2.5c0.4-1.2,1.2-2.3,1.6-3.6c0.7-2.1,1.9-2,2.7-1.5
	l1.2,6.6l5.8-1.3c1.4,1.4,2.8,3.9,3.9,3.8c1.6-0.2,2.9-2.4,4.4-3.7c0.6-0.5,1.7-1.4,2-1.2c3.1,1.8,6.3,2.6,9.9,1.8
	c0.1,0,0.2,0.2,0.3,0.2l3-0.1c-0.3-1-0.4-2-0.8-2.9c-0.8-1.4-1.8-2.7-2.7-4.1l1-1.2c1.4,0.7,3.1,1.2,4.2,2.3c3,3,5.1,3.1,7.6,0.4
	c3.2-3.4,5.3-8.3,11-8.8c0.4,0,0.8-0.7,1.1-1c-5.2-8.2-13.9-7.2-19.7-1.2c-1.9,2-3.2,1.7-5,0.4c-2.3-1.7-0.9-3.3,0.4-4.3
	c1.1-0.9,2.7-1.5,4.1-1.6c2.1-0.1,3.1-0.9,3.9-3.3h-6.5c0.6-1,0.9-1.4,1.1-1.8S294.3,297,294.8,295.7L294.8,295.7z M328.9,344.8
	l3-6.2c2.9-0.5,6.1-3.9,9.5-0.3c0.2,0.2,0.8-0.1,1.2-0.1v-4.6c-1.8-0.9-3.8-2.1-4-3.5c-0.3-2.8-1.7-2.8-3-1.6
	c-1.9,1.7-4,1.6-6.1,2.3c-2.4,0.8-3.4-0.4-4.1-2.4c0.8-0.5,1.5-0.8,2-1.3c0.8-0.7,1.4-1.6,2-2.4c-1.1,0-2.3,0-3.4,0.2
	c-1.1,0.1-2.5,0.9-3.1,0.5c-2.3-1.5-3.8-1.3-4.9,1.3c-0.2,0.5-1.3,1-1.5,0.9c-3.4-2.5-7.2-1.2-10.8-1.5c-2.5-0.2-8,2-8.8,4.6
	c-0.8,2.5-1.5,5.1-2.4,7.5c-0.2,0.6-0.8,1.2-1.4,1.6c-1,0.6-2,1.1-3,1.6l-6,3l7.9,6.5c1.3-3.9,1.3-3.9,5.4-1.8
	c1.7-4.5,2.7-5,7.1-3.4l-0.6,4.9c5.6-2.4,2.6,3.4,5.5,4.9l3.1-7l6.9,0.5c0.9-2.6,1.4-5.6,2-5.7C323.4,343,325.7,344,328.9,344.8z
	 M290.5,329.9c-4.4,2.8-5.7-1.3-8.2-3.2c-1.9,1.8-3.4,3.9-5.5,4.9c-2.2,1.1-4.7,0.6-5.3-2l-4.5,1.2c-1.1,0.3-3.1,0.4-3.2,0.9
	c-0.4,1.8-0.1,3.8-0.1,5.7c1.5-0.1,3.1,0,4.6-0.3c1.3-0.3,2.7-1.7,3.8-1.4c3.7,0.8,7.3,2.1,10.8,3.2l6.3-4L290.5,329.9L290.5,329.9z
	 M265.9,293.2c0.6-5,1-5.2,5.3-4.2c0.6,0.1,1.4,0.3,1.9,0.1c0.8-0.4,1.7-1,1.9-1.7c0.3-0.9,0.4-2.6-0.2-3c-2.2-1.6-4.6-2.9-7.2-4.5
	c0.2,3-5.7,4-2.1,7.5c-1.7,2.7-6,2.7-5.9,6.6C262.5,297.2,263.6,292.4,265.9,293.2z M278.4,289c-1.9,1.1-4.3,1.7-5.6,3.2
	c-1.5,1.8-2.6,3.4-5.3,3.6c-0.8,0.1-1.5,2.5-2.1,4c-0.1,0.3,0.8,1.5,0.8,1.5c1.9-1,4.7-1.7,5.5-3.3c1.4-3.2,2.8-4.4,6.2-3.3
	c1,0.3,2.1,0.8,3.1,0.8c0.9-0.1,2.2-0.7,2.3-1.3c0.2-0.9-0.3-2.2-1-2.8C281.3,290.4,279.9,289.9,278.4,289L278.4,289z M264.1,340.7
	l-0.8-0.7c-0.2,0.8-0.4,1.7-0.4,2.5c0,1,0.1,2,0.1,2.9c0.9-0.4,1.9-0.7,2.7-1.1c2.2-1.1,4.2-2.6,6.4-3.5c1.5-0.6,3.3-0.5,5.1-0.7
	c-1.7-2.3-5.3-3.8-6.8-2.9C268.4,338.5,266.3,339.6,264.1,340.7L264.1,340.7z M257.3,311.3c3.7-4.3-1.6-9.8,4.3-12.9
	c-6.2,0.9-6.2,0.9-5.9,5.9c0,1-0.2,2,0,3C255.9,308.4,256.6,309.6,257.3,311.3z M238.9,309.9l0.7-0.3c-0.9-2-1.4-5-2.9-5.6
	c-1.9-0.8-4.5,0.5-6.8,0.9l0.2,0.7L238.9,309.9L238.9,309.9z M263.1,371.3c-1.1,2-1.4,3.7,1.5,4.3c0.8,0.2,1.5,0.8,2.1,1.4
	c2.1,2,3,2.3,5.6,1.4L263.1,371.3L263.1,371.3z M261,365.4c0.8-3.6,3.3-7.4-0.8-11L261,365.4z"/>
<path class="st19" d="M208.7,339.7c4.8,2.7,10.4,1,15.4,2.8c4.3,1.5,8.5,3.4,12.6,5.3c0.7,0.3,1.4,1.5,1.5,2.4
	c0.8,5.6,1.7,11,0.1,16.9c-1.5,5.7-5.8,7.5-9.8,10.1c-1.3,0.8-3.6,0.4-5.3,0c-5.2-1.1-10.1-2.7-15.6-0.3c-4,1.7-8.5,2-12.9,0.1
	c-1.2-0.5-2.7-0.5-4.1-0.8l-0.1-0.9c1.6-0.1,3.4-0.7,4.9-0.2c5.3,1.8,9.1,1.6,13.7-1.2c-2.5-6.9,0.9-13.4,1.6-20.2
	c-0.9-0.1-1.5-0.3-1.8-0.1c-1.9,1.7-4.2,3.2-5.3,5.3c-0.9,1.7-0.5,4.2-0.4,6.3c0.1,2.3,0.5,4.5,0.8,6.8l-1,0.1l-0.9-5.2
	c-0.3-1.7-0.8-3.4-1.6-5.1c-2.2,3.9-0.8,8.7-2.2,12.8l-1.1,0l0-9.8c-0.1-3.2,1.5-6.7-2-10.1c-1.7,4.8-4.4,7.7-8.9,6.8l-2.8,7.2
	c-0.7-0.7-0.9-0.9-0.9-1c0-4.4-1.3-7.8-5.8-9.5c-0.5-0.2-0.4-3.2,0.2-4.4c1.2-2.4,3-4.4,4.7-6.7c-5.1-0.1-8.9,3.3-8.9,7.9l0,8.4
	l-0.8,0.4c-0.4-1.2-1.1-2.3-1.2-3.5c-0.1-2.5,0.2-5,0.3-7.6c0.1-2.6-1.6-3.6-3.5-2.9c-3.5,1.4-4.8-0.6-6-3.2c-4,0.2-3.9,0.4-3,4.2
	c0.5,2.1,0.3,4.3,0.4,6.5l-1.7,0.5c2-7-3.2-10.6-6.5-15.2l1.5-2c0.4-0.1,0.5-0.2,0.6-0.2c3,2.6,6.2-0.1,9.3,0.3
	c4,0.5,7.7,0.5,10.3-3.2c1.6,3-0.1,4.5-7.1,6.3c1.9,1.2,3,2.2,4.2,2.6c2,0.6,4.2,1.6,6.1-0.6c1.2-1.4,2.6-2.5,4.5-4.3l0.4-3.3
	c4.5-0.4,8,5.5,13.5,1.1l-4.5-2.2c-1.6-0.7-3.5-1.1-4.9-2.2c-3.2-2.7-4.8-2.9-8.5-0.7c-1.1,0.7-2.3,1.2-4,2.1
	c1.7-5.8,11.5-9,17.9-6.7l0.1,0.8c-1,3.6,2.1,4.8,6.7,5c1.7,3.4,3.4,6.7,0.3,10.3L208.7,339.7L208.7,339.7z M232,371.5
	c-3.1-3.2-5.9-6.6-4.5-11.7c0.2-0.7-1.7-2-2.7-3.1c-0.7,1.2-1.5,2.4-2.1,3.7c-0.2,0.5,0.2,1.3,0.2,1.9l0,10.2l-1.3,0.1
	c-2.9-3.4,0.6-8-2.3-12.1l-1.1,11.3l-2.6-17.1c-0.1-0.7-0.9-1.3-1.4-2c-0.5,0.7-1.3,1.4-1.5,2.2c-0.5,2.2-0.6,4.5-1,6.8l-2.1,10.6
	c4.7,0.7,8.9,0.8,12.9,2C226.5,375.7,229.2,374.5,232,371.5L232,371.5z M179.3,357.7c0.7,0.2,1.2,0.3,1.7,0.4c3.6,1.3,5.9,0.4,8-2.7
	c1.2-1.7,2.2-4,5.1-2.6c0.6,0.3,1.7-0.8,2.9-1.5C185.1,347,180.2,351.3,179.3,357.7L179.3,357.7z M202.6,353.5c2.5-1.4,5-2.5,7-4
	c0.9-0.7,0.9-2.6,1.4-3.9c-1.1-0.3-2.2-0.8-3.3-0.8c-3.8-0.2-5,3.2-7.3,5.4L202.6,353.5L202.6,353.5z M222.2,349.1l5.9,3.1V347
	c-1-0.4-2-0.9-3-1.3c-1.1-0.4-2.3-0.8-3.5-1.1c-0.6-0.1-1.4-0.1-1.8,0.2c-1.2,0.9-1.5,7-0.4,8.1c0.3,0.3,1,0.6,1.4,0.5
	c0.4-0.1,0.9-0.6,1-1C222.1,351.2,222.1,350.1,222.2,349.1L222.2,349.1z M233,353.6v16.1C236.6,366.8,237.1,358,233,353.6z
	 M190.8,346.2c-2.8-2.8-5.1-2.5-7.6,0H190.8z"/>
<path class="st13" d="M296.5,373.9c-2.3,0.2-4.6,0.8-6.8,0.5c-6.7-1-13.8,0.1-19.9-3.7c-1.3-0.8-2.8-2.4-2.9-3.8
	c-0.5-5.9-0.6-11.8-0.6-17.7c0-2.7,1.2-3.9,4-5.3l1.1,26.3l1.1,0.3c0.3-0.9,0.7-1.7,0.7-2.6l0-24.3c4.6-0.6,6.2,1,4.9,5.7
	c-0.9,3.2-2.2,6.3-2.5,9.5c-0.3,3.2,0.5,6.5,0.8,9.8l1.4-0.1l0-5.9c0-2,0.2-4,0.8-6c0.5,4.2,1.4,8.3,2.8,12.2l1.2-0.2l-1.2-17.3
	l1.5-0.4c0.5,1.3,1.4,2.6,1.4,4c0.2,3.1,0,6.1,0.1,9.2c0.1,1.8,0.7,3.6,1.8,5.3c0.2-0.6,0.7-1.3,0.7-1.9c-0.2-2.1-1.6-4.3,1.3-5.8
	c0.5-0.2-0.2-2.4-0.2-3.7c0-1.4,0.2-2.7,0.4-4.1c1.5,0.2,3.3,0,4.6,0.7c0.8,0.4,1.3,2.1,1.3,3.2c0,4.5-0.2,9-0.4,13.5
	c-0.1,1.7,0.3,3,2.4,2L296.5,373.9L296.5,373.9z"/>
<path class="st8" d="M245.5,329.8l-2,12.6c-0.3,0-0.7,0-1,0c-1.4-5.3-1.3-10.8-1.3-16.2c1.4,0.2,2.6,0.8,3.4,0.5
	c3-1.2,4.4,0.4,5.1,2.9c1,3.6,1.9,7.3,2.5,11c0.2,1.1-0.4,2.6-1.1,3.6c-1.5,2.1-2.2,4.1,0,6.1c0.2,0.1,0.4,0.3,0.4,0.5
	c1.1,6.4,3,12.7,2.5,19.2c-0.1,1-0.8,2-1.2,3c1.6,3,3.4,5.7,7.1,6.4c0.9,0.2,1.9,1.2,2.3,2.1c1.6,2.9,3.9,3.8,7,3.8
	c2.5,0,5,0.8,7.4,1.7c-5.3-0.1-11,0.8-15.4-2.8c-2.6-2.2-5.2-3.7-8.5-4.5c-4.1-1-5.9-5.3-3.9-10.2c1.7-4.4,1.8-8.7,1.2-13.4
	c-0.5-4.7-1.9-9.1-3-13.7c-0.3-1.2-0.6-3,0.1-3.8C249.9,335.2,247.5,333.1,245.5,329.8L245.5,329.8z M245.6,349.2
	c0.3,0.3,0.9,0.6,0.9,0.8c-1,7.2,2.1,14.4-0.7,21.5c-0.4,0.9-0.6,2-1.2,2.6c-3.1,2.6-6.4,5.1-9.6,7.6c-0.4,0.3-1.1,0.4-1.4,0.7
	c-3.2,3.8-7.2,3.9-11.7,2.7c-2-0.5-4.3,0.3-6.4,0.4c-0.4,0-0.8-0.2-1.2-0.3l-0.2-0.9c1.9-0.6,3.8-1.4,5.8-1.7
	c1.6-0.3,3.3-0.1,4.9-0.1c7.8,0.3,13.3-4.2,17.2-9.9c2-2.9,1.7-7.5,2-11.3c0.4-4,0.3-8.1,0.4-12.1L245.6,349.2L245.6,349.2z"/>
<path class="st13" d="M208.7,339.7l-11.4,5.9c3.1-3.6,1.5-6.9-0.3-10.3c-4.6-0.2-7.7-1.4-6.7-5l0.3-0.9c0.2,0,0.5-0.1,0.7-0.2
	c0.7,0.6,1.3,1.7,2.1,1.8c3.3,0.3,5.9,1,7.4,4.7c1.2,3,4.8,3.2,7.8,3.5C208.7,339.3,208.7,339.5,208.7,339.7L208.7,339.7z"/>
<path class="st8" d="M231.6,386.4c4.9-2.5,9.5-5.1,14.3-7.3c0.8-0.4,3,0.8,3.5,1.7c1.5,3.1,4,3.4,6.9,3c3.3-0.4,4.9,1.9,6.4,4.7
	c-1-0.3-1.9-0.6-2.8-0.9c-2.1-0.6-4.3-1.4-6.5-1.6c-2.2-0.2-3.9-0.1-4.6-2.9c-0.6-2.2-2.1-1.2-3.8-0.4c-4,1.9-8.2,3.1-12.3,4.6
	C232.5,387.4,232,386.7,231.6,386.4L231.6,386.4z"/>
<path class="st15" d="M255.7,279.5c-2.2,2.7-3.6,3.3-5.8,1.9c-2.7-1.7-5.4-1.2-7.6,1.2c-2,2.1-4,1.6-6.2,0l2-3.8l0.4,0.9
	c2.5-0.5,5-1.4,7.6-1.4C249,278.3,252,279,255.7,279.5L255.7,279.5z"/>
<path class="st8" d="M206.5,382.2c5.7-5.8,12.3-4.2,18.7-2.5c-1.8,1.2-6.6,1.8-9.7,0.7c-2.1-0.8-3.7-0.5-5.5,0.8
	C209.1,381.8,207.7,381.8,206.5,382.2z M164.9,331.7c0.9,0.6,1.9,1,2.6,1.8c0.6,0.7,0.9,1.7,1.3,2.6c-1,0.2-1.9,0.6-2.9,0.7
	c-1.2,0-2.4-0.2-3.6-0.4c-0.6-0.1-1.1-0.5-1.6-0.7c0.2-0.5,0.4-1.2,0.8-1.5C162.6,333.3,163.7,332.5,164.9,331.7L164.9,331.7z
	 M234.8,288l7.9,0.5c0.2,0,0.7,2.3,0.3,2.7C241.3,293.1,235.9,291.2,234.8,288L234.8,288z M228.9,291.7l-6.6,1.4
	c-1.1,0.1-2.3-0.3-3.5-0.8C224.2,288.7,226.9,288.8,228.9,291.7L228.9,291.7z M208.9,321.4l-5.2-0.4l-0.3-1.4
	c1.4-0.6,2.8-1.5,4.2-1.6c0.7,0,1.4,1.6,2.1,2.4L208.9,321.4z M220,297.9c-2.2,2.7-3.9,1.3-5.8-0.4
	C216.4,295.4,218.1,296.1,220,297.9z M196.3,322.4c2.7-3.3,4.5-1.2,6.7,0.4C200.5,325.2,198.7,322.8,196.3,322.4z M257.6,278.3
	l-3.2-2.1l2-2.2l2.3,3.1L257.6,278.3z"/>
<g>
	<path class="st14" d="M180,309l1-1l0.3,0.3l-0.8,1.2L180,309z"/>
	<path class="st14" d="M180.9,308l0.4-0.9l0.4,0.4l-0.5,0.8L180.9,308z M190.7,329.3l-0.3,0.9l-0.1-0.8
		C190.4,329.5,190.6,329.4,190.7,329.3L190.7,329.3z"/>
</g>
<path class="st18" d="M181.4,187.5l-5.1-7.9c-0.3-0.5-0.6-1.2-0.6-1.8c-0.2-11.9,1-23.6,5.7-35.7L181.4,187.5L181.4,187.5z
	 M185.7,143.9c4.2,10.9,6.4,22.2,5.8,33.9c0,0.5-0.1,1.1-0.4,1.5l-5.4,8V143.9z"/>
<path class="st13" d="M188.6,142.7l-5-8.6l-5.6,10l-0.7-0.3l5.6-19.2h1.3l5.4,17.6L188.6,142.7z M180.5,247.5
	c-2.6-2.2-2.9-14.5-0.6-17.1C183.2,232.7,183.6,243.6,180.5,247.5z M180.5,209.1l2-14.1l1.1,0.1c2.5,4.5,3.2,9.2,2.3,14L180.5,209.1
	L180.5,209.1z"/>
<path class="st18" d="M187.2,230.3c1.9,2.9,1.5,15.2-0.4,17.1C183.9,244.5,184,232.8,187.2,230.3z"/>
<path class="st9" d="M209,163.2c0.7,8-1,15.4-5.3,22.2c-0.5-0.3-0.7-0.3-0.8-0.5c-0.6-0.8-1.1-1.6-1.8-2.7
	C206.1,177,208,170.3,209,163.2L209,163.2z"/>
<path class="st7" d="M170.7,178.3c7.1,6,10.5,14.9,7.6,21.4c-0.1-1-0.4-2-0.3-3c0.2-5.5-1.6-10.2-6-13.5
	C169.9,181.7,169.6,180.3,170.7,178.3z"/>
<path class="st9" d="M158.4,168.5l7.1,14.4l-1.8,2.8C160.1,180.2,158.3,174.6,158.4,168.5z M197.3,179c-0.6,1.3-0.8,3-1.7,3.8
	c-4.8,3.8-6.8,8.7-6.4,14.6c0,0.8-0.1,1.5-0.3,3c-3.1-6,0.7-16.1,7.4-21.8L197.3,179L197.3,179z"/>
<path class="st13" d="M197.1,197.5c-0.4,1.2-0.7,2.5-1.3,3.6l-4.6,6.9c-0.3,0.4-0.8,0.6-1.2,0.9c-0.3-0.5-0.9-0.9-1-1.4
	c-0.7-3,0.9-6.7,3.7-8.5c1.2-0.8,2.5-1.3,3.7-2L197.1,197.5L197.1,197.5z M170.8,197.4c5.1,1.9,7.8,5.2,7.4,9.2
	c-0.1,0.9-0.7,1.7-1.1,2.5l-1.5-2c-1.2-1.7-2.4-3.3-3.5-5c-0.9-1.3-1.6-2.7-2.4-4.1C170.2,197.7,170.5,197.6,170.8,197.4
	L170.8,197.4z M183.8,257.2c1.5,0,3.1-0.1,4.6,0.1c0.6,0.1,1.2,0.9,1.8,1.3c-0.5,0.4-1,1.2-1.6,1.2c-3.4,0.1-6.8,0.1-10.1,0
	c-0.5,0-1-0.9-1.4-1.3c0.5-0.4,1-1.1,1.6-1.2C180.3,257.1,182.1,257.2,183.8,257.2L183.8,257.2z"/>
<path class="st7" d="M206.2,167l-5.7,11.9l-1.3-0.6c0.5-4.6,5.5-7.2,5.7-11.9L206.2,167z M162.2,167.7l6.1,10.3l-1.5,0.8l-5.4-10.6
	L162.2,167.7L162.2,167.7z"/>
<path class="st9" d="M186.8,219.6c-1.6,1-2.6,2.1-3.4,2c-0.9-0.2-1.5-1.4-2.3-2.2c0.8-0.7,1.6-2,2.5-2
	C184.3,217.2,185.2,218.5,186.8,219.6z M184,248.1c0.4,1.3,0.9,2.5,1,3.8c0,0.7-0.9,1.4-1.3,2c-0.6-0.7-1.7-1.4-1.7-2.1
	c0-1.3,0.7-2.5,1.1-3.8L184,248.1z"/>
<path class="st7" d="M173.5,189.5l-6.4-4c0.6-1.3,1.7-2.1,3.3-0.5c1.3,1.3,2.3,2.8,3.5,4.2C173.7,189.3,173.6,189.4,173.5,189.5z"/>
<path class="st9" d="M179.3,270.1l1.7-2.4l0.3,0.9c1.3-0.1,2.6-0.4,3.9-0.3c0.8,0,1.5,0.6,2.2,0.9l-0.3,0.9L179.3,270.1L179.3,270.1
	z"/>
<path class="st7" d="M181,272.6l4.5,0.5l-0.9,3.8l-0.9,0.1L181,272.6L181,272.6z M194.3,187.7c1.6-1.6,2.7-4.9,6.3-2l-5.6,2.4
	L194.3,187.7z"/>
<path class="st13" d="M185.4,214.8H181l2.2-3.1l2.8,2.2L185.4,214.8L185.4,214.8z"/>
<path class="st20" d="M183.8,230.7l-2.5-3.7l0.4-0.9l3.7,0.6L183.8,230.7L183.8,230.7z"/>
<g>
	<path class="st7" d="M192.9,190.7l-0.6,5.8l-1.1-0.2L192.9,190.7L192.9,190.7L192.9,190.7z M174.7,196.5l-0.3-4.9l0.6-0.1l0.8,5
		L174.7,196.5L174.7,196.5z"/>
	<path class="st7" d="M194.3,188.8l-1.4,1.9l-0.1-0.1l1-2.4L194.3,188.8L194.3,188.8z M161.6,165.8c0.1,0.2,0.2,0.4,0.2,0.6
		c0,0.1-0.2,0.2-0.3,0.3c-0.1-0.2-0.2-0.4-0.2-0.5C161.3,166.1,161.5,166,161.6,165.8z"/>
	<path class="st7" d="M173.9,189.2l0.6,1.1l-0.4,0.2l-0.6-1L173.9,189.2L173.9,189.2z M195,188.1l-0.7,0.6l-0.5-0.6l0.4-0.5
		L195,188.1L195,188.1z"/>
</g>
<path class="st9" d="M155.1,244.5c0.7-4.1,1.4-8.2,2.3-12.2c0.2-0.7,1.3-1.2,1.9-1.8c0.2,0.2,0.5,0.5,0.7,0.7l-3.4,12.6
	c-0.1,0.4-0.9,0.7-1.3,1L155.1,244.5L155.1,244.5z"/>
<path class="st16" d="M152.3,249.7l-0.8,1.2l-0.6-0.5l0.9-1.1L152.3,249.7z"/>
<path class="st9" d="M154.8,245.6l-0.5,1l-0.4-0.2l0.6-1.1L154.8,245.6z"/>
<path class="st16" d="M152.3,248.4l0.7-1l0.4,0.3l-0.7,1.1L152.3,248.4L152.3,248.4z M160,227.7l-0.4,0.3l0-0.8L160,227.7z
	 M151.8,249.2l0.5-0.8l0.3,0.4l-0.4,0.9L151.8,249.2L151.8,249.2z"/>
<path class="st9" d="M155.3,244.8l-0.5,0.8l-0.3-0.3l0.6-0.8L155.3,244.8L155.3,244.8z"/>
<path class="st16" d="M153.7,235.3l0.5-0.1l-0.2,0.5L153.7,235.3z M217.5,228.8l-5.5-10.3c-0.2-0.4,0.3-1.1,0.4-1.6l1.1,0.2
	l4.8,10.9L217.5,228.8z"/>
<path class="st7" d="M213.5,217.1l-1.1-0.2l2.2-1.1l-2.7-5.1l0.6-0.5l4.3,6.2L213.5,217.1z"/>
<path class="st16" d="M219.8,233l-2.3-4.2l0.8-0.8l2.1,4.5L219.8,233L219.8,233z"/>
<g>
	<path class="st7" d="M211.9,210.6l-1.3-1.9l0.5-0.4l1.3,1.8L211.9,210.6L211.9,210.6z M209.9,207.3l-0.7-1.2l0.3-0.3l0.8,1.2
		L209.9,207.3z"/>
	<path class="st7" d="M208,203.9l0.8,1.1l-0.2,0.2L208,203.9L208,203.9z M210.3,206.9l0.2,0.9l-0.6-0.6L210.3,206.9z"/>
	<path class="st7" d="M209.2,206.1l-0.5-0.9l0.2-0.2l0.6,0.7L209.2,206.1z M208.1,203.8l-0.5-0.1l0.2-0.3L208.1,203.8L208.1,203.8z
		 M207,202.5c0-0.1-0.1-0.2-0.1-0.2c0-0.1,0.1-0.1,0.2-0.2c0,0.1,0.1,0.2,0.1,0.2C207.2,202.3,207.1,202.4,207,202.5z M146.8,220.4
		l2.6-4.3l0.9,0.5l-2.8,4.5L146.8,220.4z M151.6,212.7l1.6-2.3l0.2,0.2l-1.4,2.6L151.6,212.7L151.6,212.7z"/>
</g>
<path class="st16" d="M146.8,220.4l0.7,0.8l-0.9,1.6l-0.8-0.7L146.8,220.4L146.8,220.4z"/>
<g>
	<path class="st7" d="M151.6,214.1l-1.1,1.9l-0.7-0.3l1.2-2L151.6,214.1L151.6,214.1z M153.9,209.7l0.2-1.1l0.4,0.2L153.9,209.7
		C153.9,209.8,153.9,209.7,153.9,209.7z"/>
	<path class="st7" d="M151.1,213.6l0.5-0.8c0.2,0.1,0.3,0.3,0.4,0.4l-0.4,0.9L151.1,213.6z M153.9,209.8l-0.5,0.9l-0.2-0.2
		L153.9,209.8L153.9,209.8z"/>
</g>
<g>
	<path class="st16" d="M157.2,197.9l0.7-0.7L157.2,197.9z"/>
	<path class="st16" d="M157.9,197.3l0.7-0.7L157.9,197.3z M216.6,249.3l0.7,0.7L216.6,249.3z M213.3,246l0.7,0.7L213.3,246z"/>
	<path class="st16" d="M212.7,245.4l0.7,0.7L212.7,245.4z M215.3,248l0.7,0.7L215.3,248z"/>
	<path class="st16" d="M212,244.7l0.7,0.7L212,244.7z M216,248.7l0.7,0.7L216,248.7z M214.6,247.3l0.7,0.7L214.6,247.3z"/>
	<path class="st16" d="M214,246.7l0.7,0.7L214,246.7z M209.3,192.6l1.4,1.4L209.3,192.6z M212.7,195.9l1.4,1.4L212.7,195.9z
		 M210.7,193.9l0.7,0.7L210.7,193.9z"/>
	<path class="st16" d="M212,195.2l0.7,0.7L212,195.2z"/>
	<path class="st16" d="M211.3,194.6l0.7,0.7L211.3,194.6z M221.2,180.1l1.4,0.7L221.2,180.1z"/>
</g>
<path class="st20" d="M339.4,250.3l-7.1-7.5l6.9-7l7.9,7.3L339.4,250.3L339.4,250.3z"/>
<path class="st18" d="M302.1,249.3l-7.1-6.5l7.9-6.9l6.5,7.1L302.1,249.3L302.1,249.3z"/>
<path class="st16" d="M328.4,243l-7.2,7l-7.2-7.3l6.9-7.3L328.4,243L328.4,243z"/>
<path class="st13" d="M324.9,144.5l3.2,4l-3.6,1.7l-0.8-0.2l0.4,0.6l-1.2,1.9l-2.6,0.7c-1.5-1.9-3.2-3.4-5.9-2.8
	c0.1-1,0-2.1,0.2-3.1c0.3-1.5,0.8-2.9,1.3-4.7l3.7,0.3l0.2,0.6l0.5-0.6l3.4,1.3l-0.2,2.3l-1.9,1.4l-2,0.9l0.3,0.5l1.7-0.7l0.3,0.1
	l-0.3-0.2l0-0.6l2-1.3L324.9,144.5z M318.5,146.4c0.1,0.2,0.2,0.4,0.3,0.4c0.1,0,0.3-0.1,0.5-0.2l-0.4-0.6L318.5,146.4L318.5,146.4z
	 M329,215.9l4.7-5.9l4.8,5.7l-4.7,6L329,215.9z M325.8,215.9l-4.7,5.9l-4.8-6l4.7-5.8L325.8,215.9z M303.6,215.8l4.7-5.7l4.7,5.7
	l-4.7,5.9L303.6,215.8L303.6,215.8z"/>
<path class="st20" d="M349,244.4l6.1,6.7h-12.5L349,244.4z"/>
<path class="st18" d="M305.7,251.1l6.1-6.4l6.6,6.4H305.7z"/>
<path class="st11" d="M314.4,150.3c2.7-0.6,4.4,0.9,5.9,2.8l0,1.4l-0.2,1.3c-0.2,4-3.6,2.3-5.7,3.1
	C312.9,156,313.2,153.2,314.4,150.3L314.4,150.3z M317.7,157.1l0.4,0.1l0.1-0.8c0,0-0.3,0-0.4-0.1L317.7,157.1z"/>
<path class="st20" d="M293.6,245.2l5.5,5.9h-12.1L293.6,245.2z"/>
<path class="st13" d="M357.6,249.2l-6.4-6.5l6.4-5.7V249.2z"/>
<path class="st20" d="M336.8,251.2H324l6.6-6.4L336.8,251.2z M336.3,234.5l-6.3,6l-6.4-6H336.3L336.3,234.5z"/>
<path class="st18" d="M299.4,234.4l-6.2,6.5l-5.4-6.5H299.4z M355.5,234.3l-6.3,6.2l-6-6.2H355.5z M318.5,234.4l-6.7,6.2l-6.3-6.2
	H318.5L318.5,234.4z"/>
<path class="st20" d="M284.7,249.4v-13.3l6.3,6.7L284.7,249.4L284.7,249.4z"/>
<path class="st7" d="M327.5,214l-4.2-5.2h8.1L327.5,214z"/>
<path class="st13" d="M316.9,173.8c-3.4-4.1-3.4-4.1,0.3-8.2c0.3,0.5,0.5,1.1,0.8,1.5l1.9,2.7L316.9,173.8z M325.5,173.5
	c-3.7-2.7-2.9-5.2-0.1-7.9l2.9,4L325.5,173.5L325.5,173.5z M318.2,191.7l2.7-3.7c3.3,3.7,3.3,3.7,0,7.9L318.2,191.7z M312.4,195.8
	l-2.8-4l2.7-3.9C315.6,191.6,315.6,191.6,312.4,195.8z M329.6,187.7c3.2,4,3.2,4,0.1,7.9l-1.6-1.9c-0.4-0.6-0.8-1.3-1.3-2
	L329.6,187.7z"/>
<path class="st7" d="M318.8,208.9l-4,5l-4.1-5H318.8z"/>
<path class="st9" d="M297.8,208.7h8.2l-4,5.2L297.8,208.7z"/>
<path class="st7" d="M345.6,220.6l-3.9-4.8l3.9-4.9V220.6z"/>
<path class="st9" d="M336,208.7h8.2l-4.1,5.1L336,208.7z M344.3,222.8h-8.2l3.9-5L344.3,222.8L344.3,222.8z M306,222.7h-7.8l3.9-5.1
	L306,222.7L306,222.7z"/>
<path class="st13" d="M331.6,222.9h-8.2l4-5L331.6,222.9z M314.9,217.8l3.8,4.9h-7.8L314.9,217.8L314.9,217.8z"/>
<path class="st11" d="M324.5,150.1l3.6-1.7l2,3.3l-0.7,0.7c-1.1-0.3-2.7,2.5-3-0.5l-3.5,0.5l1.2-1.9L324.5,150.1L324.5,150.1z"/>
<path class="st13" d="M296.7,211.5l3.6,4.3l-3.6,4.6V211.5z"/>
<path class="st10" d="M320.1,155.8l0.2-1.3l5,0.4l-0.6,3.3C322.5,158.4,320.3,159.1,320.1,155.8L320.1,155.8z"/>
<path class="st9" d="M323.5,146.4l0.2-2.3l1.2,0.4l-1.3,2L323.5,146.4L323.5,146.4z M320.3,142.8l-0.5,0.6l-0.2-0.6L320.3,142.8z"/>
<path class="st20" d="M294.8,295.7L294,298c-0.2,0.5-0.5,0.9-1.1,1.8h6.5c-0.8,2.3-1.8,3.2-3.9,3.3c-1.4,0.1-3.1,0.7-4.1,1.6
	c-1.2,1.1-2.6,2.7-0.4,4.3c1.8,1.3,3.1,1.6,5-0.4c5.7-6,14.5-7,19.7,1.2c-0.4,0.3-0.7,1-1.1,1c-5.7,0.4-7.7,5.3-11,8.8
	c-2.6,2.7-4.6,2.6-7.6-0.4c-1.1-1.1-2.8-1.5-4.2-2.3l-1,1.2c0.9,1.4,1.9,2.7,2.7,4.1c0.5,0.9,0.6,1.9,0.8,2.9l-3,0.1
	c-0.1,0-0.2-0.2-0.3-0.2c-3.6,0.8-6.8,0-9.9-1.8c-0.3-0.2-1.4,0.6-2,1.2c-1.5,1.3-2.8,3.5-4.4,3.7c-1.1,0.1-2.6-2.4-3.9-3.8
	l-5.8,1.3l-1.2-6.6c-0.9-0.5-2-0.7-2.7,1.5c-0.4,1.2-1.2,2.4-1.6,3.6c-0.3,0.8-0.7,2-0.3,2.5c3.2,4.6,0.4,9.7,0.8,14.6
	c-0.3-1.9-1-3.9-0.9-5.8c0.2-3,0.5-5.9-1.7-8.4c-0.1-0.1-0.1-0.2-0.1-0.3c1.6-3.6,3.1-7.2,5-10.7c0.9-1.6,2.3-3.4,3.8-3.9
	c1.3-0.4,3.1,1.8,4.7,1.8c2.2,0,4.5-0.8,6.6-1.8c0.7-0.3,1.3-2.4,0.9-3.1c-0.6-1.2-2-2.8-3.1-2.8c-2.2,0-4.4,0.8-6.5,1.5
	c-1.1,0.3-2,1.1-2.9,1.7c-2.4-2.4-0.8-3.7,0.7-5.2c2.3-2.3,5.4-2.9,8.4-1.5c0.5,0.2,1.3,0,1.8-0.4c1.4-0.8,3-1.6,4-2.8
	c2.2-2.4,4.2-3.9,7.2-1.1c0.3,0.3,1.5-0.1,2.2-0.4C291.3,297.4,292.7,296.7,294.8,295.7L294.8,295.7z M289.2,312.5l-5.1-1.5
	c-1.7-0.5-4.2,1.4-3.3,2.3c1.1,1.1,3.1,1.9,4.7,1.9C287,315.1,289.9,315.6,289.2,312.5L289.2,312.5z M274.1,319.5l9,2.3
	c-0.5-1.2-0.6-2.5-1.1-2.8c-2-1-4.2-1.6-6.3-2.4L274.1,319.5L274.1,319.5z M305.6,310.9c-2.2,0.4-4,0.6-5.8,1.2
	c-0.6,0.2-1.2,1.2-1.3,1.9c0,0.5,0.9,1.2,1.5,1.5C302.2,316.2,305.2,314,305.6,310.9L305.6,310.9z M328.9,344.8
	c-3.2-0.9-5.4-1.8-7.6-1.8c-0.6,0-1.1,3.1-2,5.7l-6.9-0.5l-3.1,7c-2.9-1.5,0-7.3-5.5-4.9l0.6-4.9c-4.4-1.5-5.3-1-7.1,3.4
	c-4.1-2.2-4.1-2.1-5.4,1.8l-7.9-6.5l6-3l3-1.6c0.6-0.4,1.2-0.9,1.4-1.6l2.4-7.5c0.8-2.6,6.3-4.8,8.8-4.6c3.7,0.3,7.4-1,10.8,1.5
	c0.2,0.2,1.4-0.4,1.5-0.9c1.1-2.6,2.6-2.8,4.9-1.3c0.6,0.4,2-0.4,3.1-0.5c1.1-0.1,2.3-0.1,3.4-0.2c-0.7,0.8-1.3,1.7-2,2.4
	c-0.5,0.5-1.3,0.8-2,1.3c0.7,2,1.7,3.2,4.1,2.4c2.1-0.7,4.3-0.5,6.1-2.3c1.3-1.2,2.7-1.2,3,1.6c0.1,1.4,2.2,2.7,4,3.5v4.6
	c-0.4,0.1-1.1,0.3-1.2,0.1c-3.4-3.6-6.5-0.2-9.5,0.3L328.9,344.8L328.9,344.8z M313.4,337.3c1.8-2.5,1-3.3-0.9-3.4
	c-2-0.1-3.7,2.4-2.9,4.4c0.7,1.8,1.4,3.6,2.3,5.4c0.3,0.6,1.1,1,1.8,1.7c1.1-4.1,1.1-4.1,4.5-5.8c0.6-0.3,1-1.2,1.5-1.8
	c-0.7-0.3-1.4-0.9-2.1-0.9C316.4,336.8,315.2,337.1,313.4,337.3L313.4,337.3z M324.7,330.1c-7.9-0.1-8.6,1.3-7,5
	C323.8,334.1,324.7,333.5,324.7,330.1z M300.9,340.2c0.9,0.6,1.7,1.5,2.2,1.4c2.1-0.5,4.3-1.1,4.2-4.1
	C304.3,335.7,303,338.3,300.9,340.2z M327.7,336.9l-0.3-1.4l-4.8,0.9c0.2,0.6,0.6,1.6,0.7,1.6C324.7,337.8,326.2,337.3,327.7,336.9z
	 M290.5,329.9l-1.3,5l-6.3,4c-3.5-1.1-7.1-2.4-10.8-3.2c-1.1-0.2-2.5,1.1-3.8,1.4c-1.5,0.3-3.1,0.2-4.6,0.3c0-1.9-0.2-3.9,0.1-5.7
	c0.1-0.5,2.1-0.6,3.2-0.9l4.5-1.2c0.6,2.7,3.1,3.1,5.3,2c2.1-1,3.6-3.1,5.5-4.9C284.8,328.5,286.1,332.6,290.5,329.9L290.5,329.9z"
	/>
<path class="st18" d="M181.3,308.3l0.5-0.8c1.8-0.8,3.5-1.8,5.3-2.2c1.8-0.4,3.6-2.1,5.8,0.5c2.5,3,3.5,5.8,1.5,9.5
	c-2.9-1.3-5-0.5-6.5,2.5c-0.4,0.7-2.7,1.2-3.6,0.7c-2.1-1-3.9-2.6-5.6-4.2c-0.3-0.3,0-1.6,0.3-2.3c0.4-0.9,1-1.6,1.6-2.4
	L181.3,308.3z"/>
<path class="st13" d="M265.9,293.2c-2.3-0.8-3.4,4-6.2,0.8c-0.2-3.9,4.1-3.9,5.9-6.6c-3.5-3.5,2.3-4.6,2.1-7.5l7.2,4.5
	c0.5,0.4,0.5,2,0.2,3c-0.2,0.7-1.1,1.4-1.9,1.7c-0.5,0.2-1.3,0-1.9-0.1C266.9,288,266.5,288.2,265.9,293.2z M278.4,289
	c1.6,0.9,2.9,1.4,3.9,2.3c0.7,0.6,1.2,1.9,1,2.8c-0.1,0.6-1.5,1.2-2.3,1.3c-1,0.1-2.1-0.4-3.1-0.8c-3.4-1.1-4.8,0.2-6.2,3.3
	c-0.7,1.6-3.5,2.3-5.5,3.3c0,0-1-1.1-0.8-1.5c0.6-1.5,1.3-3.9,2.1-4c2.7-0.2,3.8-1.8,5.3-3.6C274.1,290.7,276.4,290.1,278.4,289z
	 M264.1,340.7l6.4-3.4c1.5-0.8,5,0.6,6.8,2.9c-1.8,0.2-3.6,0.1-5.1,0.7c-2.2,0.9-4.3,2.3-6.4,3.5c-0.9,0.5-1.8,0.8-2.7,1.1l-0.1-2.9
	c0-0.9,0.3-1.7,0.4-2.5L264.1,340.7L264.1,340.7z M257.3,311.3c-0.7-1.7-1.4-2.9-1.7-4.1c-0.2-0.9,0.1-2,0-3c-0.3-5-0.3-5,5.9-5.9
	C255.7,301.5,261,307,257.3,311.3L257.3,311.3z"/>
<path class="st9" d="M238.9,309.9l-8.9-4.3l-0.2-0.7c2.3-0.4,5-1.6,6.8-0.9c1.5,0.6,2,3.6,2.9,5.6L238.9,309.9z M263.1,371.3
	l9.2,7.1c-2.6,0.8-3.4,0.6-5.6-1.4c-0.6-0.6-1.3-1.2-2.1-1.4C261.6,374.9,262,373.3,263.1,371.3z"/>
<path class="st7" d="M261,365.4l-0.8-11C264.3,357.9,261.8,361.7,261,365.4z"/>
<path class="st18" d="M232,371.5c-2.8,3-5.5,4.1-9.5,2.9c-3.9-1.2-8.2-1.3-12.9-2l2.1-10.6c0.4-2.3,0.6-4.6,1-6.8
	c0.2-0.8,1-1.5,1.5-2.2c0.5,0.7,1.3,1.2,1.4,2l2.6,17.1l1.1-11.3c2.9,4.1-0.6,8.8,2.3,12.1l1.3-0.1l0-10.2c0-0.7-0.4-1.4-0.2-1.9
	c0.6-1.3,1.4-2.5,2.1-3.7c1,1,2.9,2.4,2.7,3.1C226.1,365,228.9,368.3,232,371.5L232,371.5z"/>
<path class="st20" d="M179.3,357.7c0.9-6.4,5.8-10.7,17.8-6.3c-1.2,0.6-2.4,1.7-2.9,1.5c-3-1.3-4,0.9-5.1,2.6c-2.1,3.1-4.5,4-8,2.7
	C180.5,358,180,357.9,179.3,357.7z"/>
<path class="st13" d="M202.6,353.5l-2.2-3.4c2.3-2.1,3.5-5.5,7.3-5.4c1.1,0,2.2,0.5,3.3,0.8c-0.4,1.3-0.5,3.2-1.4,3.9
	C207.6,351,205.1,352.1,202.6,353.5L202.6,353.5z M222.2,349.1c-0.1,1-0.1,2.1-0.3,3.2c-0.1,0.4-0.6,1-1,1c-0.4,0.1-1.1-0.1-1.4-0.5
	c-1.1-1.1-0.8-7.2,0.4-8.1c0.4-0.3,1.2-0.3,1.8-0.2c1.2,0.2,2.3,0.6,3.5,1.1c1,0.4,2,0.9,3,1.3v5.2L222.2,349.1L222.2,349.1z
	 M233,353.6c4.1,4.4,3.5,13.2,0,16.1V353.6z"/>
<path class="st7" d="M190.8,346.2h-7.6C185.7,343.7,188,343.4,190.8,346.2z"/>
<g>
	<path class="st9" d="M321.6,147.8l0,0.6l0,0l-1.7,0.7l-0.3-0.5L321.6,147.8L321.6,147.8L321.6,147.8z"/>
	<path class="st9" d="M321.6,147.8l1.9-1.4l0.1,0.1L321.6,147.8L321.6,147.8z M318.5,146.4l0.4-0.3l0.4,0.6
		c-0.2,0.1-0.4,0.2-0.5,0.2C318.7,146.8,318.6,146.6,318.5,146.4z M321.6,148.4l0.3,0.2L321.6,148.4
		C321.6,148.4,321.6,148.4,321.6,148.4z"/>
</g>
<path class="st11" d="M324.1,150.5l-0.4-0.6l0.8,0.2C324.4,150.2,324.3,150.4,324.1,150.5z"/>
<path class="st19" d="M317.7,157.1l0-0.8l0.4,0.1c0,0.3-0.1,0.5-0.1,0.8L317.7,157.1L317.7,157.1z"/>
<path class="st6" d="M289.2,312.5c0.7,3.1-2.2,2.6-3.7,2.6c-1.6,0-3.6-0.8-4.7-1.9c-0.9-0.9,1.6-2.8,3.3-2.3L289.2,312.5
	L289.2,312.5z"/>
<path class="st8" d="M274.1,319.5l1.5-2.8l6.3,2.4c0.6,0.3,0.7,1.5,1.1,2.8L274.1,319.5z"/>
<path class="st15" d="M305.6,310.9c-0.4,3.1-3.4,5.4-5.5,4.5c-0.6-0.2-1.5-1-1.5-1.5c0-0.7,0.7-1.7,1.3-1.9
	C301.5,311.5,303.4,311.3,305.6,310.9L305.6,310.9z"/>
<path class="st8" d="M313.4,337.3c1.8-0.2,3-0.5,4.1-0.4c0.7,0,1.4,0.6,2.1,0.9c-0.5,0.6-0.8,1.5-1.5,1.8c-3.4,1.7-3.4,1.7-4.5,5.8
	c-0.8-0.7-1.5-1.1-1.8-1.7c-0.9-1.7-1.6-3.6-2.3-5.4c-0.8-2,0.9-4.5,2.9-4.4C314.5,334,315.2,334.9,313.4,337.3L313.4,337.3z
	 M324.7,330.1c0,3.4-0.9,4.1-7,5C316,331.4,316.7,330,324.7,330.1z M300.9,340.2c2.1-1.9,3.4-4.5,6.5-2.7c0.1,3-2.2,3.5-4.2,4.1
	C302.6,341.7,301.8,340.7,300.9,340.2z M327.7,336.9l-4.4,1.1c-0.1,0-0.5-1-0.7-1.6l4.8-0.9L327.7,336.9z"/>
</svg>
