<?xml version="1.0" encoding="utf-8"?>
<!-- Generator: Adobe Illustrator 25.0.1, SVG Export Plug-In . SVG Version: 6.00 Build 0)  -->
<svg version="1.0" xmlns="http://www.w3.org/2000/svg" xmlns:xlink="http://www.w3.org/1999/xlink" x="0px" y="0px"
	 viewBox="0 0 500 500" style="enable-background:new 0 0 500 500;" xml:space="preserve">
<style type="text/css">
	.st0{fill:#003398;}
	.st1{fill:#FEFEFE;}
</style>
<g id="Layer_1">
	<path class="st0" d="M249.61,497.4C113.04,497.36,2.53,386.39,2.6,249.36C2.67,112.89,113.75,2.5,250.89,2.6
		c136.36,0.1,246.65,111.3,246.51,248.54C497.27,386.99,386.12,497.44,249.61,497.4z"/>
	<path class="st1" d="M407.48,287.86c-0.28,8.45-0.77,18.57-3.1,28.5c-3.43,14.6-10.78,27-21.16,37.73
		c-8.36,8.64-17.75,16.02-27.47,23.02c-33.71,24.23-67.45,48.42-101.11,72.73c-2.52,1.82-4.14,2.18-6.85,0.22
		c-35.64-25.82-71.38-51.49-107.08-77.23c-3.23-2.33-6.27-4.92-9.43-7.36c-24.71-19.1-36.2-44.31-36.68-75.48
		c-0.47-30.22,7.89-57.57,23.2-83.21c13.39-22.43,28.93-43.36,44.78-64.06c28.47-37.2,57.14-74.25,85.64-111.42
		c2.03-2.65,3.07-3.56,5.56-0.27c35.83,47.25,72.95,93.52,107.87,141.46c13.2,18.12,25.56,36.79,34.54,57.48
		C403.98,247.92,407.6,266.67,407.48,287.86z"/>
	<path class="st0" d="M338.94,215.01c-0.4,10.69-4.14,20.2-10.94,28.28c-24.61,29.24-49.44,58.3-74.1,87.5
		c-2.33,2.76-3.67,2.27-5.74-0.18c-24.25-28.68-48.72-57.17-72.79-85.99c-9.02-10.79-14.29-23.16-11.1-37.77
		c1.08-4.94,3.3-9.37,6.27-13.42c26.01-35.5,52.07-70.97,78-106.53c2.3-3.15,3.36-2.41,5.26,0.2
		c25.48,34.86,51.04,69.67,76.56,104.5C335.46,198.56,338.94,206.15,338.94,215.01z"/>
	<path class="st0" d="M227.11,378.1c0,4.33-0.02,8.65,0.01,12.96c0.02,3.5-1.08,4.84-4.37,2.45c-21.88-15.9-44.14-31.31-65.55-47.82
		c-18.33-14.13-27.81-33.32-28.22-56.81c-0.25-14.26,1.25-28.15,6.69-41.43c0.54-1.32,0.64-3.29,2.28-3.61
		c1.82-0.36,2.34,1.64,3.1,2.78c23.29,34.84,48.66,68.07,77.26,98.72C227.23,354.88,229.13,365.87,227.11,378.1z"/>
	<path class="st0" d="M274.81,377.94c-0.1-1.83-0.15-3.66-0.32-5.47c-0.97-10.15,1.96-18.84,8.87-26.5
		c10.57-11.72,20.95-23.62,31.07-35.74c16.73-20.04,31.6-41.46,46.34-62.98c0.89-1.3,1.38-3.51,3.29-3.32
		c1.9,0.19,2.03,2.44,2.58,3.9c6.87,18.14,8.5,36.87,4.93,55.84c-3.7,19.66-15.43,34.29-31.16,45.85
		c-19.94,14.65-40.11,28.98-60.2,43.42c-1.15,0.83-2.29,2.38-3.91,1.54c-1.54-0.81-1.2-2.6-1.22-4.07
		c-0.03-4.15-0.01-8.31-0.01-12.46C274.98,377.94,274.9,377.94,274.81,377.94z"/>
</g>
<g id="Layer_2">
</g>
</svg>
