<?xml version="1.0" encoding="utf-8"?>
<!-- Generator: Adobe Illustrator 25.0.1, SVG Export Plug-In . SVG Version: 6.00 Build 0)  -->
<svg version="1.0" xmlns="http://www.w3.org/2000/svg" xmlns:xlink="http://www.w3.org/1999/xlink" x="0px" y="0px"
	 viewBox="0 0 500 500" style="enable-background:new 0 0 500 500;" xml:space="preserve">
<style type="text/css">
	.st0{fill:#FFFFFF;}
	.st1{fill:#7A030A;}
	.st2{fill:#EB1E25;}
	.st3{fill:#E9070F;}
</style>
<g id="Layer_1">
	<g>
		<circle class="st0" cx="250" cy="250" r="250"/>
		<g>
			<g>
				<path class="st1" d="M450.01,250.15c-0.55,1.47-0.79,3.17-1.7,4.37c-36.67,48.63-73.37,97.24-110.26,145.7
					c-1.4,1.84-4.65,3.2-7.04,3.21c-82.63,0.16-165.25,0.13-247.88,0.13c-2.13,0-4.26,0-7.43,0c1.06-1.78,1.63-3,2.43-4.05
					c37.26-49.23,74.54-98.44,111.81-147.65c0.2-0.26,0.29-0.6,0.43-0.9c81.08,0,162.17,0.02,243.25-0.03
					C439.09,250.94,444.55,250.43,450.01,250.15z"/>
				<path class="st2" d="M450.01,250.15c-5.46,0.27-10.92,0.78-16.38,0.79c-81.08,0.05-162.17,0.03-243.25,0.03
					c-16.3-21.65-32.57-43.32-48.9-64.94c-19.74-26.14-39.52-52.24-59.26-78.39c-1.28-1.7-2.32-3.57-3.48-5.37
					c4.11-0.42,8.22-1.2,12.33-1.21c79.29-0.07,158.57-0.05,237.86-0.05c1.64,0,3.28,0,4.91,0c-0.01-0.33-0.02-0.67-0.03-1
					c-1.64,0-3.28,0-4.92,0c-29.32,0-58.63,0-87.95,0c-52.13,0-104.27-0.02-156.4,0.09c-1.95,0-3.89,1.39-5.84,2.14
					c-1.4-0.48-2.79-0.96-4.19-1.45c0.6-0.75,1.2-1.5,1.8-2.26c1.06-0.15,2.13-0.44,3.19-0.44c83.76-0.01,167.52,0.02,251.28-0.06
					c3.47,0,5.86,0.85,8.02,3.72c36.16,47.96,72.43,95.85,108.63,143.78C448.48,246.93,449.16,248.61,450.01,250.15z"/>
				<path class="st3" d="M78.7,102.24c1.95-0.74,3.89-2.13,5.84-2.14c52.13-0.12,104.27-0.09,156.4-0.09c29.32,0,58.63,0,87.95,0
					c1.64,0,3.28,0,4.92,0c0.01,0.33,0.02,0.67,0.03,1c-1.64,0-3.28,0-4.91,0c-79.29,0-158.57-0.02-237.86,0.05
					c-4.11,0-8.22,0.79-12.33,1.21l0.17-0.26L78.7,102.24z"/>
			</g>
		</g>
	</g>
</g>
<g id="Layer_2">
</g>
</svg>
