<?xml version="1.0" encoding="utf-8"?>
<!-- Generator: Adobe Illustrator 25.0.1, SVG Export Plug-In . SVG Version: 6.00 Build 0)  -->
<svg version="1.0" xmlns="http://www.w3.org/2000/svg" xmlns:xlink="http://www.w3.org/1999/xlink" x="0px" y="0px"
	 viewBox="0 0 500 500" style="enable-background:new 0 0 500 500;" xml:space="preserve">
<style type="text/css">
	.st0{fill:#ED2638;}
	.st1{fill:#FEFEFE;}
	.st2{fill:#BDB1AB;}
	.st3{fill:#99877D;}
	.st4{fill:#00A850;}
</style>
<g id="Layer_1">
	<g>
		<path class="st0" d="M268.56,494.37c-10.23,0-20.46,0-30.69,0c-5.16-1.03-10.41-0.57-15.6-0.69c-14.35-0.34-28.18-3.28-41.83-7.27
			c-25.08-7.35-48.54-18.26-70.11-33.05c-25.04-17.17-46.4-38.13-63.88-63.01c-17.41-24.79-29.55-51.97-37.24-81.21
			c-3.28-12.47-4.49-25.19-4.88-38.02c-0.06-1.89,0.44-3.84-0.4-5.68c0-11.34,0-22.67,0-34.01c0.77-6.69,0.75-13.43,1.41-20.12
			c1.54-15.63,5.9-30.6,11.13-45.31c8.63-24.26,20.98-46.56,36.69-66.93c19.7-25.56,43.58-46.45,71.43-62.74
			c27.11-15.86,56.16-26.44,87.26-31.09c8.31-1.24,16.78-1.23,25.17-1.41c13.38-0.29,26.77-0.23,40.15,0.65
			c47.5,3.11,89.01,21.6,126.37,49.94c32.02,24.29,56.23,55.19,73.24,91.64c9.69,20.77,16.31,42.51,19.64,65.19
			c1.2,8.18,1.27,16.5,1.4,24.75c0.29,18.21,0.71,36.48-1.98,54.55c-2.94,19.75-8.87,38.69-16.89,57.01
			c-7.18,16.4-15.93,31.86-26.57,46.24c-10.11,13.67-21.33,26.3-33.97,37.79c-18.88,17.17-39.89,30.94-62.91,41.75
			c-19.61,9.21-40.12,15.66-61.48,19.19c-7.04,1.17-14.28,1.05-21.44,1.45C271.24,494.04,269.83,493.54,268.56,494.37z"/>
		<path class="st1" d="M89.49,378.47c-19.34-23.33-32.7-49.77-39.86-79.16C22.01,185.91,91.28,74.17,205.06,48.3
			c113.28-25.75,226.58,47.07,248.92,161.04c12.03,61.34-1.91,117.25-40.11,166.92c-0.75,0.98-1.65,1.84-2.48,2.76
			c-2.32,1.91-5.05,1.99-7.86,1.78c-11.7-0.89-22.81-3.88-33.26-9.28c-8.84-4.57-17.76-8.96-27.54-11.26
			c-14.91-3.5-29.02-0.55-42.78,5.27c-8.14,3.44-16.08,7.3-24.38,10.39c-19.61,7.3-38.63,5.77-57.46-2.85
			c-9.65-4.42-19.17-9.18-29.56-11.86c-14.71-3.79-28.94-2.58-42.95,3.07c-8.71,3.51-17.14,7.7-25.97,10.89
			c-7.15,2.59-14.44,4.67-22.13,4.92C94.68,380.16,92,379.84,89.49,378.47z"/>
		<path class="st1" d="M354.52,427.54c-38.08,21.67-79,30.61-122.59,26.82c-30.36-2.64-58.85-11.59-85.23-27.01
			c-0.73-2.1,0.95-2.78,2.26-3.26c8.21-3.05,16.66-4.34,25.48-4.06c14.54,0.46,27.24,6.52,39.99,12.44
			c10.87,5.05,22.12,8.9,34.12,9.21c9.96,0.25,19.73-1.81,29.11-5.42c8.38-3.23,16.44-7.17,24.7-10.65
			c15.56-6.57,31.38-8.12,47.53-2.2C351.98,424.17,354.16,424.84,354.52,427.54z"/>
		<path class="st2" d="M140.14,423.34c-4.16-1.84-7.41-5-11.06-7.58c0.28-2.13,2.04-2.83,3.62-3.63
			c24.54-12.41,49.3-13.8,74.45-1.68c8.32,4.01,16.73,7.88,25.61,10.59c16.64,5.08,32.46,1.92,47.98-4.6
			c7.63-3.21,15.03-6.96,22.82-9.79c18.9-6.88,37.55-6.63,55.87,2.05c2.87,1.36,5.9,2.35,8.67,3.93c1.58,0.9,3.22,1.7,3.29,3.87
			c-3.66,2.32-6.65,5.64-10.81,7.21c-2.56,0.4-4.87-0.37-7.22-1.31c-16.27-6.57-32.51-6.44-48.82,0.07
			c-8.47,3.38-16.68,7.34-25.13,10.77c-21.8,8.84-43.08,7.6-64.1-2.69c-10.18-4.98-20.58-9.35-31.79-11.71
			c-12.2-2.57-23.88-0.9-35.37,3.22C145.51,423,142.94,423.68,140.14,423.34z"/>
		<path class="st3" d="M89.49,378.47c15.22,0.59,29.05-4.38,42.6-10.57c10.18-4.65,20.43-9.1,31.72-10.43
			c14.76-1.74,28.51,1.83,41.83,7.77c5.42,2.42,10.84,4.84,16.25,7.27c18.12,8.11,36.41,8.23,54.75,0.94
			c9.49-3.77,18.74-8.12,28.24-11.85c18.38-7.22,36.5-6.01,54.24,2.34c5.87,2.76,11.68,5.66,17.56,8.41
			c10.99,5.14,22.7,6.66,34.69,6.65c-1.3,2.36-3.02,4.36-5.15,6.01c-5.19,3.08-10.54,1.22-15.74,0.28
			c-9.45-1.72-18.15-5.65-26.67-9.95c-5.91-2.99-11.82-5.92-18.22-7.85c-14.93-4.49-29.16-2.34-43.14,3.78
			c-10.36,4.53-20.49,9.65-31.45,12.68c-19.2,5.31-37.68,3.03-55.62-5.27c-6.38-2.95-12.77-5.92-19.28-8.6
			c-19.19-7.9-37.74-5.62-56.06,3.12c-10.96,5.23-22.14,10.05-34.22,12.16c-3.59,0.63-7.34,1.74-10.86-0.5
			C92.79,383.06,91.02,380.88,89.49,378.47z"/>
		<path class="st3" d="M401.82,390.26c-2.05,2.02-4.09,4.04-6.14,6.06c-5.73,2.07-10.81-0.69-15.96-2.33
			c-9.38-2.97-17.72-8.33-26.75-12.14c-15.85-6.69-31.57-6.7-47.46-0.13c-7.78,3.22-15.39,6.8-23.17,10.03
			c-22.41,9.3-44.5,8.89-66.58-1.23c-9.39-4.3-18.65-8.94-28.73-11.65c-13.21-3.56-25.93-2.27-38.5,2.63
			c-8.87,3.46-17.43,7.67-26.33,11.07c-3.88,1.48-7.88,2.5-11.89,3.55c-1.93,0.5-3.52-0.19-5.24-0.57c-2.13-1.6-3.97-3.49-5.56-5.62
			c0.44-1.52,1.64-2.29,3.03-2.49c12.5-1.79,23.79-7.15,35.02-12.38c22.74-10.6,45.27-10.44,68.01-0.23
			c8.43,3.78,16.71,7.89,25.54,10.76c15.76,5.13,31.03,3.11,46.12-2.63c10.06-3.83,19.51-9.1,29.76-12.51
			c17.28-5.76,34.11-4.6,50.82,2.48c8.27,3.5,15.86,8.43,24.47,11.18c5.4,1.73,10.75,3.55,16.45,4.03
			C400.11,388.25,401.51,388.5,401.82,390.26z"/>
		<path class="st3" d="M115.17,404.81c-2.11-1.35-3.98-2.97-5.58-4.91c0.26-1.79,1.62-2.57,3.08-3.02
			c11.12-3.44,21.4-8.93,32.23-13.1c19.03-7.33,37.78-6.49,56.51,1.03c7.83,3.14,15.42,6.8,23.16,10.12
			c17.53,7.52,34.91,6.73,52.38-0.18c7.71-3.05,15.17-6.66,22.82-9.87c20.04-8.41,39.86-8.51,59.79,0.53
			c9.3,4.22,18.14,9.5,28.02,12.41c1.52,0.45,2.82,1.18,3.09,2.96c-1.87,1.8-3.74,3.6-5.61,5.4c-4.66,0.62-8.6-1.55-12.6-3.35
			c-5.92-2.67-11.67-5.69-17.55-8.45c-18.21-8.56-36.07-7.29-54,0.87c-10.04,4.57-19.92,9.6-30.72,12.32
			c-18.07,4.54-35.55,2.95-52.6-4.54c-7.96-3.5-15.78-7.29-23.95-10.36c-17.21-6.47-33.81-4.9-50.27,2.55
			c-7.04,3.19-14.09,6.38-21.36,9.06C119.74,405.11,117.53,405.62,115.17,404.81z"/>
		<path class="st3" d="M381.13,409.2c-1.87,1.8-3.85,3.44-6.16,4.67c-2.49,0.68-4.57-0.43-6.7-1.47
			c-8.06-3.94-16.02-8.06-24.79-10.39c-12.36-3.28-24.28-2.15-36.11,2.4c-8.39,3.23-16.49,7.09-24.74,10.62
			c-13.15,5.62-26.83,7.54-40.93,6.36c-10.3-0.86-19.84-4.65-29.17-8.92c-6.15-2.81-12.31-5.6-18.63-8.05
			c-17.14-6.65-33.82-4.87-50.3,2.32c-4.18,1.82-8.33,3.71-12.51,5.51c-2.01,0.87-3.94,1.12-6.02,0.79
			c-1.92-1.58-3.84-3.16-5.76-4.75c0.32-1.71,1.58-2.47,3.03-3.11c7.57-3.37,15.09-6.85,22.83-9.83c19.32-7.44,38.35-6.4,57.25,1.58
			c8.14,3.44,16.12,7.25,24.33,10.53c18.24,7.28,35.98,5.02,53.54-2.4c9.15-3.87,18.01-8.44,27.54-11.43
			c17.07-5.34,33.79-4.41,50.11,2.75c6.45,2.83,12.6,6.31,19.08,9.09C378.75,406.24,380.72,406.91,381.13,409.2z"/>
		<path class="st1" d="M401.82,390.26c-11.85-0.52-22.62-4.63-33.03-9.94c-8.37-4.27-16.79-8.42-26.09-10.33
			c-13.51-2.77-26.67-1.4-39.38,3.83c-8.04,3.31-15.94,6.93-23.95,10.31c-19.88,8.41-39.64,8.45-59.37-0.69
			c-8-3.71-15.98-7.5-24.34-10.41c-16.86-5.86-33.53-5.61-50.19,0.86c-11.69,4.54-22.72,10.76-35.01,13.75
			c-3.62,0.88-7.29,1.53-10.93,2.28c-1.5-1.69-3.01-3.37-4.51-5.06c16.79-0.89,31.87-7.45,46.75-14.43
			c20.19-9.47,40.2-9.33,60.32,0.08c6.87,3.21,13.79,6.34,20.83,9.15c19.32,7.71,38.6,6.79,57.67-0.96
			c9.2-3.74,18.17-8.03,27.43-11.59c15.58-5.98,31.1-5.16,46.32,1.52c4.54,1.99,9,4.2,13.43,6.46c12.1,6.18,24.79,9.99,38.49,9.92
			C404.76,386.77,403.29,388.52,401.82,390.26z"/>
		<path class="st1" d="M390.67,400.78c-11.22-3.15-21.42-8.67-31.88-13.59c-19.69-9.28-39.43-8.91-59.24-0.2
			c-10.09,4.44-19.95,9.44-30.61,12.5c-17.44,5-34.1,2.65-50.31-4.92c-9.74-4.55-19.42-9.31-29.92-11.95
			c-16.13-4.07-31.72-2.17-46.89,4.43c-10.61,4.62-21.1,9.56-32.23,12.86c-1.51-1.45-3.02-2.89-4.53-4.34
			c14.48-2.89,27.6-9.5,41.03-15.2c17.07-7.23,34.11-7.1,51.14-0.11c6.89,2.83,13.69,5.89,20.46,9
			c21.78,10.02,43.56,9.59,65.38,0.17c8.36-3.61,16.63-7.44,25.13-10.68c15.46-5.9,30.84-5.01,45.97,1.52
			c1.27,0.55,2.54,1.09,3.76,1.72c12.05,6.18,24.22,12.03,37.73,14.34C394.14,397.95,392.69,399.68,390.67,400.78z"/>
		<path class="st1" d="M381.13,409.2c-6.79-2.41-13.09-5.86-19.51-9.07c-20.44-10.24-41.04-10.67-61.97-1.52
			c-8.09,3.54-16.04,7.38-24.33,10.47c-18.72,6.99-37.03,6.11-55.15-2.15c-9.29-4.23-18.43-8.83-28.27-11.76
			c-16.1-4.79-31.92-3.88-47.43,2.5c-8.42,3.47-16.79,7.08-25.18,10.62c-1.56-0.95-3.01-2.04-4.14-3.5
			c13.37-4.45,25.71-11.5,39.2-15.63c15.42-4.72,30.3-2.51,44.88,3.55c10.19,4.24,19.93,9.58,30.57,12.69
			c16.83,4.92,33.36,3.53,49.5-2.88c8.34-3.31,16.48-7.1,24.73-10.63c17.98-7.7,35.73-7.03,53.29,1.43
			c8.7,4.19,17.15,8.93,26.44,11.8c0.48,0.15,0.84,0.68,1.26,1.04C383.75,407.19,382.44,408.2,381.13,409.2z"/>
		<path class="st3" d="M140.14,423.34c20.12-9.71,40.44-9.82,60.9-1.16c5.85,2.48,11.69,5,17.41,7.76
			c22.91,11.05,45.41,9.12,67.87-1.54c11.21-5.32,22.43-10.69,35.05-12.17c13.91-1.63,26.89,1.02,39.21,7.46
			c-2.02,1.28-4.04,2.57-6.07,3.85c-13.9-6.88-28.27-7.61-43-3.2c-10.87,3.25-20.79,8.83-31.29,12.99
			c-20.51,8.13-40.78,8.19-61.1-0.69c-10.84-4.74-21.29-10.51-32.98-13.13c-13.56-3.04-26.78-2.41-39.45,3.82
			C144.52,426.01,142.33,424.68,140.14,423.34z"/>
		<path class="st1" d="M125.07,413.06c9.48-4.46,18.95-8.94,28.97-12.07c14.62-4.57,28.92-3.05,42.92,2.56
			c6.14,2.46,12.24,5.08,18.19,7.98c23.42,11.42,46.81,10.95,70.32,0.32c7.54-3.41,15-6.98,22.79-9.82
			c14.22-5.18,28.39-5.11,42.5,0.27c8.38,3.19,16.26,7.48,24.22,11.58c-1.19,0.87-2.38,1.75-3.58,2.62
			c-9.61-4.85-19.16-9.86-29.92-11.81c-15.36-2.79-29.87,0-43.95,6.35c-9.93,4.47-19.7,9.33-30.34,12.07
			c-13.96,3.6-27.65,2.99-41.02-2.35c-7.17-2.86-14.22-6.06-21.25-9.27c-21.55-9.84-43.13-10.63-64.84-0.52
			c-3.63,1.69-7.34,3.2-11.01,4.79C127.75,414.86,126.41,413.96,125.07,413.06z"/>
		<path class="st4" d="M366.26,91.07c0,24.33-0.24,48.66,0.1,72.98c0.17,11.99-4.17,21.74-12.15,30.24
			c-4.85,5.17-10.45,9.4-16.34,13.32c-22.29,14.84-45.11,28.88-67,44.34c-9.69,6.84-14.05,16.04-14.74,27.33
			c-1.46,24.03-0.32,48.08-0.64,72.13c-0.05,4.01-0.01,8.02-0.01,12.03c0,6.86-0.81,7.48-7.87,6.46c-1.39-0.2-1.97-0.7-1.95-2.04
			c0.02-1.11-0.01-2.21-0.01-3.32c0-47.83,0.31-95.65-0.15-143.47c-0.2-20.51,7.71-36.3,23.64-48.57
			c13.6-10.48,28.62-18.75,43.04-27.97c4.77-3.05,9.51-6.14,14.35-9.07C344.27,124.68,359.16,111.41,366.26,91.07z"/>
		<path class="st4" d="M132.19,92.3c5.72,14.9,15.41,26.42,27.29,36.46c18.47,15.61,37.42,30.62,56.53,45.43
			c8.83,6.85,16.79,14.44,19.73,25.83c1.53,5.93,2.1,11.96,2.1,18.05c0.02,49.34-0.02,98.69,0.09,148.03
			c0.01,3.21-0.94,3.91-3.95,3.81c-6.01-0.2-6.01-0.03-6.01-5.84c0-22.81-0.03-45.61,0.02-68.42c0.02-6.95-0.7-13.76-2.48-20.49
			c-3.01-11.42-8.85-20.98-17.98-28.59c-15.83-13.18-32.38-25.41-49.03-37.5c-17.68-12.84-26.86-29.72-26.39-51.91
			c0.42-20.17,0.09-40.36,0.09-60.54C132.19,95.19,132.19,93.74,132.19,92.3z"/>
		<path class="st4" d="M366.21,190.16c-0.75,21.55,2.01,43.07-1.39,64.44c-1.73,10.89-7.58,19.49-16.65,25.67
			c-13.56,9.25-27.3,18.25-40.93,27.41c-6.65,4.47-13.15,9.14-19.1,14.54c-9.77,8.87-15.75,19.42-14.83,33.12
			c0.25,3.71-0.08,7.46,0.08,11.19c0.1,2.4-0.44,3.47-3.16,3.38c-8.49-0.29-6.85,0.96-6.86-6.62c-0.02-24.87-0.07-49.73,0.24-74.6
			c0.18-14.34,5.62-25.8,18.12-34.24c20.36-13.74,41-27.06,61.54-40.52C352.7,207.74,361.4,200.98,366.21,190.16z"/>
	</g>
</g>
<g id="Layer_2">
</g>
</svg>
