<?xml version="1.0" encoding="utf-8"?>
<!-- Generator: Adobe Illustrator 25.0.1, SVG Export Plug-In . SVG Version: 6.00 Build 0)  -->
<svg version="1.1" id="color" xmlns="http://www.w3.org/2000/svg" xmlns:xlink="http://www.w3.org/1999/xlink" x="0px" y="0px"
	 viewBox="0 0 512 512" style="enable-background:new 0 0 512 512;" xml:space="preserve">
<style type="text/css">
	.st0{fill:#3CA9D0;}
	.st1{fill:#90CEE4;}
	.st2{fill:#FEFEFE;}
</style>
<path class="st0" d="M263.6,4.8c22.7,0.6,45,4.1,66.8,10.8c15.8,4.8,31.1,11.1,45.7,19c11.4,6.2,22.2,13,32.5,20.8
	c12.8,9.7,24.6,20.3,35.3,32.2c11.8,13.1,22.3,27.2,31.2,42.4c13.6,23.2,23.1,48,28.8,74.4c2.2,10,3.6,20.2,4.6,30.4
	c0.4,4.7,0.7,9.5,0.7,14.2c0,3.3,0.4,6.7,0.3,10.1c-1,61.8-21.2,116.5-61.5,163.5c-30.1,35.1-67.4,59.9-111.3,74.7
	c-20.8,7-42.1,11.1-64.1,12.4c-45.8,2.7-89.5-5.5-130.2-26.8C73,446.5,28.9,389.9,10.4,313.6C5.1,292,3.2,270,4.2,247.8
	c2.7-60.1,23.6-113,63.5-158c34.6-39.1,77.5-64.9,128.2-77.7c17.8-4.5,35.9-6.9,54.2-7.3C254.6,4.6,259.1,4.6,263.6,4.8z"/>
<path class="st1" d="M263.6,4.8c-4.5,0-9,0-13.6,0C254.6,4.2,259.1,4.2,263.6,4.8z"/>
<path class="st2" d="M209.5,181.7c10.5-7.2,20.4-14,30.4-20.8c27.3-18.6,54.4-37.4,82.2-55.1c4.9-3.1,10-5.8,15.5-7.9
	c8.9-3.3,17.3-2.3,25.5,2.2c11.7,6.4,21.6,15,31.2,24.1c5.1,4.9,10,10.1,14.8,15.4c0.3,0.4,0.7,0.8,1,1.2c1.3,1.6,2.3,3.4,1.3,5.5
	c-1.1,2.1-3.1,1.9-5,1.7c-10.2-1-19.2,2.3-27.3,8c-18.2,12.7-36.3,25.5-54.4,38.2c-1.5,1.1-1.6,1.7-0.5,3.2
	c27.1,35.5,54,71,81.1,106.4c10.2,13.4,4.3,32.7-11.7,37.8c-1.4,0.4-2.7,0.5-4.1,0.5c-18.5,0-36.9,0-55.4,0c-1.9,0-3-0.6-4-2.1
	c-23.5-32.2-47-64.4-70.4-96.6c-1.4-1.9-2.2-2-4.1-0.6c-14.5,10.4-29.1,20.6-43.8,30.8c-1.6,1.1-2.3,2.2-2.2,4.2
	c0.1,11.2,0.1,22.4,0,33.5c0,9.4-0.2,18.9-0.2,28.3c0,2-0.7,2.4-2.5,2.4c-27.7-0.1-55.5-0.1-83.2,0c-1.9,0-2.5-0.5-2.5-2.5
	c0.1-51.8,0-103.5,0-155.3c0-16.3,0.3-32.6,0-48.9c-0.2-13.3,4.9-24,14.6-32.8c11.6-10.6,24.9-18.7,38.1-27
	c10.1-6.3,20.9-11.6,31.7-16.5c1.8-0.8,3.7-1.3,5.8-1.3c1.9,0,2.6,1,2.6,2.8c0,1.3-0.4,2.4-1,3.5c-2.3,4.6-3.3,9.4-3.3,14.5
	c0,33.1,0,66.2-0.1,99.3C209.5,179.1,209.5,180.1,209.5,181.7z"/>
<path class="st2" d="M259.1,442.5c-25.8,0-51.7-0.3-77.5,0.1c-23.1,0.4-41.7-9-58-24.4c-14.5-13.7-27-29.3-38.5-45.5
	c-1.1-1.6-2-3.4-2.7-5.3c-1.2-3-0.2-6.2,2.2-7.9c1.7-1.3,3.6-1.7,5.5-0.5c5.7,3.6,12.1,4.5,18.6,4.5c100.3,0,200.5,0,300.8,0
	c6.5,0,12.8-0.8,18.4-4.4c2.1-1.4,4.1-0.9,6,0.6c2.2,1.8,3.1,4.7,2,7.5c-0.7,1.8-1.5,3.5-2.6,5.1c-12.8,18.1-26.5,35.3-43.3,50
	c-11.1,9.7-23.7,16.7-38.5,19.3c-4.2,0.7-8.4,1-12.7,1C312.4,442.5,285.7,442.5,259.1,442.5z"/>
</svg>
