<?xml version="1.0" encoding="utf-8"?>
<!-- Generator: Adobe Illustrator 25.0.1, SVG Export Plug-In . SVG Version: 6.00 Build 0)  -->
<svg version="1.0" xmlns="http://www.w3.org/2000/svg" xmlns:xlink="http://www.w3.org/1999/xlink" x="0px" y="0px"
	 viewBox="0 0 500 500" style="enable-background:new 0 0 500 500;" xml:space="preserve">
<style type="text/css">
	.st0{fill:#47B6E4;}
	.st1{fill:#019ADA;}
	.st2{fill:#FEFEFE;}
	.st3{fill:#019BDA;}
	.st4{fill:#4BC3E6;}
	.st5{fill:#20ABDF;}
</style>
<g id="Layer_1">
	<path class="st0" d="M4.3,260.2c-0.28,0.05-0.53,0-0.76-0.17c0-6.49,0-12.97,0-19.46c0.27-0.02,0.54-0.06,0.8-0.12
		C6.75,247.04,6.82,253.62,4.3,260.2z"/>
	<path class="st1" d="M4.3,260.2c0.01-6.58,0.03-13.16,0.04-19.74c1.19-41.34,12.99-79.57,33.74-115.18
		C51,103.11,67.21,83.57,86.33,66.58c31.06-27.6,66.9-46.19,107.4-55.91c24.64-5.91,49.63-7.77,74.69-5.91
		c46.82,3.47,89.59,18.97,127.45,46.94c44.23,32.68,74.61,75.32,90.58,128.08c5.3,17.52,8.29,35.4,9.77,53.66
		c1.08,13.27,0.92,26.48-0.33,39.62c-2.73,28.7-10.15,56.21-22.53,82.33c-14.99,31.63-35.64,59.01-62.2,81.72
		c-31.22,26.68-66.88,44.8-107.13,53.63c-13.16,2.89-26.43,4.7-39.9,5.42c-61.45,3.32-116.67-13.89-165.08-51.47
		C52.66,408.67,22.93,361.5,9.85,304.06C6.57,289.62,4.51,275.02,4.3,260.2z"/>
	<path class="st2" d="M207.15,277.45c0.56-1.04,1.29-2.01,1.62-3.09c0.53-1.78-0.43-3.14-1.74-4.23c-1.03-0.86-2.12-0.88-3.19,0.05
		c-4.01,3.5-8.95,4.27-13.98,4.42c-6.28,0.19-12.68,1-18.57-2.26c-1.61-0.89-2.81,0-3.91,1.07c-1.19,1.16-1.33,2.58-0.88,4.09
		c0.37,1.23,1.78,1.99,1.72,3.6c-4.37,1.08-7.73-0.44-9.69-4.19c-2.03-3.88-1.34-7.83,1.6-11.08c4.86-5.38,11.5-6.88,18.28-7.57
		c7.2-0.73,14.41-0.45,21.31,2.09c1.39,0.51,2.49,0.35,3.78-0.19c4.06-1.69,7.38-4.25,9.77-7.95c3.89-6.03,3.81-6.69-0.99-11.86
		c-4.24-4.56-7.95-9.48-10.3-15.31c-1-2.48-1.83-3.07-3.62-0.36c-8.89,13.46-22.01,16.81-37.03,14.73c-2.89-0.4-3.87,0.16-4.7,2.72
		c-4.39,13.56-13.41,22.25-27.47,25.29c-2.26,0.49-2.55,1.54-2.72,3.56c-0.57,6.91-1.79,13.71-5.21,19.9
		c-1.73,3.12-3.64,6.28-6.84,7.91c-3.49,1.78-3.75,3.95-2.91,7.49c3.93,16.51,10.36,32.17,15.98,48.11
		c2.26,6.39,4.3,12.84,4.96,19.63c1.11,11.42-5.57,19.3-15.79,18.63c-6.16-0.4-11.56-5.68-12.11-12.24
		c2.92,0.93,5.07,3.07,7.87,3.83c5.48,1.49,9.43-1.38,9.27-7.05c-0.15-5.43-2.34-10.3-4.46-15.16
		c-4.78-10.94-10.68-21.32-16.21-31.88c-9.14-17.46-15.18-36.04-19.74-55.15c-0.58-2.42,0.22-6.74-5.22-4.33
		c-1.98,0.88-3.64-1.74-4.5-3.99c-3.12-8.07-3.97-16.62-4.8-25.07c-1.67-17.18-2.52-34.42,1.42-51.45
		c2.66-11.49,6.98-22.19,17.06-30.17c-5.17-1.95-5.34-5.39-3.13-9.41c14.11-25.62,33.86-45.47,60.32-58.23
		c5.87-2.83,12.32-3.91,18.9-2.19c6.77,1.77,9.95,6.56,8.96,13.48c-0.1,0.73-0.29,1.45-0.36,2.18
		c-1.02,11.33,5.45,16.32,16.13,12.32c7.12-2.66,12.77-7.21,16.73-13.75c4.51-7.43,9.21-14.73,14.61-21.56
		c0.6-0.76,1.5-1.46,1.3-2.97c-2.45-0.4-5.08-0.12-7.54-1.13c-5.48-2.26-8.98-7.26-8.49-12.67c0.23-2.48,1.04-4.7,3.86-5.18
		c1.96-0.33,4.11-0.14,4.81,2.09c0.74,2.34,0.79,4.67-2.39,5.63c-1.74,0.53-0.63,1.55-0.05,2.33c3.49,4.68,11.96,5.08,16.44,0.65
		c-1.14-1.01-2.55-0.31-3.75-0.65c-4.14-1.17-6.01-5.84-3.55-9.07c1.58-2.08,3.7-2.44,5.84-1.11c1.81,1.12,1.34,3.26-1.07,5.81
		c4.41,1.19,7.92,0.43,11.1-2.47c2.94-2.68,5.78-5.47,9.19-7.57c12.5-7.69,24.78-7.08,36.75,1.16c1.99,1.37,3.79,2.7,6.38,2.42
		c1.7-0.19,3.49,0.53,4.33,1.79c3.02,4.53,7.75,4.39,12.27,5.17c7.31,1.26,10.17,6.95,6.47,12.43c-1.18,1.75-2.22,2.67-3.94,0.38
		c-1.61-2.14-4.13-2.96-6.72-2.7c-19.07,1.94-33.37,10.97-41.11,28.86c-5.16,11.92-0.99,21.96,10.93,27.14
		c8.12,3.53,16.39,3.42,24.28-0.83c6.5-3.5,9.87-9.05,9.76-16.57c-0.06-3.67-0.43-7.35,0.48-10.99
		c2.81-11.22,15.18-14.86,25.65-13.48c12.61,1.67,23.3,7.95,33.96,14.12c16.14,9.34,31.03,20.36,43.39,34.51
		c1.66,1.9,3.03,3.97,3.95,6.34c0.77,1.97,0.87,4.15-1.01,5.17c-3.6,1.94-1.33,3.19,0.12,4.78c9.8,10.71,17.3,22.84,20.57,37.03
		c3.38,14.64,3.11,29.52,0.75,44.34c-1.45,9.15-2.74,18.35-5.84,27.12c-1.45,4.12-2.42,9.31-8.95,8.18
		c-1.08-0.19-1.42,0.74-1.64,1.67c-6.3,27.31-20.58,51.26-32.21,76.32c-3.59,7.74-7.3,15.44-9.31,23.81
		c-0.69,2.88-1.17,5.78-0.89,8.75c0.73,7.86,6.32,11.03,13.38,7.55c1.92-0.95,3.75-2.08,5.81-3.23
		c-0.81,6.43-6.37,11.43-12.93,11.96c-7.64,0.61-13.36-2.9-15.15-9.32c-2.46-8.82-0.96-17.57,0.79-26.24
		c4.25-21.02,12.12-40.85,20.58-60.45c1.08-2.49,0.73-3.22-1.54-4.63c-8.44-5.25-11.97-13.87-14.47-22.93
		c-2.61-9.44-3.07-19.14-2.94-28.89c0.02-1.56,1.1-4.33-2.63-3.31c-14.49,3.98-28.46,2.91-42.1-4.23c1.89,2.45,3.92,4.8,5.66,7.36
		c8,11.76,11.72,24.96,12.5,39c0.65,11.51-0.31,22.92-3.12,34.17c-1.36,5.43,0.66,10.8,1.07,16.2c2.1,27.61-5,51.71-27.29,69.67
		c-25.82,20.81-64.71,25.65-93.83,7.95c-4.39-2.67-9.65-2.21-14.46-3.48c-11.05-2.91-21.66-6.68-30.45-14.29
		c-19.16-16.59-19.01-49.42,0.25-64.32c11.32-8.76,28.46-9.98,38.38-2.74c3.05,2.23,4.32,3.92,5.87,8.09
		c-4.06-0.66-7.84-1.4-11.66-1.86c-7.15-0.87-14.14-0.01-20.74,2.91c-13.77,6.11-19.91,22.09-14.33,36.92
		c4.32,11.47,18.37,22.51,30.89,24.01c-7-12.28-7.6-24.45,0.66-36.13c3.99-5.64,9.68-8.63,17.69-8.35
		c-8.86,6.89-13.27,15.33-14.01,25.73c-0.78,10.95,9.72,22.57,20.68,22.65c22.03,0.16,41.16-6.23,54.85-24.64
		c3.63-4.88,6.31-10.24,8.3-16c0.95-2.76,0.81-3.52-2.53-3.11c-8.71,1.06-17.57,1.21-25.12-4.07c-4.07-2.84-8.23-4.73-13-5.76
		c-4.37-0.94-8.32-2.91-11.59-6.06c-3.96-3.83-5.36-10.16-3.41-15.1c0.5-1.28,1.09-2.66,2.54-2.73c1.67-0.08,1.28,1.72,1.65,2.68
		c1.74,4.52,4.94,7.55,9.19,9.68c2.41,1.21,3.53,0.85,3.41-2.09c-0.17-3.94,0.41-7.68,3.85-10.3c1.08-0.83,2.36-1.7,3.58-0.77
		c0.99,0.75-0.04,1.95-0.36,2.77c-3.64,9.4,1.11,14.75,12,13.15c6.69-0.98,11.87-4.85,16.52-9.56
		c15.87-16.08,15.88-40.45-0.07-54.73c-1.52-1.36-3.23-2.58-5.01-3.59c-8.93-5.08-9.72-4.96-16.7,2.51
		c-3.06,3.27-6.64,5.86-10.48,8.04c-2.26,1.28-2.7,1.92-0.59,3.96c5.04,4.86,3.92,10.02-2.62,13.25c-1.55-0.89-0.28-2.35-0.6-3.52
		c-1.16-4.22-5.14-5.57-8.88-3.33c-9.87,5.91-20.55,7.6-31.82,5.2c-0.97-0.21-1.95-0.76-2.74-1.39c-1.51-1.18-2.78-2.82-4.83-0.76
		c-1.87,1.88-1.93,3.92-0.63,6.01c0.83,1.33,1.95,2.49,2.99,3.79c-5.49,0.61-8.62-1.18-10.52-5.9c-1.99-4.93-0.6-10.16,3.59-13.45
		c3.33-2.62,7.24-4.13,11.3-4.75c5.68-0.86,11.56-1.25,17.11,0.37c6.63,1.94,12.05,0.34,17.3-3.65c4.15-3.16,7.66-6.87,10.83-10.96
		c1.28-1.65,2.07-2.71-0.97-3.51c-8.15-2.14-15.88-5.38-22.96-10.03c-1.52-1-2.41-0.89-3.57,0.68c-1.91,2.6-4.01,5.15-6.86,6.79
		c-2.25,1.29-1.2,2.92-0.85,4.6C217.86,273.77,213.75,278.47,207.15,277.45z"/>
	<path class="st3" d="M240.12,412.88c24.81-4.46,43.55-15.53,54.6-37.56c2.59-5.16,4.37-10.64,5.63-16.24
		c0.51-2.26,1.73-3.06,3.62-3.84c5.99-2.44,11.03-6.13,14.7-11.57c0.67-1,1.13-2.81,2.87-2.08c1.37,0.58,1.41,2.12,1.42,3.46
		c0.26,22.09-5.88,41.23-24.88,54.58c-12.44,8.74-26.06,14.13-41.3,15.11C251.54,415.09,246.38,414.46,240.12,412.88z"/>
	<path class="st4" d="M271.05,66.66c-1.76,0.64-3.33,1.27-4.94,1.77c-3.16,0.98-5.34-0.48-6.89-3.08c-0.44-0.73-0.64-1.84,0.25-2.38
		c1.08-0.66,1.39,0.33,1.79,1.15c1.55,3.2,3.61,4.01,6.5,1.39C269.34,64.06,270.28,65.03,271.05,66.66z"/>
	<path class="st5" d="M262.99,63.59c0.3-1.08,1.07-1.34,2.03-1.19c0.79,0.13,1.34,0.57,1.28,1.45c-0.07,1.07-0.7,1.56-1.73,1.45
		C263.57,65.19,263.05,64.57,262.99,63.59z"/>
</g>
<g id="Layer_2">
</g>
</svg>
