<?xml version="1.0" encoding="utf-8"?>
<!-- Generator: Adobe Illustrator 25.0.1, SVG Export Plug-In . SVG Version: 6.00 Build 0)  -->
<svg version="1.0" id="Layer_1" xmlns="http://www.w3.org/2000/svg" xmlns:xlink="http://www.w3.org/1999/xlink" x="0px" y="0px"
	 viewBox="0 0 500 500" style="enable-background:new 0 0 500 500;" xml:space="preserve">
<style type="text/css">
	.st0{fill:#6F5F60;}
	.st1{fill:#FED403;}
</style>
<path class="st0" d="M267.71,495.1c-12.6,0-25.2,0-37.8,0c-8.09-0.86-16.24-0.82-24.32-1.6c-14.89-1.45-29.11-5.8-43.05-10.99
	c-36.35-13.52-67.97-34.42-94.45-62.67C35.3,384.88,13.83,343.85,4.91,296.59c-2.05-10.87-1.96-22.02-2.24-33.06
	c-0.47-18.58-0.46-37.2,1.52-55.68c1.86-17.33,7.17-33.9,13.59-50.07c13.79-34.74,34.41-64.94,61.77-90.26
	c34.5-31.91,74.85-52.92,121.16-61.9c9.56-1.85,19.35-1.88,29.05-2.13c23.29-0.59,46.73-1.67,69.71,2.81
	c42.7,8.33,80.1,27.73,112.91,56.25c25.55,22.21,45.36,48.74,60.31,78.97c8.57,17.31,14.79,35.51,18.75,54.42
	c2,9.54,1.95,19.36,2.55,29.07c0.11,1.83-0.55,3.73,0.49,5.48c0,12.6,0,25.2,0,37.8c-0.95,8.08-0.88,16.23-1.67,24.32
	c-1.59,16.16-6.49,31.47-12.29,46.51c-10.58,27.42-25.72,52.09-45.19,74.12c-35.48,40.14-79.27,66.34-131.45,78.44
	c-10.09,2.34-20.45,2.21-30.72,2.92C271.35,494.73,269.45,494.05,267.71,495.1z"/>
<path class="st1" d="M247.71,223.29c1.54,7.41,2.92,14.86,4.63,22.22c10.33,44.37,25.59,86.75,50.95,124.99
	c6.78,10.23,14.3,19.9,22.97,28.6c2.68,2.68,3.24,4.14-0.76,6.14c-52.13,26.12-104.23,26.3-156.44,0.24
	c-4.03-2.01-4.34-3.32-1.1-6.7c24.95-25.96,41.49-57.09,54.5-90.27c10.33-26.35,18.01-53.48,22.92-81.38
	c0.23-1.3,0.71-2.56,1.07-3.84C246.88,223.3,247.3,223.3,247.71,223.29z"/>
<path class="st1" d="M326.16,117.42c-1.95,37.95-9.12,74.56-27.1,108.48c-3.35,6.32-7.21,12.33-11.55,18.02
	c-3.68,4.82-3.86,4.8-6.29-0.56c-9.1-20.09-14.95-41.19-19.34-62.72c-6.62-32.41-9.81-65.19-10.61-98.25
	c-0.12-4.82,1.26-5.98,5.97-5.65c22.86,1.6,44.53,7.31,65.02,17.62c2.82,1.42,4.07,3.03,3.95,6.22
	C326.01,106.18,326.16,111.8,326.16,117.42z"/>
<path class="st1" d="M167.78,115.37c0-4.25,0.4-8.55-0.1-12.74c-0.6-4.98,1.72-7.29,5.86-9.24c20.37-9.6,41.65-15.48,64.2-16.63
	c3.34-0.17,5.05,0.26,4.95,4.18c-1.35,52.26-7.24,103.74-25.92,153.06c-1.26,3.33-2.99,6.5-4.17,9.85
	c-1.71,4.87-3.45,3.61-5.81,0.45c-13.97-18.66-22.79-39.72-28.99-61.98C171.71,160.42,168.76,138.05,167.78,115.37z"/>
<path class="st1" d="M159.21,116.01c-1.89,27.84-6.33,55.13-16.2,81.33c-9.99,26.51-24.69,49.6-48.75,65.67
	c-3.81,2.55-7.91,4.66-11.9,6.93c-2.7,1.53-4.41,1.95-4.77-2.38c-4.25-51.55,10.5-96.78,44.84-135.51
	c9.52-10.74,20.37-20.01,32.46-27.79c1.1-0.71,2.25-2.19,3.54-1.57c1.69,0.81,0.7,2.73,0.75,4.15
	C159.29,109.9,159.21,112.96,159.21,116.01z"/>
<path class="st1" d="M417.35,249.77c-0.28,5.6-0.62,11.21-0.83,16.81c-0.15,4.06-1.12,5.31-5.42,3.11
	c-22.47-11.5-38.68-29.04-50.44-51.05c-14.93-27.94-21.47-58.19-24.52-89.37c-0.73-7.44-0.86-14.93-1.24-22.4
	c-0.07-1.33-0.68-3.09,0.42-3.89c1.52-1.1,2.81,0.59,3.99,1.37c20.98,13.94,38.15,31.61,51.45,52.99
	C408.11,185.21,417.16,217.01,417.35,249.77z"/>
<path class="st1" d="M163.1,222.16c3.19,7.81,5.8,14.55,8.67,21.18c5.44,12.59,12.97,23.87,22.11,34.06c1.47,1.64,2.47,3,1.24,5.35
	c-16.63,31.56-37.62,59.41-67.56,79.66c-7.06,4.78-7.14,4.69-12.61-2.09c-11.3-14-20.01-29.48-26.45-46.27
	c-1.04-2.71-0.94-4.14,2.05-5.48c35.24-15.74,57.04-43.41,69.84-79.01C161.16,227.41,161.96,225.27,163.1,222.16z"/>
<path class="st1" d="M331.05,221.91c4.39,13.56,9.14,25.32,15.87,36.2c13.96,22.54,32.34,40.11,56.91,50.7
	c2.48,1.07,2.9,2.22,1.97,4.64c-7.11,18.58-17.07,35.47-29.74,50.79c-2.32,2.81-4.16,1.65-6.5,0.18
	c-21.37-13.44-38.14-31.54-52.64-51.92c-6.51-9.15-12.32-18.73-17.45-28.73c-1.07-2.1-1.66-3.84,0.28-5.96
	c13.68-14.9,22.92-32.36,29.29-51.44C329.41,225.29,329.98,224.28,331.05,221.91z"/>
</svg>
