<?xml version="1.0" encoding="utf-8"?>
<!-- Generator: Adobe Illustrator 25.0.1, SVG Export Plug-In . SVG Version: 6.00 Build 0)  -->
<svg version="1.0" xmlns="http://www.w3.org/2000/svg" xmlns:xlink="http://www.w3.org/1999/xlink" x="0px" y="0px"
	 viewBox="0 0 500 500" style="enable-background:new 0 0 500 500;" xml:space="preserve">
<style type="text/css">
	.st0{fill:#4E2A81;}
	.st1{fill:#BCB6C4;}
	.st2{fill:#FDAB00;}
</style>
<g id="Layer_1">
	<path class="st0" d="M4.01,264.39c0-9.44,0-18.87,0-28.31c0.93-8.01,0.79-16.08,1.47-24.1c0.94-11.05,3.59-21.77,6.78-32.34
		c10.35-34.32,27.09-65.19,50.61-92.26c29.74-34.23,66.3-58.43,109.19-72.99c18.06-6.13,36.53-10.16,55.77-10.19
		c4.98-0.01,9.99-0.29,14.99-0.34c5.32,0,10.63,0,15.95,0c25.26-0.57,49.87,2.85,73.74,11.42c29.43,10.57,56.3,25.59,80.06,45.91
		c23.05,19.71,41.88,42.9,56.51,69.55c13.69,24.93,23.33,51.28,27.12,79.42c2.41,17.91,2.37,36.08,1.56,54.19
		c-0.42,9.4-0.22,18.85-1.72,28.16c-4.51,28.07-14.04,54.4-27.92,79.19c-12.11,21.62-27.13,40.97-45.02,58.11
		c-15.61,14.96-32.85,27.63-51.78,38.11c-23.95,13.25-49.34,22.25-76.25,27.11c-7.57,1.37-15.21,1.57-22.83,1.94
		c-19.42,0.94-38.85,0.68-58.21-0.95c-11.45-0.97-22.62-3.91-33.66-7.15c-33.55-9.86-63.69-26.15-90.35-48.7
		c-23.5-19.88-42.66-43.39-57.44-70.47c-12.75-23.35-21.75-47.99-26.23-74.21c-1.46-8.56-1.38-17.27-1.9-25.92
		C4.33,267.84,4.93,266.05,4.01,264.39z"/>
	<path class="st1" d="M241.9,4.18c0.04-0.25,0.06-0.5,0.07-0.76c5.9,0,11.8,0,17.69,0c0.07,0.23,0.1,0.47,0.1,0.72
		C253.81,4.16,247.86,4.17,241.9,4.18z"/>
	<path class="st2" d="M299.78,395.79c-10.47,0-20.93-0.07-31.4,0.05c-2.86,0.03-4.19-0.48-4.16-3.83
		c0.17-18.13,0.15-36.26,0.05-54.39c-0.02-3.26,0.59-3.73,3.63-2.31c14.34,6.73,29.22,11.87,45.14,13.11
		c11.44,0.9,22.76,0.35,32.8-6.25c13.14-8.63,18.08-21.88,19.18-36.6c2.69-36.09-4.74-70-23.52-101.15
		c-19.18-31.82-42.65-59.97-71.71-83.29c-1.61-1.29-3.24-2.56-4.98-3.67c-15.37-9.85-10.5-10.31-25.66,0.25
		c-21.46,14.95-38.83,34.29-54.8,54.84c-14.51,18.67-27.59,38.33-35.61,60.74c-8.58,23.98-12.14,48.86-9.45,74.3
		c1.46,13.74,6.37,26.08,18.45,34.26c10.23,6.93,21.84,7.55,33.58,6.57c15.6-1.3,30.25-6.25,44.33-12.84
		c3.73-1.75,4.27-0.97,4.24,2.77c-0.15,17.84-0.14,35.67-0.03,53.51c0.02,3.03-0.82,4.04-3.97,4.02
		c-20.64-0.14-41.27-0.1-61.91-0.08c-2.55,0-4.93-0.4-7.27-1.5c-27.03-12.78-54.06-25.55-81.15-38.18c-2.94-1.37-3.6-2.69-2.76-5.93
		c11.26-43.47,22.34-86.99,33.47-130.49c3.83-14.97,7.74-29.93,11.5-44.92c0.54-2.13,1.57-3.7,3.15-5.13
		c39.56-35.78,79.11-71.57,118.57-107.45c2.21-2.01,3.34-1.62,5.29,0.15c39.16,35.56,78.37,71.07,117.6,106.54
		c2.15,1.95,3.49,4.08,4.22,6.96c14.79,58.2,29.66,116.39,44.64,174.55c0.78,3.04,0.27,4.34-2.6,5.67
		c-27.23,12.68-54.39,25.51-81.55,38.34c-2.2,1.04-4.41,1.43-6.82,1.42C320.13,395.75,309.96,395.79,299.78,395.79z"/>
</g>
<g id="Layer_2">
</g>
</svg>
