<?xml version="1.0" encoding="utf-8"?>
<!-- Generator: Adobe Illustrator 25.0.1, SVG Export Plug-In . SVG Version: 6.00 Build 0)  -->
<svg version="1.1" id="Layer_1" xmlns="http://www.w3.org/2000/svg" xmlns:xlink="http://www.w3.org/1999/xlink" x="0px" y="0px"
	 viewBox="0 0 500 500" style="enable-background:new 0 0 500 500;" xml:space="preserve">
<style type="text/css">
	.st0{fill:#FFFFFF;}
	.st1{fill:#0F6CB5;}
	.st2{fill:#C6303A;}
	.st3{fill:#0F6DB5;}
	.st4{fill:#FEFEFE;}
</style>
<g id="Layer_1_1_">
	<path class="st0" d="M497,251.2C497,387,386.7,497,250.6,497C114.9,497,5,386.6,5.1,250.4C5.1,114.6,115.7,5,252.4,5.1
		C387.1,5.2,497,115.8,497,251.2z"/>
	<path class="st1" d="M298,238.8c-2.2,6.4-4.4,12.8-6.6,19.3c-9.4,27.3-18.7,54.6-28.1,81.9c-0.3,0.9-0.7,1.2-1.6,1.2
		c-7.5,0-15,0-22.5,0c-0.9,0-1.3-0.2-1.6-1.1c-11.3-33.4-22.7-66.9-34.1-100.3c-0.2-0.5-0.3-1.5-0.7-1.4c-0.6,0.2-0.3,1.1-0.3,1.6
		c0,33.2,0,66.5,0,99.7c0,1.2-0.3,1.5-1.5,1.5c-9.8,0-19.7,0-29.5,0c-1,0-1.2-0.2-1.2-1.2c0-48.1,0-96.2,0-144.3
		c0-0.9,0.2-1.3,1.2-1.3c14.7,0,29.4,0,44.1,0c0.9,0,1.3,0.2,1.6,1.1c11.1,32.8,22.3,65.6,33.4,98.4c0.2,0.5,0.1,1.2,0.6,1.3
		c0.5,0,0.5-0.8,0.6-1.2c10.6-32.8,21.1-65.5,31.6-98.3c0.3-1,0.7-1.3,1.8-1.3c14.6,0,29.2,0,43.8,0c1.1,0,1.4,0.2,1.4,1.3
		c0,48,0,96,0,144.1c0,1-0.2,1.4-1.3,1.4c-9.9,0-19.8,0-29.7,0c-1.1,0-1.3-0.3-1.3-1.3c0-33.2,0-66.4,0-99.6c0-0.5,0-0.9,0-1.4
		C298.2,238.8,298.1,238.8,298,238.8z"/>
	<path class="st2" d="M448.6,261.3c2.2,0.8,4.3,1.5,6.3,2.4c10.5,5,16.4,13.7,18.7,24.8c1.6,8,1.5,16-1,23.8
		c-3.6,11-11.1,18.5-21.5,23.3c-8.4,3.8-17.2,5.4-26.4,5.4c-22.8,0-45.6,0-68.4,0c-0.9,0-1.1-0.2-1.1-1.1c0-48.2,0-96.3,0-144.5
		c0-0.9,0.2-1.1,1.1-1.1c22.1,0,44.2,0,66.4,0c7.6,0,15.1,0.6,22.4,3c6.4,2.1,12.1,5.3,16.3,10.8c3.1,4.2,5,8.9,5.8,14.1
		c1,6.1,1,12.2-0.4,18.2c-2,8.1-7,14-13.9,18.4C451.4,259.8,450,260.5,448.6,261.3z"/>
	<path class="st2" d="M88.1,194.4c19.8,0,39.5,0,59.3,0c1.1,0,1.4,0.2,1.4,1.4c-0.1,8.2-0.1,16.3,0,24.5c0,1.2-0.4,1.4-1.4,1.4
		c-13.9,0-27.8,0-41.6,0c-1.2,0-1.5,0.2-1.5,1.5c0,38.8,0,77.7,0,116.5c0,1.8,0.2,1.5-1.6,1.5c-9.8,0-19.5,0-29.3,0
		c-1.2,0-1.4-0.3-1.4-1.4c0-38.9,0-77.8,0-116.6c0-1.7,0.2-1.5-1.5-1.5c-14,0-27.9,0-41.9,0c-1.1,0-1.3-0.3-1.3-1.3
		c0-8.2,0-16.5,0-24.7c0-1,0.3-1.2,1.2-1.2C48.4,194.4,68.2,194.4,88.1,194.4z"/>
	<path class="st3" d="M216.2,151.7c0,12.8-10.5,23.3-23.2,23.3c-12.9,0-23.3-10.5-23.3-23.5c0-12.7,10.4-23.1,23.3-23.1
		C205.9,128.5,216.2,138.8,216.2,151.7z"/>
	<path class="st3" d="M331.2,151.6c0,12.9-10.4,23.4-23.2,23.4c-12.8,0-23.2-10.4-23.2-23.3c0-12.9,10.3-23.2,23.2-23.2
		C320.9,128.4,331.2,138.7,331.2,151.6z"/>
	<path class="st4" d="M386.4,295.9c0-6.3,0-12.7,0-19c0-0.8,0.1-1.2,1.1-1.2c11.6,0,23.3,0,35,0.1c3,0,5.9,0.6,8.8,1.6
		c7.2,2.5,10.9,7.6,11.8,15.1c0.4,3.4,0.4,6.7-0.3,10.1c-1.5,6.6-6,10.4-12.3,12.3c-3.6,1.1-7.2,1.3-10.9,1.3c-10.6,0-21.2,0-31.8,0
		c-1,0-1.3-0.2-1.3-1.2C386.5,308.6,386.4,302.2,386.4,295.9z"/>
	<path class="st4" d="M404.3,253.8c-5.6,0-11.1,0-16.7,0c-0.9,0-1.2-0.1-1.2-1.1c0-10.7,0-21.4,0-32.1c0-0.9,0.2-1.1,1.1-1.1
		c10,0,19.9,0,29.9,0c2.7,0,5.5,0.3,8.2,1c7.4,1.8,11.5,6.8,12,14.5c0.1,2.6-0.1,5.1-0.8,7.6c-1.6,5.8-5.8,8.8-11.3,10.3
		c-2.5,0.7-5.2,0.9-7.8,0.9C413.2,253.8,408.8,253.8,404.3,253.8z"/>
</g>
<g id="Layer_2_1_">
</g>
</svg>
