<?xml version="1.0" encoding="utf-8"?>
<!-- Generator: Adobe Illustrator 25.0.1, SVG Export Plug-In . SVG Version: 6.00 Build 0)  -->
<svg version="1.0" xmlns="http://www.w3.org/2000/svg" xmlns:xlink="http://www.w3.org/1999/xlink" x="0px" y="0px"
	 viewBox="0 0 500 500" style="enable-background:new 0 0 500 500;" xml:space="preserve">
<style type="text/css">
	.st0{fill:#F26F23;}
	.st1{fill:#FEFEFE;}
	.st2{fill:#F15F00;}
	.st3{fill:#040707;}
	.st4{fill:#F26F21;}
	.st5{fill:#F26507;}
	.st6{fill:#676767;}
</style>
<g id="Layer_1">
	<path class="st0" d="M497.9,250.14c-0.01,136.92-111.13,247.8-248.3,247.76C112.78,497.87,2.03,386.66,2.1,249.36
		C2.16,112.45,113.57,1.95,251.39,2.1C387.16,2.24,497.92,113.69,497.9,250.14z"/>
	<path class="st1" d="M184.56,226.96c-2.85,0-5.33,0-7.81,0c-25.31,0.01-50.63-0.06-75.94,0.1c-4.09,0.03-4.66-0.61-3.11-4.6
		c6.28-16.18,12.85-32.04,25.06-44.98c17.25-18.29,38.71-28.89,62.52-35.45c23-6.34,46.52-7.71,70.23-7.68
		c60.62,0.07,121.24,0.02,181.86,0.02c5.72,0,5.69-0.01,3.56,5.34c-5.42,13.59-10.62,27.26-20.02,38.84
		c-17.04,21.01-39.62,33-65.04,40.43c-5.56,1.63-11.25,2.81-17.16,4.26c1.2,2.23,3.58,2.78,5.42,3.89
		c11.01,6.66,19.83,15.29,23.81,27.8c5.08,15.95,2.01,30.87-6.8,44.82c-11.58,18.34-28.09,31.4-46.31,42.4
		c-33.65,20.31-70.15,32.47-109.14,37.25c-25.46,3.12-50.79,3.4-75.82-3.22c-11.2-2.96-21.82-7.25-30.84-14.65
		c-20.59-16.89-24.87-42.47-11.32-65.4c9-15.22,21.61-26.93,35.83-37c18.16-12.85,37.9-22.7,58.88-30.08
		C183.15,228.77,184.04,228.73,184.56,226.96z"/>
	<ellipse class="st2" cx="337.07" cy="132.58" rx="148.24" ry="0.32"/>
	<path class="st3" d="M242.09,230.1c-17.12,6.88-29.43,18.87-37.86,35.18c-6.03,11.66-12.24,23.24-18.73,34.66
		c-7.94,13.98-15.85,28.1-32.9,35.67c16.12,1.34,30.68,1.1,45.08-1.57c18.74-3.48,35.99-10.42,50.67-23.02
		c9.04-7.75,15.31-17.37,20.3-28.04c6.27-13.4,13.55-26.29,20.86-39.14c1.15-2.02,2.57-3.88,3.95-5.76
		c7.53-10.21,10.33-11.21,22.53-8.25c7.47,1.81,14.65,4.4,21.3,8.28c21.72,12.65,26.74,33.05,13.39,54.32
		c-10.54,16.8-25.73,28.61-42.36,38.69c-25.4,15.39-52.94,25.42-81.96,31.39c-26.43,5.44-53.03,7.76-79.85,3.1
		c-13.19-2.29-25.95-5.94-36.8-14.26c-15.72-12.05-19.13-29.65-9.42-47.01c9.99-17.86,25.28-30.3,42.24-40.79
		c29.06-17.99,60.81-28.89,94.43-34.57C238.82,228.69,240.91,227.3,242.09,230.1z"/>
	<path class="st4" d="M139.03,213.08c-5.99,0.1-11.98,0.12-17.96,0.31c-3.45,0.11-3.42-1.16-2.19-3.87
		c8.29-18.27,21.69-31.74,38.95-41.48c20.51-11.58,42.92-16.66,66.16-18.94c18.79-1.84,37.61-0.96,56.42-1.02
		c46.14-0.16,92.28-0.05,138.42-0.05c5.67,0,5.63,0.1,3.09,5.38c-12.63,26.17-34.51,41.21-61.08,50.24
		c-18.37,6.24-37.35,9.59-56.85,9.42c-1.7-1.48-3.78-1.04-5.73-1.04c-51.17-0.02-102.33-0.02-153.5,0
		C142.81,212.03,140.73,211.59,139.03,213.08z"/>
	<path class="st5" d="M139.03,213.08c0.31-2.47,2.22-2.05,3.82-2.05c52.43-0.01,104.87-0.02,157.3,0c1.6,0,3.51-0.43,3.83,2.04
		c-2.65,0.1-5.3,0.29-7.95,0.29c-50.84,0-101.69-0.02-152.53-0.05C142.01,213.3,140.52,213.16,139.03,213.08z"/>
	<path class="st6" d="M242.09,230.1c-1.31-2.17-3.53-0.26-5.12-1.13c3.65-1.32,7.34-2.39,11.62-1.73
		C246.89,229.85,244.2,229.33,242.09,230.1z"/>
</g>
<g id="Layer_2">
</g>
</svg>
