<?xml version="1.0" encoding="utf-8"?>
<!-- Generator: Adobe Illustrator 25.0.1, SVG Export Plug-In . SVG Version: 6.00 Build 0)  -->
<svg version="1.0" xmlns="http://www.w3.org/2000/svg" xmlns:xlink="http://www.w3.org/1999/xlink" x="0px" y="0px"
	 viewBox="0 0 500 500" style="enable-background:new 0 0 500 500;" xml:space="preserve">
<style type="text/css">
	.st0{fill:#FFFFFF;}
	.st1{fill:#006EA5;}
	.st2{fill:#26A035;}
	.st3{fill:#82B7D6;}
	.st4{fill:#B2D2A1;}
</style>
<g id="Layer_1">
	<circle class="st0" cx="250" cy="250" r="250"/>
	<path class="st1" d="M287.67,260.25c-19.74-9.82-40.22-17.98-60.25-27.14c-22.94-10.48-46.89-18.85-68.68-31.7
		c-33.2-19.6-42.04-58.67-20.8-89.79c5.61-8.22,13.05-14.53,21.11-20.2c1-0.39,1.99-1.66,3.07-0.59c0.99,0.98,0.2,2.19-0.28,3.22
		c-2.28,4.88-3.71,9.93-3.12,15.39c1.13,10.43,7.46,17.18,16.15,21.87c13.44,7.26,27.7,12.8,41.57,19.17
		c2.57,1.18,5.07,2.42,7.47,3.87l0,0c2.43,1.77,5.26,2.77,7.93,4.05c30.8,13.62,61.65,27.14,92.37,40.92
		c12.16,5.46,24.5,10.56,35.07,19.13c33.73,27.37,30.87,77.18-5.91,100.14c-1.25,0.78-2.42,1.69-3.63,2.54
		c-1.36,0.15-2.55,2.21-3.99,0.65c-0.72-0.78,0.08-1.89,0.63-2.71c9.05-13.45,2.37-28.23-9.79-35.7
		c-8.1-4.98-17.13-7.91-25.62-12.03C303.24,267.58,295.15,264.57,287.67,260.25z"/>
	<path class="st2" d="M218.82,283.17c10.87,6.01,22.59,10.14,33.86,15.25c29.36,13.31,59.06,25.86,88.21,39.61
		c16.23,7.66,29.57,19.27,35.13,37.2c6.17,19.91,2.83,38.74-8.44,56.23c-1.16,1.8-2.11,2.31-3.9,0.87
		c-20.01-16.05-43.1-26.68-66.26-37.07c-41.98-18.84-84.18-37.21-126.16-56.06c-13.89-6.23-26.51-14.41-36.04-26.78
		c-16.34-21.22-17.33-64.47,16.59-86.41c2.46-1.59,4.81-3.36,7.21-5.04c1.05-0.22,2.17-1.61,3.11-0.42
		c1.13,1.44-0.15,2.81-0.86,4.07c-5.38,9.5-4.64,18.76,1.24,27.71c2.52,3.83,6.25,6.43,10.14,8.68
		c12.41,7.15,25.86,12.1,38.85,18.04C214.07,280.22,216.78,281.09,218.82,283.17z"/>
	<path class="st3" d="M223.91,154.34c-17.75-6.43-35.06-13.99-51.55-23.11C158.64,123.64,152.67,108.92,161,93
		c1.76-3.35-1.39-0.94-1.96-1.59c7.7-4.77,15.37-9.58,23.1-14.31c27.86-17.03,55.75-34,83.56-51.12c2.34-1.44,3.86-1.53,6.2-0.02
		c25.88,16.72,29.68,52.05,8.06,74.05c-9.12,9.28-20.8,14.61-31.48,21.49c-7.1,4.57-14.53,8.65-21.74,13.06
		C216.58,140.79,215.85,146.13,223.91,154.34z"/>
	<path class="st3" d="M166.93,429.73c-25.71-0.17-45.64-19.46-49.71-43.96c-0.4-2.39,0.31-4.02,2.54-5.34
		c15.13-8.96,30.21-18,45.24-27.11c2.51-1.52,4.7-1.74,7.44-0.49c24,10.95,48.02,21.89,72.14,32.56c4.05,1.79,2.77,2.51,0.18,4.13
		c-17.45,10.92-34.75,22.07-52.33,32.76C184.73,426.98,176.15,429.71,166.93,429.73z"/>
	<path class="st4" d="M377.37,139.76c-0.14,23.97-11.41,37.86-28.72,48.5c-7.27,4.47-12.94,4.03-20.37,0.54
		c-21.59-10.16-43.6-19.41-65.44-29.05c-1.11-0.49-2.89-0.33-2.93-2.18c-0.03-1.69,1.58-2,2.66-2.65
		c17.88-10.82,35.78-21.61,53.69-32.39c10.65-6.41,21.37-12.71,31.92-19.27c2.96-1.84,5.19-1.97,8.06,0.15
		C369.46,113.19,377.12,125.89,377.37,139.76z"/>
	<path class="st3" d="M287.67,260.25c11.21,3.2,21.27,9.13,31.97,13.54c5.96,2.46,11.9,4.98,17.49,8.35
		c13.21,7.94,20.46,24.22,9.21,39.47c1.24-0.17,2.32-0.33,3.4-0.48c-3.59,3.62-7,4.57-12.27,2.12
		c-23.71-11.01-47.69-21.43-71.58-32.04c-1.03-0.46-2.49-0.5-2.57-1.93c-0.09-1.61,1.63-1.35,2.54-1.9
		c6.38-3.83,12.94-7.38,19.14-11.47C292.07,271.24,292.63,266.84,287.67,260.25z"/>
	<path class="st4" d="M218.82,283.17c-16.34-6.41-32.64-13-47.87-21.77c-12.02-6.92-16.24-17.18-13.73-30.69
		c0.53-2.83,1.74-5.37,3.48-7.61c2.46-3.17-0.69-1.76-1.67-2.13c2.32-2.77,4.82-3.29,8.32-1.72c24.36,10.95,48.8,21.72,73.23,32.53
		c1.17,0.52,2.88,0.48,2.95,2.18c0.07,1.74-1.69,1.7-2.79,2.33c-6.03,3.48-12.14,6.84-17.99,10.61
		C214.77,272.04,214.19,275.04,218.82,283.17z"/>
	<path class="st3" d="M231.85,158.39c-3.13-0.41-5.94-1.42-7.93-4.05C226.82,155.18,229.57,156.32,231.85,158.39z"/>
</g>
<g id="Layer_2">
</g>
</svg>
