<?xml version="1.0" encoding="utf-8"?>
<!-- Generator: Adobe Illustrator 25.0.1, SVG Export Plug-In . SVG Version: 6.00 Build 0)  -->
<svg version="1.0" xmlns="http://www.w3.org/2000/svg" xmlns:xlink="http://www.w3.org/1999/xlink" x="0px" y="0px"
	 viewBox="0 0 500 500" style="enable-background:new 0 0 500 500;" xml:space="preserve">
<style type="text/css">
	.st0{fill:#0A3977;}
	.st1{fill:#FEFEFE;}
</style>
<g id="Layer_1">
	<path class="st0" d="M2.09,249.77C2.11,112.88,113.27,2.06,250.49,2.11C387.31,2.16,498,113.4,497.92,250.74
		c-0.09,136.7-111.44,247.27-248.9,247.15C112.85,497.77,2.06,386.45,2.09,249.77z"/>
	<path class="st1" d="M172.14,337.97c-0.01,22.15,0.06,44.31-0.04,66.46c-0.03,7.7-4.91,14.22-11.71,16.3
		c-6.63,2.02-14.01-0.55-18.09-6.36c-2.48-3.53-3.3-7.48-3.3-11.79c0.06-43.48-0.04-86.96,0.15-130.44
		c0.02-4.64-1.25-5.74-5.72-5.63c-12.49,0.3-24.99,0.23-37.48,0.04c-8.48-0.13-15.04-5.15-16.84-12.32
		c-1.78-7.08,1.14-14.34,7.3-18.17c3.38-2.1,7.11-2.68,11-2.68c12.16,0.01,24.33-0.17,36.48,0.1c4.03,0.09,5.27-0.77,5.26-5.08
		c-0.18-43.81-0.13-87.63-0.1-131.44c0.01-10.75,7.2-18.51,16.85-18.33c8.58,0.16,15.73,7.09,16.15,15.9
		c0.22,4.49,0.09,8.99,0.09,13.49c0,40.15,0.06,80.3-0.08,120.44c-0.01,3.85,0.86,5.22,4.91,5.01c6.81-0.34,13.67-0.37,20.48,0.01
		c4.16,0.23,4.82-1.32,4.81-5.04c-0.12-43.15-0.08-86.29-0.07-129.44c0-2.49-0.01-4.96,0.64-7.43c2.19-8.38,9.49-13.72,17.74-12.83
		c7.93,0.86,14.23,7.56,14.41,15.94c0.23,11.16,0.1,22.32,0.1,33.48c0.01,33.32,0.11,66.64-0.12,99.95
		c-0.03,4.59,1.32,5.6,5.56,5.36c6.31-0.35,12.67-0.35,18.98,0c4.24,0.24,5.57-0.78,5.55-5.36c-0.21-43.15-0.13-86.29-0.1-129.44
		c0-2.48-0.02-5.05,0.59-7.42c2.14-8.34,9.73-13.48,17.98-12.46c8.08,1,14.31,7.96,14.44,16.52c0.15,9.99,0.05,19.99,0.05,29.99
		c0,34.48,0.06,68.97-0.08,103.45c-0.02,3.64,0.74,4.92,4.6,4.73c6.81-0.34,13.67-0.33,20.48,0c3.99,0.19,4.95-1.09,4.94-4.98
		c-0.14-39.81-0.09-79.63-0.09-119.44c0-4-0.03-8,0.01-11.99c0.09-10.89,7.03-18.53,16.71-18.42c9.62,0.11,16.38,7.83,16.38,18.81
		c0.02,28.15,0.01,56.31,0.01,84.46c0,15.66,0.15,31.32-0.1,46.98c-0.06,3.86,1.07,4.67,4.72,4.6c12.32-0.23,24.66-0.08,36.98-0.09
		c4.24,0,8.28,0.66,11.85,3.16c5.53,3.86,8.17,10.37,6.52,17.1c-1.65,6.78-6.17,11.01-12.92,12.38c-6.9,1.4-13.95,0.44-20.94,0.57
		c-7.16,0.13-14.34,0.23-21.49-0.06c-3.64-0.15-4.77,0.7-4.73,4.58c0.22,21.65,0.1,43.31,0.1,64.97c0,22.66,0.05,45.31-0.03,67.97
		c-0.03,8.94-6.16,16.07-14.36,17.14c-8.27,1.08-15.92-4-18.09-12.31c-0.62-2.37-0.6-4.94-0.6-7.42
		c-0.03-43.15-0.09-86.29,0.08-129.44c0.02-4.35-0.94-5.8-5.45-5.51c-6.64,0.42-13.33,0.36-19.98,0.01
		c-3.84-0.2-4.63,1.06-4.62,4.72c0.13,43.98,0.1,87.96,0.07,131.94c-0.01,10.7-7.3,18.44-16.95,18.19
		c-8.77-0.23-15.84-7.36-16.04-16.53c-0.19-8.33-0.07-16.66-0.07-24.99c0-35.98-0.1-71.97,0.12-107.95
		c0.03-4.56-1.28-5.62-5.54-5.38c-6.31,0.36-12.67,0.35-18.98,0c-4.21-0.23-5.59,0.74-5.57,5.35c0.21,43.15,0.13,86.29,0.1,129.44
		c0,2.48,0.02,5.05-0.58,7.43c-2.13,8.34-9.72,13.49-17.98,12.47c-8.08-0.99-14.31-7.95-14.46-16.51
		c-0.15-9.33-0.05-18.66-0.05-27.99c0-35.15-0.06-70.3,0.08-105.45c0.01-3.62-0.71-4.94-4.59-4.74c-6.98,0.34-14,0.28-20.98,0.02
		c-3.51-0.13-4.46,0.98-4.44,4.46C172.22,293.32,172.14,315.65,172.14,337.97z"/>
</g>
<g id="Layer_2">
</g>
</svg>
